<svg xmlns="http://www.w3.org/2000/svg" version="1.1" viewBox="87.63 454.8 3081.52 750.2">

<!-- RW 2 -->
<path d="M0 0 C1.36930153 0.00899523 2.73860503 0.01769378 4.10791016 0.02612305 C7.82153978 0.05415434 11.53469993 0.10111499 15.24804688 0.15429688 C17.69397757 0.18846353 20.13993583 0.21749669 22.5859375 0.24609375 C40.83895777 0.47324469 58.85281316 0.96388004 76.96875 3.37109375 C85.85476479 4.52829771 94.790182 5.11987829 103.72219849 5.80505371 C113.83675841 6.59067614 123.78393971 7.74650826 133.8125 9.3125 C143.21597739 10.76939528 152.38153782 11.33601356 161.89453125 11.41796875 C163.52239815 11.43428345 163.52239815 11.43428345 165.18315125 11.45092773 C170.62289403 11.49540801 176.0573808 11.49085879 181.49682617 11.42041016 C193.84723654 11.36466175 202.06417696 12.3487869 212.625 19.1875 C214.89346301 20.56308886 217.16364321 21.92626409 219.453125 23.265625 C220.02593201 23.60270981 220.59873901 23.93979462 221.18890381 24.28709412 C228.18393742 28.27199564 235.72076319 30.55808 243.375 32.9375 C246.2258114 33.8432031 249.07392012 34.75723563 251.921875 35.671875 C252.59988663 35.88790878 253.27789825 36.10394257 253.97645569 36.32652283 C258.57353168 37.80445355 263.04145324 39.48231533 267.50048828 41.32958984 C272.7004398 43.42940938 278.12062389 44.9239805 283.48535156 46.54199219 C284.90223911 46.96945119 286.31827253 47.3997525 287.73339844 47.83300781 C295.35674589 50.16639656 302.96885851 52.32070217 310.75 54.0625 C320.70562301 56.30031261 330.40221883 59.36700878 340.13574219 62.41064453 C343.08573537 63.33128776 346.04267174 64.22823604 349 65.125 C355.4461119 67.11837597 361.88046148 69.14924355 368.3125 71.1875 C369.37065918 71.51999756 370.42881836 71.85249512 371.51904297 72.19506836 C378.01393043 74.2625482 384.32209276 76.59924921 390.625 79.1875 C393.28405334 80.22878615 395.95230701 81.24429247 398.625 82.25 C399.31287598 82.50894043 400.00075195 82.76788086 400.70947266 83.03466797 C405.21047071 84.70972829 409.73073316 86.16790759 414.3515625 87.48046875 C416.76301943 88.23042357 419.04629901 89.14905573 421.375 90.125 C426.90205509 92.3833666 432.54877546 93.97477566 438.30273438 95.54980469 C442.09342541 96.59073036 445.87873733 97.65082695 449.66430664 98.71020508 C451.86324816 99.32476716 454.06297016 99.93654283 456.26342773 100.5456543 C465.45650659 103.1003899 465.45650659 103.1003899 469.92578125 104.57421875 C479.1246848 107.57967447 488.38576896 109.22389172 497.9375 110.6875 C515.79311457 113.42545991 532.50728347 117.64138868 549.5859375 123.4921875 C554.17053522 125.05412696 558.78453717 126.46963729 563.4375 127.8125 C568.82771931 129.37047246 574.20581636 130.95482771 579.5625 132.625 C580.22475586 132.8310083 580.88701172 133.0370166 581.56933594 133.24926758 C584.91220065 134.2994775 588.23440113 135.38959306 591.5390625 136.5546875 C601.2983802 139.97267044 611.17752137 142.74034434 621.1875 145.3125 C621.86978668 145.48854767 622.55207336 145.66459534 623.2550354 145.84597778 C632.30908031 148.19112967 632.30908031 148.19112967 641.44921875 150.1640625 C654.39119155 152.68172568 665.97537869 158.36193373 677.84863281 163.92236328 C680.41474133 165.0916892 682.99771725 166.164312 685.625 167.1875 C685.625 169.4975 685.625 171.8075 685.625 174.1875 C703.93894877 180.70602414 722.43012945 182.54552804 741.73388672 182.44824219 C744.22779138 182.43759482 746.72096168 182.44817605 749.21484375 182.4609375 C771.27768425 182.48562444 792.85654481 179.60904482 814.625 176.25 C818.07177272 175.72349086 821.51885747 175.19914223 824.96630859 174.67709351 C827.22487898 174.33457521 829.48302598 173.98925253 831.74072266 173.64102173 C837.19185837 172.80979148 842.63641847 172.04964988 848.1171875 171.44091797 C849.66841309 171.26308022 849.66841309 171.26308022 851.25097656 171.08164978 C853.17557573 170.8663094 855.10203023 170.66664145 857.03027344 170.48683167 C864.37188882 169.65721654 869.84397816 167.04885334 875.71633911 162.60484314 C878.1118703 160.82595737 880.54993459 159.80151916 883.3046875 158.65625 C885.01942261 157.94227051 885.01942261 157.94227051 886.76879883 157.21386719 C888.01231756 156.7045529 889.25605676 156.19577659 890.5 155.6875 C891.12828705 155.42859985 891.7565741 155.16969971 892.40390015 154.9029541 C906.98575176 148.89973112 921.78069363 143.50174076 936.625 138.1875 C936.955 133.5675 937.285 128.9475 937.625 124.1875 C942.00351608 124.14162498 946.38120083 124.10179032 950.75976562 124.07763672 C952.2497032 124.06756957 953.73962097 124.05391482 955.22949219 124.03662109 C957.36919028 124.01240347 959.50862753 124.00102436 961.6484375 123.9921875 C962.93669434 123.98171387 964.22495117 123.97124023 965.55224609 123.96044922 C968.625 124.1875 968.625 124.1875 970.625 126.1875 C972.82018623 126.63309224 975.0368113 126.97485244 977.2578125 127.265625 C978.62781771 127.45469255 979.99768616 127.64475322 981.36743164 127.83569336 C982.0838382 127.93332977 982.80024475 128.03096619 983.5383606 128.13156128 C995.90968152 129.84290088 1007.18647339 131.98460447 1018.625 137.1875 C1020.69337548 138.04038692 1022.76979009 138.87039017 1024.84936523 139.69555664 C1026.74301466 140.44758446 1028.62961889 141.21728519 1030.515625 141.98828125 C1035.20985783 143.79874542 1038.83827237 144.24967858 1043.875 144.375 C1050.45060861 144.84679255 1054.04286586 146.52989541 1058.625 151.1875 C1059.43130859 151.991875 1059.43130859 151.991875 1060.25390625 152.8125 C1061.6875 154.375 1061.6875 154.375 1063.625 157.1875 C1063.295 158.1775 1062.965 159.1675 1062.625 160.1875 C1063.50800781 160.12304688 1064.39101562 160.05859375 1065.30078125 159.9921875 C1070.85650048 160.31861049 1074.54899586 163.59188206 1078.625 167.1875 C1080.3125 170.1875 1080.3125 170.1875 1081.625 173.1875 C1085.63092499 177.79936365 1085.63092499 177.79936365 1090.625 181.1875 C1090.625 181.8475 1090.625 182.5075 1090.625 183.1875 C1091.3675 183.455625 1092.11 183.72375 1092.875 184 C1095.51561949 185.14026751 1097.48052844 186.28130306 1099.625 188.1875 C1099.625 188.8475 1099.625 189.5075 1099.625 190.1875 C1100.4603125 190.5896875 1100.4603125 190.5896875 1101.3125 191 C1103.83725334 192.29649496 1106.26214484 193.61226323 1108.625 195.1875 C1108.625 195.8475 1108.625 196.5075 1108.625 197.1875 C1109.69427734 197.56455078 1109.69427734 197.56455078 1110.78515625 197.94921875 C1113.90016696 199.30748339 1116.33513164 200.97671823 1119.0625 203 C1120.02285156 203.70769531 1120.98320313 204.41539062 1121.97265625 205.14453125 C1124.07027096 206.76021975 1126.04124744 208.41190352 1128 210.1875 C1130.4544059 212.3714339 1130.4544059 212.3714339 1133.375 212.6875 C1135.99852862 212.37677121 1135.99852862 212.37677121 1137.625 209.1875 C1137.82094914 207.13784039 1137.82094914 207.13784039 1137.8125 204.9375 C1138.23732564 199.94579869 1140.33697786 197.71363312 1143.93359375 194.40234375 C1145.625 193.1875 1145.625 193.1875 1147.625 193.1875 C1147.68107422 191.95386719 1147.68107422 191.95386719 1147.73828125 190.6953125 C1148.3261038 180.71385513 1149.12380291 171.50797502 1156.2578125 163.9453125 C1161.0915542 160.35590035 1166.89292873 158.81426322 1172.625 157.1875 C1173.30433594 156.98511719 1173.98367188 156.78273438 1174.68359375 156.57421875 C1181.59674367 155.19715267 1188.64960199 155.2905013 1194.625 159.1875 C1195.40617187 159.61289062 1196.18734375 160.03828125 1196.9921875 160.4765625 C1205.92649589 165.43417576 1210.42436473 170.97841497 1214.625 180.1875 C1218.97969786 180.08128786 1221.10893113 179.03375627 1224.0625 176 C1224.64257812 175.3709375 1225.22265625 174.741875 1225.8203125 174.09375 C1228.08370051 171.70298518 1230.56987849 169.68893516 1233.14453125 167.64453125 C1237.53092077 163.32758325 1236.937877 158.18691599 1237.0859375 152.37890625 C1237.73193592 148.55440838 1238.83070123 146.84779154 1241.625 144.1875 C1247.62988487 144.08905926 1251.84188075 145.57575689 1256.625 149.1875 C1257.71182851 152.25619227 1258.03811325 154.02176089 1256.9453125 157.10546875 C1255.18654126 159.8789157 1253.02788719 161.48843036 1250.4375 163.5 C1247.21456605 166.06085837 1244.1317074 168.56257418 1241.3125 171.5625 C1237.00673211 176.02352394 1232.04741651 179.677567 1227.14453125 183.44921875 C1223.21966394 186.4723555 1219.45402402 189.67701501 1215.7109375 192.921875 C1213.625 194.1875 1213.625 194.1875 1211.5390625 194.015625 C1209.625 193.1875 1209.625 193.1875 1206.625 191.1875 C1206.625 190.5275 1206.625 189.8675 1206.625 189.1875 C1205.8515625 188.8471875 1205.8515625 188.8471875 1205.0625 188.5 C1201.72952995 186.70532382 1198.47796329 184.68784985 1195.625 182.1875 C1195.625 181.5275 1195.625 180.8675 1195.625 180.1875 C1195.00625 179.878125 1194.3875 179.56875 1193.75 179.25 C1192.375 178.5625 1191 177.875 1189.625 177.1875 C1189.625 176.5275 1189.625 175.8675 1189.625 175.1875 C1188.8515625 174.8471875 1188.8515625 174.8471875 1188.0625 174.5 C1184.70096873 172.6899447 1181.69588856 170.44753596 1178.625 168.1875 C1171.5844352 171.27847967 1166.67512318 178.03904641 1161.76171875 183.765625 C1158.25658473 187.73853742 1154.61422622 191.58540724 1150.97973633 195.43994141 C1150.15832153 196.31658447 1150.15832153 196.31658447 1149.3203125 197.2109375 C1148.82547363 197.73606934 1148.33063477 198.26120117 1147.82080078 198.80224609 C1146.51787448 200.19680819 1146.51787448 200.19680819 1145.625 202.1875 C1146.47964844 202.5896875 1146.47964844 202.5896875 1147.3515625 203 C1149.72329966 204.23884552 1151.81828525 205.63870591 1154 207.1875 C1155.31291016 208.11755859 1155.31291016 208.11755859 1156.65234375 209.06640625 C1158.12380859 210.11634766 1158.12380859 210.11634766 1159.625 211.1875 C1160.75125122 211.98835279 1161.87755546 212.78913101 1163.00390625 213.58984375 C1164.19025562 214.4346832 1165.37645139 215.27973838 1166.5625 216.125 C1167.15514648 216.5470874 1167.74779297 216.9691748 1168.35839844 217.40405273 C1173.06395665 220.76470632 1177.7060791 224.2061874 1182.3203125 227.69140625 C1185.2564385 229.62598278 1185.2564385 229.62598278 1188.625 230.1875 C1191.09068219 228.89384482 1191.09068219 228.89384482 1193.5625 226.875 C1195.02042969 225.76125 1195.02042969 225.76125 1196.5078125 224.625 C1197.53648438 223.820625 1198.56515625 223.01625 1199.625 222.1875 C1201.19239614 220.99329342 1202.75979732 219.79909332 1204.32763672 218.60546875 C1207.10577769 216.4820489 1209.86556683 214.33514198 1212.625 212.1875 C1213.18058594 211.75566406 1213.73617188 211.32382812 1214.30859375 210.87890625 C1220.46442529 206.08787801 1226.5706868 201.24619689 1232.59521484 196.29077148 C1238.41258138 191.51666854 1244.27092963 186.80096123 1250.3125 182.3125 C1250.87646484 181.87736084 1251.44042969 181.44222168 1252.02148438 180.99389648 C1254.73025265 179.02578145 1256.12257905 178.14546208 1259.51953125 178.4296875 C1260.21433594 178.67976562 1260.90914062 178.92984375 1261.625 179.1875 C1261.955 180.1775 1262.285 181.1675 1262.625 182.1875 C1254.56449267 190.43783812 1245.39990567 197.44193969 1236.2421875 204.421875 C1232.0128317 207.64672911 1227.8200086 210.91817121 1223.625 214.1875 C1216.31291012 219.88207635 1208.97968638 225.54804083 1201.625 231.1875 C1204.57897831 234.80612343 1207.44977462 238.13783134 1211.046875 241.12109375 C1214.80569209 244.36376572 1218.27706989 247.81916405 1221.734375 251.375 C1222.27288086 251.92614975 1222.81138672 252.4772995 1223.36621094 253.04515076 C1225.61211578 255.34513458 1227.85603551 257.64655933 1230.08154297 259.96630859 C1231.72539501 261.67642591 1233.38444963 263.3704595 1235.046875 265.0625 C1235.79852936 265.85756958 1235.79852936 265.85756958 1236.56536865 266.66870117 C1238.12821571 268.30162756 1238.12821571 268.30162756 1240.625 270.1875 C1244.82276118 270.09978279 1247.12876174 267.15411683 1250.0625 264.375 C1255.46230885 259.29061809 1255.46230885 259.29061809 1258.29394531 257.49584961 C1260.97107783 255.32765701 1260.97107783 255.32765701 1261.0090332 251.77099609 C1260.92451433 250.41572483 1260.81164175 249.06202801 1260.67578125 247.7109375 C1260.62431442 246.9856485 1260.5728476 246.2603595 1260.51982117 245.51309204 C1260.3502473 243.19357546 1260.14503588 240.87889926 1259.9375 238.5625 C1259.75607032 236.27276564 1259.58201568 233.98254436 1259.40808105 231.69223022 C1259.29556841 230.21373236 1259.18092989 228.73539462 1259.06408691 227.25723267 C1257.93777134 212.74938333 1257.93777134 212.74938333 1260 208.0625 C1269.91348064 197.20487835 1269.91348064 197.20487835 1276.875 196 C1280.90776794 196.2016384 1283.22399431 197.06187144 1286.625 199.1875 C1286.42763314 203.92430463 1285.70068523 206.42266778 1282.6875 210.125 C1274.62166062 220.19765109 1276.45986773 235.6928222 1276.49462891 247.93945312 C1276.49999083 250.18366244 1276.49465126 252.42767171 1276.48828125 254.671875 C1276.48634905 261.85356112 1276.62017169 268.93098147 1277.53881836 276.06762695 C1277.625 278.1875 1277.625 278.1875 1276.3125 281.375 C1275.755625 281.973125 1275.19875 282.57125 1274.625 283.1875 C1273.965 283.1875 1273.305 283.1875 1272.625 283.1875 C1272.21534224 294.33929451 1272.30015132 305.79018291 1278.50390625 315.41796875 C1279.625 317.1875 1279.625 317.1875 1280.625 320.1875 C1282.85020519 321.26239559 1282.85020519 321.26239559 1285.625 322.1875 C1287.90114731 323.21750335 1290.1717863 324.25974414 1292.4375 325.3125 C1293.59894531 325.85132813 1294.76039062 326.39015625 1295.95703125 326.9453125 C1296.83746094 327.35523438 1297.71789063 327.76515625 1298.625 328.1875 C1298.91375 327.40375 1299.2025 326.62 1299.5 325.8125 C1300.625 323.1875 1300.625 323.1875 1302.625 321.1875 C1307.575 323.1675 1307.575 323.1675 1312.625 325.1875 C1312.625 325.8475 1312.625 326.5075 1312.625 327.1875 C1313.945 327.1875 1315.265 327.1875 1316.625 327.1875 C1316.625 327.8475 1316.625 328.5075 1316.625 329.1875 C1317.945 329.1875 1319.265 329.1875 1320.625 329.1875 C1320.625 329.8475 1320.625 330.5075 1320.625 331.1875 C1322.275 329.5375 1323.925 327.8875 1325.625 326.1875 C1328.63332704 327.28143711 1331.37111341 328.57252931 1334.125 330.1875 C1336.89211383 331.80611282 1339.63455576 333.02049737 1342.625 334.1875 C1345.31082942 335.48514792 1347.96585546 336.83539261 1350.625 338.1875 C1350.295 341.1575 1349.965 344.1275 1349.625 347.1875 C1352.265 348.1775 1354.905 349.1675 1357.625 350.1875 C1358.285 348.8675 1358.945 347.5475 1359.625 346.1875 C1362.7081351 347.38649698 1365.68779492 348.66450477 1368.625 350.1875 C1368.19055507 353.12000326 1367.52412059 354.30672112 1365.5625 356.625 C1363.5157734 359.0088765 1363.5157734 359.0088765 1362.9375 361.625 C1364.24538963 366.49986134 1368.59424828 368.90774326 1372.6953125 371.4921875 C1376.68881284 373.78516232 1376.68881284 373.78516232 1381.125 373.6875 C1385.26624517 372.85925097 1388.0264126 375.17473078 1391.625 377.1875 C1390.965 380.1575 1390.305 383.1275 1389.625 386.1875 C1390.30304688 386.43757813 1390.98109375 386.68765625 1391.6796875 386.9453125 C1395.17594431 388.41986113 1398.45175377 390.19820245 1401.75 392.0625 C1402.43578125 392.44889648 1403.1215625 392.83529297 1403.828125 393.23339844 C1411.11350144 397.38854369 1418.18576989 401.87285636 1425.25 406.390625 C1425.97985107 406.85686279 1426.70970215 407.32310059 1427.46166992 407.8034668 C1428.90398538 408.72621663 1430.34425909 409.65216563 1431.7824707 410.58129883 C1439.06071602 415.2293675 1445.94547112 418.03681105 1454.625 418.6875 C1467.680555 420.41681576 1479.41482596 430.89823932 1489.19140625 439.171875 C1502.36067068 450.07932355 1518.89834543 456.70590162 1535.91381836 458.00097656 C1541.30662736 458.51739852 1543.7943639 459.81617562 1547.6706543 463.54296875 C1551.6149551 466.86199563 1556.46891101 468.74369166 1561.125 470.875 C1562.13175781 471.34744141 1563.13851563 471.81988281 1564.17578125 472.30664062 C1569.28698309 474.69477097 1574.42353715 477.00317782 1579.625 479.1875 C1579.625 479.8475 1579.625 480.5075 1579.625 481.1875 C1580.45 481.43628906 1581.275 481.68507813 1582.125 481.94140625 C1586.14499683 483.3726328 1589.83300047 485.18266941 1593.625 487.125 C1594.31078125 487.47240234 1594.9965625 487.81980469 1595.703125 488.17773438 C1598.69265151 489.69246584 1601.67735204 491.21465551 1604.65234375 492.7578125 C1608.09529935 494.41368865 1611.60852682 495.79884122 1615.1875 497.125 C1615.88351318 497.38442383 1616.57952637 497.64384766 1617.29663086 497.91113281 C1623.66446764 500.25522873 1630.10778345 502.29845172 1636.625 504.1875 C1638.2184021 504.6657019 1638.2184021 504.6657019 1639.84399414 505.15356445 C1643.58245372 506.1758655 1647.26887553 506.92349171 1651.0859375 507.58984375 C1651.7845842 507.71207809 1652.4832309 507.83431244 1653.20304871 507.96025085 C1655.46781138 508.35387712 1657.73369718 508.74034558 1660 509.125 C1660.78220917 509.25855896 1661.56441833 509.39211792 1662.37033081 509.52972412 C1674.93928909 511.66712448 1687.50534763 513.43098684 1700.18212891 514.8046875 C1704.21160649 515.25272472 1708.23657264 515.73358618 1712.26171875 516.21875 C1713.78506817 516.40158576 1715.30842432 516.58436552 1716.83178711 516.76708984 C1719.07009473 517.03560201 1721.30835725 517.30444326 1723.54641724 517.57501221 C1736.46592541 519.13250269 1749.28509426 520.36659303 1762.3125 520.3125 C1763.28638672 520.31636719 1764.26027344 520.32023438 1765.26367188 520.32421875 C1766.19115234 520.32292969 1767.11863281 520.32164062 1768.07421875 520.3203125 C1768.90268311 520.31918457 1769.73114746 520.31805664 1770.5847168 520.31689453 C1772.69217228 520.31629144 1772.69217228 520.31629144 1774.625 519.1875 C1775.35575648 516.8734378 1776.02638258 514.53921131 1776.625 512.1875 C1783.1310182 511.97301588 1789.52831599 512.13832959 1796 512.875 C1797.12148437 513.00261719 1798.24296875 513.13023437 1799.3984375 513.26171875 C1802.625 514.1875 1802.625 514.1875 1805.17578125 516.546875 C1809.86227582 520.81019761 1816.43641989 521.42920298 1822.4375 522.75 C1834.95001252 525.56907627 1844.79452474 529.37034806 1855.625 536.1875 C1856.27339844 536.58453125 1856.92179687 536.9815625 1857.58984375 537.390625 C1858.97415701 538.26355665 1860.30747678 539.21669342 1861.625 540.1875 C1861.625 540.8475 1861.625 541.5075 1861.625 542.1875 C1862.346875 542.435 1863.06875 542.6825 1863.8125 542.9375 C1866.90106582 544.31019592 1869.13511418 545.91103296 1871.625 548.1875 C1871.625 548.8475 1871.625 549.5075 1871.625 550.1875 C1873.275 550.8475 1874.925 551.5075 1876.625 552.1875 C1876.625 552.8475 1876.625 553.5075 1876.625 554.1875 C1881.40649299 556.61058301 1886.05477919 556.62393097 1891.30078125 556.8203125 C1892.68851997 556.88265579 1892.68851997 556.88265579 1894.10429382 556.94625854 C1897.04840496 557.07662153 1899.99286113 557.19472406 1902.9375 557.3125 C1904.93818616 557.39893042 1906.93883793 557.48616091 1908.93945312 557.57421875 C1913.83428533 557.78791894 1918.72946326 557.9906277 1923.625 558.1875 C1923.625 560.1675 1923.625 562.1475 1923.625 564.1875 C1918.345 564.1875 1913.065 564.1875 1907.625 564.1875 C1907.36844175 572.31184453 1907.49225255 578.68838435 1910.625 586.1875 C1910.955 587.1775 1911.285 588.1675 1911.625 589.1875 C1912.285 589.1875 1912.945 589.1875 1913.625 589.1875 C1915.44858373 591.15930605 1917.09502794 593.24368027 1918.7734375 595.33984375 C1920.76114823 597.323361 1921.88625955 597.80745452 1924.625 598.1875 C1924.89942155 609.16436181 1924.52074172 620.09162529 1923.87835693 631.04956055 C1923.79261614 632.51942598 1923.71014978 633.989486 1923.63092041 635.4597168 C1923.51673112 637.54811862 1923.38932965 639.63528253 1923.2578125 641.72265625 C1923.18449707 642.943479 1923.11118164 644.16430176 1923.03564453 645.42211914 C1922.90013184 646.33469482 1922.76461914 647.24727051 1922.625 648.1875 C1921.965 648.5175 1921.305 648.8475 1920.625 649.1875 C1920.09138159 651.88650343 1920.09138159 651.88650343 1919.84375 655.1640625 C1919.72386719 656.39253906 1919.60398437 657.62101562 1919.48046875 658.88671875 C1919.36316406 660.18222656 1919.24585937 661.47773437 1919.125 662.8125 C1917.70469568 678.21733911 1917.70469568 678.21733911 1915.625 684.1875 C1914.635 683.8575 1913.645 683.5275 1912.625 683.1875 C1910.16137683 678.26025365 1911.43230683 670.89101595 1911.4375 665.375 C1911.4367749 664.59886353 1911.4360498 663.82272705 1911.43530273 663.02307129 C1911.43630847 653.29312968 1911.74148922 643.7547621 1912.90893555 634.0859375 C1914.30864036 621.54539015 1913.79018912 608.78634709 1913.625 596.1875 C1910.655 595.1975 1907.685 594.2075 1904.625 593.1875 C1904.625 592.5275 1904.625 591.8675 1904.625 591.1875 C1898.44118241 589.02594935 1892.23779832 587.23818198 1885.875 585.6875 C1884.6684375 585.38779297 1884.6684375 585.38779297 1883.4375 585.08203125 C1880.83580374 584.43978862 1878.23127186 583.81091486 1875.625 583.1875 C1874.60929932 582.94451172 1873.59359863 582.70152344 1872.54711914 582.45117188 C1834.35890659 572.0739005 1834.35890659 572.0739005 1795.6484375 573.72265625 C1781.63828202 576.94120548 1768.08405199 570.15494622 1755.31689453 565.20410156 C1754.0654505 564.71934732 1752.81398547 564.23464726 1751.5625 563.75 C1750.94018494 563.50842163 1750.31786987 563.26684326 1749.67669678 563.01794434 C1738.61345073 558.74141949 1727.47580658 555.41853715 1715.92773438 552.72851562 C1713.85356296 552.24119969 1711.79269096 551.71871397 1709.73046875 551.18359375 C1704.44663487 549.85517411 1699.09524257 548.85885837 1693.75 547.8125 C1691.51027931 547.3626625 1689.27069655 546.91213778 1687.03125 546.4609375 C1683.24506808 545.70079897 1679.45734568 544.97030192 1675.65625 544.2890625 C1663.14469455 541.93592817 1651.26031282 537.27770855 1640.625 530.1875 C1638.96950469 529.80250109 1637.3027567 529.45956865 1635.625 529.1875 C1635.625 528.5275 1635.625 527.8675 1635.625 527.1875 C1634.6040625 527.249375 1634.6040625 527.249375 1633.5625 527.3125 C1630.02575832 527.16200035 1626.99176967 526.24374147 1623.625 525.1875 C1623.625 524.5275 1623.625 523.8675 1623.625 523.1875 C1622.408125 522.960625 1621.19125 522.73375 1619.9375 522.5 C1616.04940996 521.64666339 1612.54937804 520.39840576 1608.875 518.875 C1595.64549013 513.63574317 1581.38690765 511.13395865 1567.38671875 508.86328125 C1563.3992725 508.14694875 1559.54376877 507.2095984 1555.625 506.1875 C1555.625 505.5275 1555.625 504.8675 1555.625 504.1875 C1554.96757813 504.29964844 1554.31015625 504.41179687 1553.6328125 504.52734375 C1549.05767773 504.01041294 1546.16900417 501.40388514 1542.5 498.75 C1534.62656653 493.25838397 1526.58111891 489.03467147 1517.83203125 485.125 C1515.03659342 483.87552159 1512.37392405 482.523083 1509.7265625 480.984375 C1507.21584133 479.52980102 1505.44591224 478.63884596 1502.625 478.1875 C1502.625 477.5275 1502.625 476.8675 1502.625 476.1875 C1501.92375 475.91035156 1501.2225 475.63320313 1500.5 475.34765625 C1496.4939559 473.73108682 1492.53120794 472.01453071 1488.5625 470.30859375 C1482.64305681 468.04944455 1476.83360582 467.89490972 1470.5625 467.625 C1469.62962158 467.5825415 1468.69674316 467.54008301 1467.7355957 467.49633789 C1461.02674178 467.20702766 1454.34029989 467.06237019 1447.625 467.1875 C1446.965 468.5075 1446.305 469.8275 1445.625 471.1875 C1437.89582172 469.02157095 1430.21566503 466.8049707 1422.625 464.1875 C1422.625 463.5275 1422.625 462.8675 1422.625 462.1875 C1421.965 462.06375 1421.305 461.94 1420.625 461.8125 C1416.92801417 461.04229462 1413.28494058 460.11799337 1409.625 459.1875 C1409.625 458.5275 1409.625 457.8675 1409.625 457.1875 C1408.96846436 457.08332764 1408.31192871 456.97915527 1407.63549805 456.87182617 C1403.77843556 455.99506466 1400.15023775 454.63013984 1396.45703125 453.23828125 C1395.66334641 452.94318161 1394.86966156 452.64808197 1394.05192566 452.34403992 C1391.51244313 451.39957808 1388.97479956 450.45030941 1386.4375 449.5 C1376.56645597 445.80572674 1366.6927884 442.14497069 1356.69921875 438.79296875 C1355.9592012 438.5433992 1355.21918365 438.29382965 1354.45674133 438.03669739 C1350.87208836 436.84984319 1347.35081778 435.81705516 1343.625 435.1875 C1343.625 434.5275 1343.625 433.8675 1343.625 433.1875 C1342.614375 433.084375 1341.60375 432.98125 1340.5625 432.875 C1337.46905053 432.3348739 1335.65833723 431.85224752 1332.9375 430.5625 C1329.46560086 429.12133432 1328.9345632 428.90536006 1325.625 430.1875 C1323.53531285 431.66301762 1323.53531285 431.66301762 1321.5625 433.5 C1320.89089844 434.09425781 1320.21929688 434.68851563 1319.52734375 435.30078125 C1312.38557298 442.38389271 1312.38435623 450.50238711 1311.96875 460.11328125 C1311.625 463.1875 1311.625 463.1875 1309.625 466.1875 C1307.375 466.25 1307.375 466.25 1304.625 465.1875 C1300.41967372 458.47645731 1298.66116148 450.08958714 1296.5 442.5625 C1296.15324219 441.37398437 1295.80648438 440.18546875 1295.44921875 438.9609375 C1293.82213763 433.37524907 1292.21754538 427.78312536 1290.625 422.1875 C1290.34398437 421.21425781 1290.06296875 420.24101563 1289.7734375 419.23828125 C1289.51820312 418.33464844 1289.26296875 417.43101562 1289 416.5 C1288.73960938 415.58863281 1288.47921875 414.67726563 1288.2109375 413.73828125 C1287.625 411.1875 1287.625 411.1875 1287.625 407.1875 C1286.40296875 406.79820312 1285.1809375 406.40890625 1283.921875 406.0078125 C1276.65004752 403.58481908 1269.60037933 400.58986226 1262.51171875 397.68359375 C1261.44050781 397.24917969 1260.36929687 396.81476563 1259.265625 396.3671875 C1258.30172852 395.97257324 1257.33783203 395.57795898 1256.34472656 395.17138672 C1253.77143907 394.24047571 1251.31874482 393.64380739 1248.625 393.1875 C1248.625 392.5275 1248.625 391.8675 1248.625 391.1875 C1248.07972656 391.07792969 1247.53445313 390.96835937 1246.97265625 390.85546875 C1242.97941097 390.01586333 1239.19376906 389.07032261 1235.375 387.625 C1229.68848243 385.67276246 1223.62676705 384.82988176 1217.625 385.1875 C1214.97300475 386.60976549 1214.97300475 386.60976549 1212.625 388.1875 C1208.4393299 388.48647644 1204.69748091 388.1747681 1200.625 387.1875 C1200.625 387.8475 1200.625 388.5075 1200.625 389.1875 C1202.935 389.5175 1205.245 389.8475 1207.625 390.1875 C1208.625 393.1875 1208.625 393.1875 1207.625 396.1875 C1203.995 395.5275 1200.365 394.8675 1196.625 394.1875 C1196.625 393.5275 1196.625 392.8675 1196.625 392.1875 C1194.975 392.1875 1193.325 392.1875 1191.625 392.1875 C1191.955 390.5375 1192.285 388.8875 1192.625 387.1875 C1193.945 387.1875 1195.265 387.1875 1196.625 387.1875 C1196.625 386.5275 1196.625 385.8675 1196.625 385.1875 C1190.19 383.7025 1190.19 383.7025 1183.625 382.1875 C1183.625 381.5275 1183.625 380.8675 1183.625 380.1875 C1183.01011719 380.05472656 1182.39523437 379.92195313 1181.76171875 379.78515625 C1180.95347656 379.60855469 1180.14523437 379.43195313 1179.3125 379.25 C1178.11173828 378.98896484 1178.11173828 378.98896484 1176.88671875 378.72265625 C1174.625 378.1875 1174.625 378.1875 1171.625 377.1875 C1170.85353241 372.81585032 1170.61985324 369.49846276 1171.625 365.1875 C1159.8947673 361.9950949 1148.77614526 360.47173732 1136.625 360.1875 C1136.480625 361.321875 1136.33625 362.45625 1136.1875 363.625 C1135.625 367.1875 1135.625 367.1875 1134.625 368.1875 C1132.09450598 368.26063567 1129.59195163 368.27997527 1127.0625 368.25 C1125.99612305 368.24323242 1125.99612305 368.24323242 1124.90820312 368.23632812 C1123.14709987 368.22450864 1121.38603964 368.20657263 1119.625 368.1875 C1119.625 371.4875 1119.625 374.7875 1119.625 378.1875 C1118.305 378.1875 1116.985 378.1875 1115.625 378.1875 C1115.295 374.5575 1114.965 370.9275 1114.625 367.1875 C1102.01386591 363.2936893 1089.41853973 359.44146508 1076.625 356.1875 C1076.51285156 357.18007813 1076.40070313 358.17265625 1076.28515625 359.1953125 C1075.69470896 363.33781568 1074.41820261 367.11760038 1073.0625 371.0625 C1071.10569121 376.98152147 1070.06332389 381.89672756 1070.625 388.1875 C1072.24298111 388.99341454 1073.86992814 389.78132983 1075.5 390.5625 C1076.40492187 391.00335937 1077.30984375 391.44421875 1078.2421875 391.8984375 C1088.70538208 395.88556707 1099.58988081 395.55152029 1110.62255859 395.64379883 C1112.80604008 395.66552382 1114.9886861 395.70491602 1117.171875 395.74609375 C1118.45932617 395.75954834 1119.74677734 395.77300293 1121.07324219 395.78686523 C1125.99036643 396.34151198 1129.37210368 397.73883863 1132.625 401.5 C1133.625 404.1875 1133.625 404.1875 1133.0625 407.3125 C1131.51749954 410.40250093 1130.609721 411.52525608 1127.625 413.1875 C1125.2421875 412.859375 1125.2421875 412.859375 1122.5 411.9375 C1114.31033191 409.5700153 1106.09174415 409.46031731 1097.625 409.1875 C1097.625 408.5275 1097.625 407.8675 1097.625 407.1875 C1096.99078125 406.93484375 1096.3565625 406.6821875 1095.703125 406.421875 C1093.25231112 405.43906131 1090.80528042 404.44803362 1088.359375 403.453125 C1080.17084803 400.13644139 1071.98915629 396.9109535 1063.625 394.0625 C1048.48686086 388.8249584 1048.48686086 388.8249584 1043.625 385.1875 C1041.8122196 380.86069905 1043.19670856 377.73138345 1044.8125 373.5 C1045.27527344 372.27023437 1045.73804688 371.04046875 1046.21484375 369.7734375 C1047.71566823 365.95693648 1049.23081834 362.14833121 1050.828125 358.37109375 C1051.69407542 355.99821982 1052.18832332 353.67219029 1052.625 351.1875 C1049.985 350.1975 1047.345 349.2075 1044.625 348.1875 C1044.625 347.1975 1044.625 346.2075 1044.625 345.1875 C1043.6659375 344.81625 1043.6659375 344.81625 1042.6875 344.4375 C1040.625 343.1875 1040.625 343.1875 1039.875 341.0625 C1039.75125 340.134375 1039.75125 340.134375 1039.625 339.1875 C1038.305 338.8575 1036.985 338.5275 1035.625 338.1875 C1035.50125 339.13625 1035.3775 340.085 1035.25 341.0625 C1034.625 344.1875 1034.625 344.1875 1032.625 346.1875 C1029.655 344.8675 1026.685 343.5475 1023.625 342.1875 C1023.955 339.8775 1024.285 337.5675 1024.625 335.1875 C1023.635 335.06375 1022.645 334.94 1021.625 334.8125 C1017.53619976 334.23555273 1013.61638113 333.23786346 1009.625 332.1875 C1009.625 332.8475 1009.625 333.5075 1009.625 334.1875 C1003.79881086 333.04306999 998.16549733 331.50769303 992.5 329.75 C991.83162109 329.54479736 991.16324219 329.33959473 990.47460938 329.12817383 C986.05722621 327.73713334 981.85573821 326.07210157 977.625 324.1875 C977.625 322.2075 977.625 320.2275 977.625 318.1875 C974.655 317.8575 971.685 317.5275 968.625 317.1875 C967.965 318.8375 967.305 320.4875 966.625 322.1875 C961.67926321 321.50318422 957.11117593 320.20550511 952.375 318.6875 C951.65570312 318.46191406 950.93640625 318.23632812 950.1953125 318.00390625 C944.91661352 316.33330676 944.91661352 316.33330676 942.625 315.1875 C942.955 312.8775 943.285 310.5675 943.625 308.1875 C938.18559334 306.56522082 934.28637303 305.8010413 928.625 307.1875 C928.295 307.8475 927.965 308.5075 927.625 309.1875 C925.315 308.8575 923.005 308.5275 920.625 308.1875 C921.285 306.2075 921.945 304.2275 922.625 302.1875 C920.315 301.8575 918.005 301.5275 915.625 301.1875 C914.635 302.8375 913.645 304.4875 912.625 306.1875 C911.90086914 306.06197754 911.17673828 305.93645508 910.43066406 305.80712891 C905.14512152 304.90639639 899.86697139 304.06820891 894.546875 303.3984375 C882.35713171 301.79685827 872.10610128 299.66146902 861.51953125 293.31689453 C859.48355128 292.1031776 857.41977608 290.95236485 855.34375 289.80859375 C851.41563537 287.63878226 847.51657888 285.42199928 843.625 283.1875 C842.30354278 282.43201635 840.9819341 281.67679755 839.66015625 280.921875 C838.65855469 280.34953125 837.65695312 279.7771875 836.625 279.1875 C836.625 278.5275 836.625 277.8675 836.625 277.1875 C836.03460937 276.92453125 835.44421875 276.6615625 834.8359375 276.390625 C832.53094803 275.13631978 831.09421445 273.79005932 829.25 271.9375 C818.90735183 262.81939123 803.72926378 259.92994315 790.79589844 256.12158203 C772.99485631 250.87775795 755.60433349 245.11621667 738.35009766 238.28710938 C728.51887566 234.43036256 719.35986908 232.10828303 708.81152344 231.35205078 C706.49714765 231.17787824 704.19192211 230.94820619 701.8828125 230.71484375 C700.33875361 230.5783107 698.79448505 230.44412474 697.25 230.3125 C696.53005859 230.23862061 695.81011719 230.16474121 695.06835938 230.08862305 C692.80824795 229.88113572 692.80824795 229.88113572 689.625 230.1875 C687.77877464 232.06801033 687.77877464 232.06801033 686.625 234.1875 C683.9375 234.4375 683.9375 234.4375 681.625 234.1875 C679.625 228.4375 679.625 228.4375 679.625 226.1875 C677.85803157 225.91150493 676.08603785 225.66753085 674.3125 225.4375 C673.32636719 225.29828125 672.34023438 225.1590625 671.32421875 225.015625 C668.48100642 224.88700777 668.48100642 224.88700777 666.76953125 227.171875 C666.20298828 228.16960937 666.20298828 228.16960937 665.625 229.1875 C663.64440752 228.92729851 661.66557455 228.65369779 659.6875 228.375 C658.03427734 228.14876953 658.03427734 228.14876953 656.34765625 227.91796875 C652.71451585 227.20506502 649.40012302 226.19204818 645.91235352 224.97924805 C643.74335636 224.22846805 641.56505484 223.53703733 639.37109375 222.86328125 C629.52879733 219.77738661 620.48401917 215.94807188 611.37890625 211.11279297 C608.81592372 209.76066271 606.22110095 208.47461185 603.625 207.1875 C602.29166667 206.52083333 600.95833333 205.85416667 599.625 205.1875 C599.625 204.1975 599.625 203.2075 599.625 202.1875 C589.60929361 199.25059026 579.95771077 197.38018737 569.5625 196.25 C559.24800235 195.057099 549.16088718 193.50878636 539.10327148 190.84985352 C534.42816401 189.65276221 529.99099977 189.00816632 525.16796875 188.72265625 C517.15383639 188.24517937 509.33096677 187.02707432 501.41992188 185.71337891 C498.99740556 185.31207021 496.57314631 184.92297273 494.1484375 184.53515625 C492.56498614 184.27676393 490.98164859 184.01767293 489.3984375 183.7578125 C488.69496185 183.64519073 487.99148621 183.53256897 487.26669312 183.41653442 C484.17113288 182.89663612 481.17672115 182.35814967 478.17321777 181.42915344 C468.80533651 178.60160173 459.62989071 178.82633425 449.94060516 178.93144035 C446.79092377 178.96558582 443.64160233 178.98097643 440.49176025 178.99208069 C434.9180018 179.01476485 429.34449797 179.05372122 423.77087402 179.0980835 C414.89684989 179.16842112 406.02285689 179.2241783 397.14862823 179.26043892 C394.09158724 179.27677098 391.0348905 179.30635848 387.97796631 179.33714294 C369.03591127 179.46806914 350.24755062 178.05046994 331.53930664 175.06518555 C329.5281788 174.74452777 327.51536128 174.43684332 325.50195312 174.13085938 C313.79847847 172.32880673 302.02059867 170.43217972 290.6875 166.9375 C289.25285211 166.50048729 287.81793977 166.0643421 286.3828125 165.62890625 C285.62387695 165.39703613 284.86494141 165.16516602 284.08300781 164.92626953 C281.41328796 164.12386863 278.73558492 163.35405044 276.0546875 162.58984375 C265.48818753 159.57233708 254.99106068 156.40458482 244.5625 152.9375 C243.56984131 152.60838623 242.57718262 152.27927246 241.55444336 151.94018555 C237.67472162 150.63426941 233.88348909 149.29943501 230.125 147.671875 C225.41137027 145.67279096 220.57558927 144.19914408 215.6875 142.6875 C209.89525399 140.88895853 204.14855788 139.06449316 198.48608398 136.88867188 C195.39790819 135.72518757 192.2604903 134.71509766 189.125 133.6875 C184.56366351 132.18181067 180.02482443 130.64764013 175.54296875 128.91796875 C173.27087738 128.05263049 170.97923868 127.24937155 168.6875 126.4375 C152.80330599 120.65943219 137.49979434 113.64140048 122.375 106.125 C121.45545532 105.66879272 121.45545532 105.66879272 120.51733398 105.20336914 C115.81743239 102.84502455 111.20318009 100.34103629 106.59228516 97.8137207 C87.18326234 87.1634483 87.18326234 87.1634483 67.4699707 77.09423828 C61.97165201 74.38575656 56.54782701 71.54370948 51.125 68.6875 C38.63110614 62.12389787 26.09204497 55.79668974 13.25 49.9375 C12.34644775 49.52491943 11.44289551 49.11233887 10.51196289 48.68725586 C2.03303858 44.85357135 -6.57791359 41.45072912 -15.3125 38.25 C-20.82876384 36.20631811 -26.18842583 33.97873181 -31.515625 31.4765625 C-36.23794447 29.34764798 -41.06920087 27.49850704 -45.89453125 25.6171875 C-55.03813559 21.86122881 -55.03813559 21.86122881 -56.75 18.4375 C-56.23188838 13.94719932 -54.13545313 12.58787261 -50.74609375 9.80078125 C-46.00004034 6.5715884 -41.48639496 4.77218939 -35.875 3.625 C-34.7921875 3.39683594 -33.709375 3.16867187 -32.59375 2.93359375 C-21.67023526 0.93183656 -11.11011189 -0.11636989 0 0 Z " fill="#DEFAD2" transform="translate(144.375,454.8125)"/>



<!-- RW 2 -->
<path d="M0 0 C0.495 0.495 0.495 0.495 1 1 C4.82941546 1.06036517 8.64579213 1.01988773 12.47460938 0.9609375 C13.27576172 0.95320312 14.07691406 0.94546875 14.90234375 0.9375 C15.63960693 0.92589844 16.37687012 0.91429687 17.13647461 0.90234375 C19 1 19 1 21 2 C36.65753179 4.91349704 52.40258146 5.32248917 68.26391602 4.97680664 C76.16899853 4.84397673 83.63834003 5.34716601 91.45727539 6.51245117 C96.67265336 7.23019012 101.86753611 7.45649154 107.125 7.625 C108.67719238 7.68409546 108.67719238 7.68409546 110.26074219 7.74438477 C115.59785316 7.93523556 120.91068954 8.02112775 126.25 7.9375 C130.11889271 7.89505296 133.65076804 8.20709617 137.44921875 8.9296875 C144.46242479 10.14221103 151.46313896 10.75452668 158.5625 11.1875 C159.26199768 11.23146912 159.96149536 11.27543823 160.68218994 11.32073975 C180.49353843 12.50789345 200.33100083 11.77829788 220.15342712 11.19949341 C225.82662254 11.04322001 231.48137076 11.00459617 237.15597534 11.08128357 C245.82084162 11.1898001 253.77357256 10.56832996 262.25 8.5625 C264.31715854 8.10298842 266.38485704 7.64589825 268.453125 7.19140625 C269.40783691 6.97991943 270.36254883 6.76843262 271.34619141 6.55053711 C277.25164861 5.32543996 283.0903939 4.84625059 289.125 4.8125 C290.28257812 4.79832031 291.44015625 4.78414062 292.6328125 4.76953125 C296.09945903 5.00680752 298.73180564 5.87036026 302 7 C304.07669461 7.25054649 306.16188296 7.43920666 308.25 7.5625 C313.80169972 7.90084986 313.80169972 7.90084986 316 9 C318.30977934 9.18396473 320.62326794 9.32237577 322.9375 9.4375 C340.4336627 10.4336627 340.4336627 10.4336627 343 13 C344.94113838 13.21403382 346.88320548 13.42177235 348.82836914 13.59545898 C358.48813297 14.46122469 367.10872896 16.46998791 376.234375 19.8203125 C388.09698333 24.05695833 400.59408797 25.34861665 413.08105469 26.26586914 C413.93731445 26.33410889 414.79357422 26.40234863 415.67578125 26.47265625 C416.8191394 26.55398804 416.8191394 26.55398804 417.9855957 26.63696289 C420 27 420 27 423 29 C424.99832251 29.53183371 424.99832251 29.53183371 427.25 29.875 C430.25694256 30.40966262 433.06893158 31.02273565 435.97265625 31.98046875 C444.75035778 34.82423872 452.84292168 35.26334524 462.0625 35.375 C475.19211383 35.56672868 486.60963842 37.79890925 499 42 C499.83595703 42.27360352 500.67191406 42.54720703 501.53320312 42.82910156 C507.70652488 44.85326244 507.70652488 44.85326244 510 46 C511.85593261 46.10668812 513.71533309 46.15547594 515.57421875 46.17578125 C528.38945035 46.41311719 539.79477001 46.87893999 552 51 C554.638785 51.77538069 557.28853331 52.51029485 559.9375 53.25 C561.95872639 53.83196995 563.97971483 54.41477101 566 55 C566 55.66 566 56.32 566 57 C567.05574219 57.11214844 567.05574219 57.11214844 568.1328125 57.2265625 C575.58736264 58.21920495 581.77700864 60.39472367 588.6171875 63.4765625 C596.97363721 67.23985971 604.97207351 69.54646383 614 71 C615.64897889 71.29545257 617.29520844 71.60689139 618.9375 71.9375 C619.62714844 72.07027344 620.31679687 72.20304687 621.02734375 72.33984375 C623 73 623 73 624.80859375 74.4765625 C628.67004638 77.16099481 633.31796657 77.30411298 637.8828125 78.05859375 C641.955736 78.85768635 645.60264035 80.38386658 649.42431641 81.97241211 C663.21377055 87.47381614 677.74101186 89.75562381 692.41015625 91.34375 C697.27526722 91.87835945 702.02256318 92.69517408 706.8125 93.6875 C712.01856422 94.720152 716.76917447 95.19993119 722.0625 95.0546875 C725.88477755 94.98352808 729.68134624 95.08534402 733.5 95.25 C734.19544922 95.26434082 734.89089844 95.27868164 735.60742188 95.29345703 C738.78793947 95.44904282 740.57980196 95.61083455 742.95703125 97.8125 C744.43597616 100.91440693 744.1951786 103.61690428 744 107 C740.78548731 108.60725635 737.56387464 108.05748185 734 108 C734 108.66 734 109.32 734 110 C725.53927491 111.17277377 717.24034417 112.16596317 708.6875 112 C697.54844355 111.82904077 697.54844355 111.82904077 687 115 C685.12728935 115.15557904 683.25151197 115.27523607 681.375 115.375 C676.86631008 115.71436376 673.13722749 116.34682879 669.01171875 118.18359375 C661.34956474 121.29308926 654.15439752 121.38875436 645.9375 121.5625 C643.44652476 121.62269323 640.9556308 121.68637295 638.46484375 121.75390625 C637.367771 121.77783447 636.27069824 121.8017627 635.14038086 121.82641602 C632.05029745 121.92976285 632.05029745 121.92976285 629.25268555 122.51147461 C624.65670134 123.2017519 620.13229422 123.10249799 615.4921875 123.0625 C614.48914581 123.05871338 613.48610413 123.05492676 612.45266724 123.05102539 C609.26006704 123.0388476 606.06755881 123.02021521 602.875 123 C598.66406493 122.9734246 594.45317479 122.95342744 590.2421875 122.9375 C589.27546112 122.92920166 588.30873474 122.92090332 587.31271362 122.91235352 C586.41142731 122.90905029 585.51014099 122.90574707 584.58154297 122.90234375 C583.79133759 122.89710693 583.0011322 122.89187012 582.1869812 122.88647461 C579.99148427 123.00044205 578.12247052 123.45284932 576 124 C573.0671218 124.13993565 570.15310931 124.2326636 567.21875 124.28125 C566.36825073 124.29965942 565.51775146 124.31806885 564.64147949 124.33703613 C561.00932061 124.41551436 557.37698051 124.48337109 553.74462891 124.55224609 C551.09007977 124.6040909 548.43568265 124.66129366 545.78125 124.71875 C544.96136597 124.73232544 544.14148193 124.74590088 543.29675293 124.7598877 C539.70291348 124.83815814 536.46579966 125.08560446 533 126 C528.68800233 126.2755788 524.57345934 126.0971965 520.3125 125.375 C515.27933909 124.64162526 510.46614439 125.72429982 505.48828125 126.515625 C499.90859811 127.29040743 494.39060972 127.79686991 489 126 C487.39914704 125.95226085 485.79623068 125.96231304 484.1953125 126.0078125 C473.01468764 126.22425984 462.40700641 125.88272106 451.36669922 124.06689453 C446.25534291 123.2501264 441.44641089 122.87062877 436.25 123 C428.96565837 123.17325735 421.91672839 122.44536515 414.6875 121.5625 C413.02992676 121.36043945 413.02992676 121.36043945 411.33886719 121.15429688 C403.44150464 120.14716821 403.44150464 120.14716821 400 119 C398.53889487 118.94169503 397.07515266 118.93860242 395.61328125 118.97265625 C394.75669922 118.98490234 393.90011719 118.99714844 393.01757812 119.00976562 C391.23363527 119.04454285 389.44976851 119.08351117 387.66601562 119.12695312 C383.63229302 119.17816544 379.99452864 119.14038335 376.1015625 118.0234375 C369.89889128 116.2549234 363.39229354 116.6069537 356.99023438 116.52148438 C351.61890244 116.38461389 346.54940859 115.97453879 341.27949524 114.88111877 C330.35828506 112.62933873 319.70809926 112.71980869 308.59423828 113.03613281 C305.34545001 113.12581573 302.09723442 113.18171867 298.84765625 113.234375 C296.76037054 113.2818683 294.67312733 113.3312772 292.5859375 113.3828125 C291.14521378 113.40651413 291.14521378 113.40651413 289.67538452 113.43069458 C284.06199706 113.61341074 280.00666623 114.42216549 275 117 C275.66 117.33 276.32 117.66 277 118 C280.77685617 129.33056851 277.6627169 143.45707277 276.1875 155.0625 C276.10472809 155.73390015 276.02195618 156.40530029 275.93667603 157.0970459 C274.98154453 164.73949745 273.75402826 171.79533582 271 179 C266.71 179 262.42 179 258 179 C257.938125 180.051875 257.87625 181.10375 257.8125 182.1875 C257.03558971 188.35838745 254.97064833 194.54713879 252 200 C249.90942383 200.66625977 249.90942383 200.66625977 248 201 C248.26098426 196.62139066 248.52762981 192.24317433 248.79956055 187.86523438 C248.89129382 186.375421 248.98147093 184.88551096 249.07006836 183.39550781 C249.1975803 181.25558678 249.33065852 179.11607414 249.46484375 176.9765625 C249.543396 175.68830566 249.62194824 174.40004883 249.70288086 173.07275391 C250 170 250 170 251 168 C252.46843352 167.46316686 253.9499175 166.96170169 255.4375 166.48046875 C258.92507413 165.00032339 258.92507413 165.00032339 261.00390625 161.98291016 C261.54194565 159.4129247 261.81513776 156.93173312 262 154.3125 C262.14659058 152.92575073 262.14659058 152.92575073 262.29614258 151.51098633 C262.58086081 148.67571791 262.80036629 145.84242739 263 143 C263.09933838 141.69047363 263.09933838 141.69047363 263.20068359 140.35449219 C263.5542868 135.56739163 263.79132652 130.79948997 264 126 C258.39 125.34 252.78 124.68 247 124 C247 125.98 247 127.96 247 130 C249.31 130 251.62 130 254 130 C254 131.65 254 133.3 254 135 C251.11788698 135.96070434 249.30149956 136.10581883 246.3125 136.0625 C245.50425781 136.05347656 244.69601562 136.04445313 243.86328125 136.03515625 C242.94095703 136.01775391 242.94095703 136.01775391 242 136 C242 135.34 242 134.68 242 134 C240.02 134 238.04 134 236 134 C236 132.68 236 131.36 236 130 C237.98 130 239.96 130 242 130 C242.33 127.69 242.66 125.38 243 123 C236.73 123.33 230.46 123.66 224 124 C222.68 136.87 221.36 149.74 220 163 C225.94 163.99 225.94 163.99 232 165 C233 166 233 166 233.1484375 169.78125 C233.08000433 175.73729556 232.36832478 181.59628588 231.625 187.5 C231.49867188 188.59570312 231.37234375 189.69140625 231.2421875 190.8203125 C231.11328125 191.85929687 230.984375 192.89828125 230.8515625 193.96875 C230.73635254 194.91169922 230.62114258 195.85464844 230.50244141 196.82617188 C230.33663574 197.54353516 230.17083008 198.26089844 230 199 C229.34 199.33 228.68 199.66 228 200 C225 199 225 199 223.8125 197 C221.87617216 189.85048183 223.15144638 182.25816399 224 175 C223.26394531 175.02320313 222.52789063 175.04640625 221.76953125 175.0703125 C220.79371094 175.08835937 219.81789063 175.10640625 218.8125 175.125 C217.84957031 175.14820313 216.88664062 175.17140625 215.89453125 175.1953125 C212.87187222 174.9913544 210.73230015 174.26874632 208 173 C208.31399212 160.6444102 209.34358472 148.37080039 210.61560059 136.08163452 C210.78816287 134.40581116 210.95655757 132.72955327 211.12072754 131.05288696 C211.35687197 128.66004551 211.60969109 126.2695332 211.8671875 123.87890625 C211.93604156 123.15874329 212.00489563 122.43858032 212.07583618 121.69659424 C212.5553387 117.46480022 213.35977723 114.38061747 216 111 C219.54674003 109.81775332 221.97522995 110.10670366 225.6875 110.4375 C227.45673828 110.59025391 227.45673828 110.59025391 229.26171875 110.74609375 C230.61716797 110.87177734 230.61716797 110.87177734 232 111 C232 110.01 232 109.02 232 108 C230.4221875 107.62875 230.4221875 107.62875 228.8125 107.25 C225.13789955 106.21376267 222.97689733 104.39603931 220 102 C215.13705205 99.6459615 210.34664085 98.55694176 205 98 C205 97.34 205 96.68 205 96 C204.17757812 95.96261719 203.35515625 95.92523437 202.5078125 95.88671875 C196.32113569 95.52237635 190.72119886 94.89007874 184.84204102 92.92407227 C173.33948855 89.18408764 162.45626357 87.2460267 150.4375 86.375 C148.31694951 86.21413567 146.19694746 86.0490897 144.07740784 85.87539673 C142.1792007 85.72076254 140.27992479 85.57941163 138.38061523 85.43896484 C135.02425262 85.00314914 132.17928822 84.13017511 129 83 C125.96438756 82.65619833 122.95256895 82.50077575 119.90234375 82.34375 C117 82 117 82 114.63500977 81.02734375 C111.99425618 79.99776058 109.74338777 79.55520261 106.9375 79.21875 C105.98190186 79.10007568 105.02630371 78.98140137 104.04174805 78.85913086 C103.03797119 78.74061768 102.03419434 78.62210449 101 78.5 C98.92305048 78.24190216 96.84622622 77.98279426 94.76953125 77.72265625 C93.77260254 77.59906738 92.77567383 77.47547852 91.74853516 77.34814453 C84.86397888 76.47610889 78.02851449 75.42531377 71.234375 74.0078125 C66.35697976 73.026167 61.51430322 72.39409102 56.5625 71.9375 C55.68287598 71.85226074 54.80325195 71.76702148 53.89697266 71.67919922 C48.60318826 71.2039399 43.33318897 70.92353083 38.01953125 70.79296875 C36.83351318 70.76275635 35.64749512 70.73254395 34.42553711 70.70141602 C32.11806879 70.6517538 29.81016028 70.61875664 27.50219727 70.60522461 C18.44278464 70.42136324 11.37812041 67.94325593 3.1875 64.3125 C-1.75513028 62.2772993 -6.53619674 61.88440253 -11.84375 61.7890625 C-13.46603516 61.74652344 -13.46603516 61.74652344 -15.12109375 61.703125 C-17.37353091 61.65104553 -19.62616213 61.6067731 -21.87890625 61.5703125 C-32.28817058 61.27255047 -32.28817058 61.27255047 -37 58 C-38.125 55.9375 -38.125 55.9375 -39 54 C-39.639375 53.731875 -40.27875 53.46375 -40.9375 53.1875 C-43 52 -43 52 -44.0625 48.8125 C-47.2739739 40.51762355 -59.52402483 36.63605298 -66.87109375 32.75 C-70.61430744 30.65641731 -74.04833106 28.28415332 -77.51171875 25.76171875 C-81.11068854 23.21362554 -84.87704098 20.95182709 -88.65234375 18.67578125 C-91.00840932 16.99399734 -92.41463926 15.40158607 -94 13 C-93.67 12.34 -93.34 11.68 -93 11 C-86.70921048 11.13675629 -83.26343364 13.61644785 -78.33203125 17.40625 C-76.1278236 18.91264317 -74.60405571 19.56898388 -72 20 C-72 20.66 -72 21.32 -72 22 C-70.68 22 -69.36 22 -68 22 C-68 22.66 -68 23.32 -68 24 C-59.75942577 23.27141264 -52.69680879 22.47298068 -47 16 C-45.64697832 13.6737522 -44.85860621 11.57581864 -44 9 C-42.42597761 7.42597761 -40.80900081 7.83599785 -38.625 7.7890625 C-37.72136719 7.76070312 -36.81773437 7.73234375 -35.88671875 7.703125 C-33.99366519 7.65189216 -32.10041504 7.60738575 -30.20703125 7.5703125 C-22.47529497 7.30858941 -15.93849729 5.89245896 -9.3125 1.8125 C-5.80077656 -0.10900905 -3.93010555 -0.46786971 0 0 Z " fill="#D9F5CD" transform="translate(2425,1004)"/>

<!-- RW 3 -->
<path d="M0 0 C4.40593065 0.8910871 7.59154035 2.34718353 11.1875 5.0625 C12.27432851 8.13119227 12.60061325 9.89676089 11.5078125 12.98046875 C9.74904126 15.7539157 7.59038719 17.36343036 5 19.375 C1.77706605 21.93585837 -1.3057926 24.43757418 -4.125 27.4375 C-8.43076789 31.89852394 -13.39008349 35.552567 -18.29296875 39.32421875 C-22.21783606 42.3473555 -25.98347598 45.55201501 -29.7265625 48.796875 C-31.8125 50.0625 -31.8125 50.0625 -33.8984375 49.890625 C-35.8125 49.0625 -35.8125 49.0625 -38.8125 47.0625 C-38.8125 46.4025 -38.8125 45.7425 -38.8125 45.0625 C-39.328125 44.835625 -39.84375 44.60875 -40.375 44.375 C-43.70797005 42.58032382 -46.95953671 40.56284985 -49.8125 38.0625 C-49.8125 37.4025 -49.8125 36.7425 -49.8125 36.0625 C-50.43125 35.753125 -51.05 35.44375 -51.6875 35.125 C-53.0625 34.4375 -54.4375 33.75 -55.8125 33.0625 C-55.8125 32.4025 -55.8125 31.7425 -55.8125 31.0625 C-56.328125 30.835625 -56.84375 30.60875 -57.375 30.375 C-60.73653127 28.5649447 -63.74161144 26.32253596 -66.8125 24.0625 C-73.8530648 27.15347967 -78.76237682 33.91404641 -83.67578125 39.640625 C-87.18091527 43.61353742 -90.82327378 47.46040724 -94.45776367 51.31494141 C-95.27917847 52.19158447 -95.27917847 52.19158447 -96.1171875 53.0859375 C-96.61202637 53.61106934 -97.10686523 54.13620117 -97.61669922 54.67724609 C-98.91962552 56.07180819 -98.91962552 56.07180819 -99.8125 58.0625 C-99.24273438 58.330625 -98.67296875 58.59875 -98.0859375 58.875 C-95.71420034 60.11384552 -93.61921475 61.51370591 -91.4375 63.0625 C-90.56222656 63.68253906 -89.68695312 64.30257812 -88.78515625 64.94140625 C-87.80417969 65.64136719 -86.82320312 66.34132813 -85.8125 67.0625 C-84.68624878 67.86335279 -83.55994454 68.66413101 -82.43359375 69.46484375 C-81.24724438 70.3096832 -80.06104861 71.15473838 -78.875 72 C-77.98603027 72.6331311 -77.98603027 72.6331311 -77.07910156 73.27905273 C-72.37354335 76.63970632 -67.7314209 80.0811874 -63.1171875 83.56640625 C-60.1810615 85.50098278 -60.1810615 85.50098278 -56.8125 86.0625 C-54.34681781 84.76884482 -54.34681781 84.76884482 -51.875 82.75 C-50.41707031 81.63625 -50.41707031 81.63625 -48.9296875 80.5 C-47.38667969 79.2934375 -47.38667969 79.2934375 -45.8125 78.0625 C-44.24510386 76.86829342 -42.67770268 75.67409332 -41.10986328 74.48046875 C-38.33172231 72.3570489 -35.57193317 70.21014198 -32.8125 68.0625 C-32.25691406 67.63066406 -31.70132813 67.19882812 -31.12890625 66.75390625 C-24.97307471 61.96287801 -18.8668132 57.12119689 -12.84228516 52.16577148 C-7.02491862 47.39166854 -1.16657037 42.67596123 4.875 38.1875 C5.43896484 37.75236084 6.00292969 37.31722168 6.58398438 36.86889648 C9.29275265 34.90078145 10.68507905 34.02046208 14.08203125 34.3046875 C15.12423828 34.67980469 15.12423828 34.67980469 16.1875 35.0625 C16.5175 36.0525 16.8475 37.0425 17.1875 38.0625 C9.12699267 46.31283812 -0.03759433 53.31693969 -9.1953125 60.296875 C-13.4246683 63.52172911 -17.6174914 66.79317121 -21.8125 70.0625 C-29.12458988 75.75707635 -36.45781362 81.42304083 -43.8125 87.0625 C-40.85852169 90.68112343 -37.98772538 94.01283134 -34.390625 96.99609375 C-30.63180791 100.23876572 -27.16043011 103.69416405 -23.703125 107.25 C-23.16461914 107.80114975 -22.62611328 108.3522995 -22.07128906 108.92015076 C-19.82538422 111.22013458 -17.58146449 113.52155933 -15.35595703 115.84130859 C-13.71210499 117.55142591 -12.05305037 119.2454595 -10.390625 120.9375 C-9.88952209 121.46754639 -9.38841919 121.99759277 -8.87213135 122.54370117 C-7.30928429 124.17662756 -7.30928429 124.17662756 -4.8125 126.0625 C-1.99949216 125.95945043 -1.15277013 125.36631262 0.9375 123.5 C1.35 123.025625 1.7625 122.55125 2.1875 122.0625 C2.8475 122.3925 3.5075 122.7225 4.1875 123.0625 C3.70539062 123.46082031 3.22328125 123.85914063 2.7265625 124.26953125 C2.09492187 124.79933594 1.46328125 125.32914063 0.8125 125.875 C-0.12722656 126.65810547 -0.12722656 126.65810547 -1.0859375 127.45703125 C-3.0346048 129.14475739 -3.0346048 129.14475739 -4.8125 132.0625 C-5.4725 132.0625 -6.1325 132.0625 -6.8125 132.0625 C-7.06 132.84625 -7.3075 133.63 -7.5625 134.4375 C-8.96639099 137.38567108 -9.81925737 137.9649777 -12.8125 139.0625 C-12.8125 139.7225 -12.8125 140.3825 -12.8125 141.0625 C-13.4725 141.0625 -14.1325 141.0625 -14.8125 141.0625 C-15.10125 141.660625 -15.39 142.25875 -15.6875 142.875 C-16.8125 145.0625 -16.8125 145.0625 -18.8125 148.0625 C-19.4725 148.0625 -20.1325 148.0625 -20.8125 148.0625 C-20.8125 148.7225 -20.8125 149.3825 -20.8125 150.0625 C-21.8025 150.3925 -22.7925 150.7225 -23.8125 151.0625 C-25.63671875 150.13671875 -25.63671875 150.13671875 -27.5 148.75 C-28.12261719 148.30011719 -28.74523438 147.85023438 -29.38671875 147.38671875 C-29.85722656 146.94972656 -30.32773438 146.51273438 -30.8125 146.0625 C-30.8125 145.4025 -30.8125 144.7425 -30.8125 144.0625 C-31.7096875 143.629375 -31.7096875 143.629375 -32.625 143.1875 C-34.8125 142.0625 -34.8125 142.0625 -37.8125 140.0625 C-37.8125 139.4025 -37.8125 138.7425 -37.8125 138.0625 C-38.43125 137.753125 -39.05 137.44375 -39.6875 137.125 C-41.0625 136.4375 -42.4375 135.75 -43.8125 135.0625 C-43.8125 134.4025 -43.8125 133.7425 -43.8125 133.0625 C-44.7096875 132.629375 -44.7096875 132.629375 -45.625 132.1875 C-47.8125 131.0625 -47.8125 131.0625 -50.8125 129.0625 C-50.8125 128.4025 -50.8125 127.7425 -50.8125 127.0625 C-53.10544488 126.20275199 -53.10544488 126.20275199 -55.8125 126.0625 C-59.14473231 128.53787257 -60.51558182 131.17174546 -61.8125 135.0625 C-62.4725 135.0625 -63.1325 135.0625 -63.8125 135.0625 C-64.10125 135.825625 -64.39 136.58875 -64.6875 137.375 C-65.8125 140.0625 -65.8125 140.0625 -67.8125 143.0625 C-72.80463851 142.59448701 -76.94213993 140.14534263 -80.8125 137.0625 C-80.8125 136.4025 -80.8125 135.7425 -80.8125 135.0625 C-81.59625 134.77375 -82.38 134.485 -83.1875 134.1875 C-85.8125 133.0625 -85.8125 133.0625 -87.8125 131.0625 C-89.4625 134.6925 -91.1125 138.3225 -92.8125 142.0625 C-93.4725 142.0625 -94.1325 142.0625 -94.8125 142.0625 C-94.8125 143.3825 -94.8125 144.7025 -94.8125 146.0625 C-95.4725 146.0625 -96.1325 146.0625 -96.8125 146.0625 C-97.1425 147.0525 -97.4725 148.0425 -97.8125 149.0625 C-109.35319019 143.46526526 -109.35319019 143.46526526 -113.5625 140.6875 C-118.1683586 137.67859872 -123.13134693 135.36599337 -128.09082031 133.00439453 C-128.7556543 132.68196777 -129.42048828 132.35954102 -130.10546875 132.02734375 C-130.99528442 131.60376587 -130.99528442 131.60376587 -131.90307617 131.17163086 C-133.8125 130.0625 -133.8125 130.0625 -136.11450195 128.17138672 C-139.12791004 125.81596015 -142.28965796 124.07228634 -145.6875 122.35546875 C-146.33444824 122.02581619 -146.98139648 121.69616364 -147.64794922 121.35652161 C-149.0078226 120.66685543 -150.36934584 119.98043368 -151.73242188 119.29711914 C-153.81359117 118.2494507 -155.88314523 117.18089942 -157.953125 116.11132812 C-159.28059069 115.44140031 -160.60869501 114.77273612 -161.9375 114.10546875 C-162.55222168 113.78474899 -163.16694336 113.46402924 -163.80029297 113.1335907 C-167.56403279 111.28121423 -169.80866427 110.72774378 -173.8125 112.0625 C-175.2975 112.5575 -175.2975 112.5575 -176.8125 113.0625 C-177.1425 115.0425 -177.4725 117.0225 -177.8125 119.0625 C-178.4725 119.0625 -179.1325 119.0625 -179.8125 119.0625 C-179.95945312 119.8978125 -179.95945312 119.8978125 -180.109375 120.75 C-180.88670906 124.71708415 -181.70344905 128.11998746 -183.75 131.625 C-186.62661821 136.89522216 -187.23161166 142.7973838 -188.19921875 148.6484375 C-188.8125 152.0625 -188.8125 152.0625 -189.8125 154.0625 C-188.8225 154.3925 -187.8325 154.7225 -186.8125 155.0625 C-188.14323833 162.46817087 -190.02898514 169.60859383 -192.1875 176.8125 C-192.81148231 178.92179089 -193.43518132 181.03116561 -194.05859375 183.140625 C-194.35878418 184.15189453 -194.65897461 185.16316406 -194.96826172 186.20507812 C-196.62491144 191.81220024 -198.21806547 197.43741419 -199.8125 203.0625 C-199.1525 203.3925 -198.4925 203.7225 -197.8125 204.0625 C-198.8025 204.0625 -199.7925 204.0625 -200.8125 204.0625 C-200.8125 203.0725 -200.8125 202.0825 -200.8125 201.0625 C-201.451875 200.815 -202.09125 200.5675 -202.75 200.3125 C-204.8125 199.0625 -204.8125 199.0625 -205.5625 196.9375 C-205.645 196.31875 -205.7275 195.7 -205.8125 195.0625 C-207.1325 194.7325 -208.4525 194.4025 -209.8125 194.0625 C-209.93625 195.01125 -210.06 195.96 -210.1875 196.9375 C-210.8125 200.0625 -210.8125 200.0625 -212.8125 202.0625 C-215.7825 200.7425 -218.7525 199.4225 -221.8125 198.0625 C-221.4825 195.7525 -221.1525 193.4425 -220.8125 191.0625 C-222.2975 190.876875 -222.2975 190.876875 -223.8125 190.6875 C-227.90130024 190.11055273 -231.82111887 189.11286346 -235.8125 188.0625 C-235.8125 188.7225 -235.8125 189.3825 -235.8125 190.0625 C-241.63868914 188.91806999 -247.27200267 187.38269303 -252.9375 185.625 C-253.60587891 185.41979736 -254.27425781 185.21459473 -254.96289062 185.00317383 C-259.38027379 183.61213334 -263.58176179 181.94710157 -267.8125 180.0625 C-267.8125 178.0825 -267.8125 176.1025 -267.8125 174.0625 C-270.7825 173.7325 -273.7525 173.4025 -276.8125 173.0625 C-277.4725 174.7125 -278.1325 176.3625 -278.8125 178.0625 C-283.75823679 177.37818422 -288.32632407 176.08050511 -293.0625 174.5625 C-294.14144531 174.22412109 -294.14144531 174.22412109 -295.2421875 173.87890625 C-300.52088648 172.20830676 -300.52088648 172.20830676 -302.8125 171.0625 C-302.4825 168.7525 -302.1525 166.4425 -301.8125 164.0625 C-307.25190666 162.44022082 -311.15112697 161.6760413 -316.8125 163.0625 C-317.1425 163.7225 -317.4725 164.3825 -317.8125 165.0625 C-320.1225 164.7325 -322.4325 164.4025 -324.8125 164.0625 C-324.1525 162.0825 -323.4925 160.1025 -322.8125 158.0625 C-325.1225 157.7325 -327.4325 157.4025 -329.8125 157.0625 C-331.2975 159.5375 -331.2975 159.5375 -332.8125 162.0625 C-333.89869629 161.87421631 -333.89869629 161.87421631 -335.00683594 161.68212891 C-340.29237848 160.78139639 -345.57052861 159.94320891 -350.890625 159.2734375 C-363.08036829 157.67185827 -373.33139872 155.53646902 -383.91796875 149.19189453 C-385.95394872 147.9781776 -388.01772392 146.82736485 -390.09375 145.68359375 C-394.02186463 143.51378226 -397.92092112 141.29699928 -401.8125 139.0625 C-403.13395722 138.30701635 -404.4555659 137.55179755 -405.77734375 136.796875 C-406.77894531 136.22453125 -407.78054688 135.6521875 -408.8125 135.0625 C-408.8125 134.4025 -408.8125 133.7425 -408.8125 133.0625 C-409.40289063 132.79953125 -409.99328125 132.5365625 -410.6015625 132.265625 C-412.90655197 131.01131978 -414.34328555 129.66505932 -416.1875 127.8125 C-426.53014817 118.69439123 -441.70823622 115.80494315 -454.64160156 111.99658203 C-472.44264369 106.75275795 -489.83316651 100.99121667 -507.08740234 94.16210938 C-516.91862434 90.30536256 -526.07763092 87.98328303 -536.62597656 87.22705078 C-538.94035235 87.05287824 -541.24557789 86.82320619 -543.5546875 86.58984375 C-545.09874639 86.4533107 -546.64301495 86.31912474 -548.1875 86.1875 C-548.90744141 86.11362061 -549.62738281 86.03974121 -550.36914062 85.96362305 C-552.62925205 85.75613572 -552.62925205 85.75613572 -555.8125 86.0625 C-557.65872536 87.94301033 -557.65872536 87.94301033 -558.8125 90.0625 C-561.5 90.3125 -561.5 90.3125 -563.8125 90.0625 C-565.8125 84.3125 -565.8125 84.3125 -565.8125 82.0625 C-567.57946843 81.78650493 -569.35146215 81.54253085 -571.125 81.3125 C-572.11113281 81.17328125 -573.09726562 81.0340625 -574.11328125 80.890625 C-576.95649358 80.76200777 -576.95649358 80.76200777 -578.66796875 83.046875 C-579.04566406 83.71203125 -579.42335938 84.3771875 -579.8125 85.0625 C-582.1225 84.7325 -584.4325 84.4025 -586.8125 84.0625 C-588.2880019 80.17859821 -587.30267812 77.4501512 -586.125 73.5625 C-585.57005859 71.71785156 -585.57005859 71.71785156 -585.00390625 69.8359375 C-583.33683364 64.55596327 -581.61511587 59.29775672 -579.8125 54.0625 C-572.47927351 54.2295093 -565.69146494 55.49815594 -558.625 57.3125 C-537.85662719 62.52267086 -516.44369291 64.85804629 -495.1875 67.125 C-475.47503452 69.23942017 -456.83213141 72.08796568 -437.96484375 78.38671875 C-428.13246052 81.64473263 -418.20466231 83.91732953 -407.8984375 85.01953125 C-399.7332986 85.93927203 -391.5920751 86.98642691 -383.45532227 88.12988281 C-381.98383637 88.33513823 -380.51182069 88.53663043 -379.03930664 88.734375 C-365.57890592 90.54317678 -352.31365559 93.00479316 -339.625 98 C-338.97700439 98.25233398 -338.32900879 98.50466797 -337.66137695 98.76464844 C-336.34868773 99.27618165 -335.03735702 99.79121744 -333.72753906 100.31005859 C-331.83264715 101.05458395 -329.93039354 101.7752844 -328.0234375 102.48828125 C-319.19917408 105.80471728 -319.19917408 105.80471728 -315.8125 108.0625 C-314.4925 108.0625 -313.1725 108.0625 -311.8125 108.0625 C-310.4156323 105.2687646 -310.73584562 103.00375549 -310.78515625 99.8828125 C-310.79740234 98.64402344 -310.80964844 97.40523437 -310.82226562 96.12890625 C-310.85731811 93.50905786 -310.89635689 90.88925967 -310.93945312 88.26953125 C-310.95041016 87.02816406 -310.96136719 85.78679687 -310.97265625 84.5078125 C-310.99791382 82.79875732 -310.99791382 82.79875732 -311.02368164 81.05517578 C-310.81803765 78.14097459 -310.33415822 76.51741692 -308.8125 74.0625 C-300.28070455 73.70136006 -292.36662118 74.76443696 -284 76.375 C-282.81212891 76.58833984 -281.62425781 76.80167969 -280.40039062 77.02148438 C-267.41345822 79.46154178 -267.41345822 79.46154178 -262.8125 84.0625 C-260.8608367 84.34998013 -260.8608367 84.34998013 -258.63671875 84.30078125 C-257.80849609 84.31689453 -256.98027344 84.33300781 -256.12695312 84.34960938 C-254.38744325 84.36642248 -252.64778191 84.37178893 -250.90820312 84.36523438 C-244.43627809 84.52064079 -244.43627809 84.52064079 -240.95703125 87.54296875 C-239.89548828 88.79013672 -239.89548828 88.79013672 -238.8125 90.0625 C-235.14933559 91.61895183 -230.8856541 91.44119314 -226.9375 91.6875 C-226.24269531 91.7390625 -225.54789063 91.790625 -224.83203125 91.84375 C-220.65760622 92.11103899 -216.90526488 91.92210892 -212.8125 91.0625 C-212.50505859 90.12277344 -212.50505859 90.12277344 -212.19140625 89.1640625 C-211.78728516 87.93816406 -211.78728516 87.93816406 -211.375 86.6875 C-211.10816406 85.87539063 -210.84132813 85.06328125 -210.56640625 84.2265625 C-209.8125 82.0625 -209.8125 82.0625 -208.8125 80.0625 C-208.1525 80.0625 -207.4925 80.0625 -206.8125 80.0625 C-206.66554688 78.99515625 -206.66554688 78.99515625 -206.515625 77.90625 C-204.70324656 70.57618609 -199.30554104 64.08470895 -193.8125 59.0625 C-193.1525 58.0725 -192.4925 57.0825 -191.8125 56.0625 C-191.1525 56.0625 -190.4925 56.0625 -189.8125 56.0625 C-189.40644531 55.18078125 -189.40644531 55.18078125 -188.9921875 54.28125 C-184.43806206 45.71587499 -175.66567079 38.82549749 -168.8125 32.0625 C-167.81144903 31.06355208 -166.81078914 30.06420794 -165.8125 29.0625 C-165.3278125 29.59359375 -164.843125 30.1246875 -164.34375 30.671875 C-160.37028465 34.85929618 -156.85384536 37.90426103 -151.578125 40.26171875 C-149.38643902 41.25573562 -147.58636162 42.43646018 -145.8125 44.0625 C-145.8125 44.7225 -145.8125 45.3825 -145.8125 46.0625 C-144.9771875 46.4646875 -144.9771875 46.4646875 -144.125 46.875 C-141.60024666 48.17149496 -139.17535516 49.48726323 -136.8125 51.0625 C-136.8125 51.7225 -136.8125 52.3825 -136.8125 53.0625 C-136.09964844 53.31386719 -135.38679688 53.56523438 -134.65234375 53.82421875 C-131.53733304 55.18248339 -129.10236836 56.85171823 -126.375 58.875 C-125.41464844 59.58269531 -124.45429687 60.29039062 -123.46484375 61.01953125 C-121.36722904 62.63521975 -119.39625256 64.28690352 -117.4375 66.0625 C-114.9830941 68.2464339 -114.9830941 68.2464339 -112.0625 68.5625 C-109.43897138 68.25177121 -109.43897138 68.25177121 -107.8125 65.0625 C-107.61655086 63.01284039 -107.61655086 63.01284039 -107.625 60.8125 C-107.20017436 55.82079869 -105.10052214 53.58863312 -101.50390625 50.27734375 C-99.8125 49.0625 -99.8125 49.0625 -97.8125 49.0625 C-97.77511719 48.24007812 -97.73773437 47.41765625 -97.69921875 46.5703125 C-97.1113962 36.58885513 -96.31369709 27.38297502 -89.1796875 19.8203125 C-84.3459458 16.23090035 -78.54457127 14.68926322 -72.8125 13.0625 C-71.79349609 12.75892578 -71.79349609 12.75892578 -70.75390625 12.44921875 C-63.84075633 11.07215267 -56.78789801 11.1655013 -50.8125 15.0625 C-50.03132813 15.48789062 -49.25015625 15.91328125 -48.4453125 16.3515625 C-39.51100411 21.30917576 -35.01313527 26.85341497 -30.8125 36.0625 C-26.45780214 35.95628786 -24.32856887 34.90875627 -21.375 31.875 C-20.79492188 31.2459375 -20.21484375 30.616875 -19.6171875 29.96875 C-17.35379949 27.57798518 -14.86762151 25.56393516 -12.29296875 23.51953125 C-7.90657923 19.20258325 -8.499623 14.06191599 -8.3515625 8.25390625 C-7.4351846 2.82868349 -5.61542943 0.09205622 0 0 Z " fill="#FBFBAC" transform="translate(1389.8125,598.9375)"/>

<!-- RW 4 -->
<path d="M0 0 C4.40593065 0.8910871 7.59154035 2.34718353 11.1875 5.0625 C12.27432851 8.13119227 12.60061325 9.89676089 11.5078125 12.98046875 C9.74904126 15.7539157 7.59038719 17.36343036 5 19.375 C1.77706605 21.93585837 -1.3057926 24.43757418 -4.125 27.4375 C-8.43076789 31.89852394 -13.39008349 35.552567 -18.29296875 39.32421875 C-22.21783606 42.3473555 -25.98347598 45.55201501 -29.7265625 48.796875 C-31.8125 50.0625 -31.8125 50.0625 -33.8984375 49.890625 C-35.8125 49.0625 -35.8125 49.0625 -38.8125 47.0625 C-38.8125 46.4025 -38.8125 45.7425 -38.8125 45.0625 C-39.328125 44.835625 -39.84375 44.60875 -40.375 44.375 C-43.70797005 42.58032382 -46.95953671 40.56284985 -49.8125 38.0625 C-49.8125 37.4025 -49.8125 36.7425 -49.8125 36.0625 C-50.740625 35.5984375 -50.740625 35.5984375 -51.6875 35.125 C-53.0625 34.4375 -54.4375 33.75 -55.8125 33.0625 C-55.8125 32.4025 -55.8125 31.7425 -55.8125 31.0625 C-56.328125 30.835625 -56.84375 30.60875 -57.375 30.375 C-60.73653127 28.5649447 -63.74161144 26.32253596 -66.8125 24.0625 C-73.8530648 27.15347967 -78.76237682 33.91404641 -83.67578125 39.640625 C-87.18091527 43.61353742 -90.82327378 47.46040724 -94.45776367 51.31494141 C-95.27917847 52.19158447 -95.27917847 52.19158447 -96.1171875 53.0859375 C-96.61202637 53.61106934 -97.10686523 54.13620117 -97.61669922 54.67724609 C-98.91962552 56.07180819 -98.91962552 56.07180819 -99.8125 58.0625 C-99.24273438 58.330625 -98.67296875 58.59875 -98.0859375 58.875 C-95.71420034 60.11384552 -93.61921475 61.51370591 -91.4375 63.0625 C-90.56222656 63.68253906 -89.68695312 64.30257812 -88.78515625 64.94140625 C-87.80417969 65.64136719 -86.82320312 66.34132813 -85.8125 67.0625 C-84.68624878 67.86335279 -83.55994454 68.66413101 -82.43359375 69.46484375 C-81.24724438 70.3096832 -80.06104861 71.15473838 -78.875 72 C-77.98603027 72.6331311 -77.98603027 72.6331311 -77.07910156 73.27905273 C-72.37354335 76.63970632 -67.7314209 80.0811874 -63.1171875 83.56640625 C-60.1810615 85.50098278 -60.1810615 85.50098278 -56.8125 86.0625 C-54.34681781 84.76884482 -54.34681781 84.76884482 -51.875 82.75 C-50.90304687 82.0075 -49.93109375 81.265 -48.9296875 80.5 C-47.90101563 79.695625 -46.87234375 78.89125 -45.8125 78.0625 C-44.24510386 76.86829342 -42.67770268 75.67409332 -41.10986328 74.48046875 C-38.33172231 72.3570489 -35.57193317 70.21014198 -32.8125 68.0625 C-32.25691406 67.63066406 -31.70132812 67.19882812 -31.12890625 66.75390625 C-24.97307471 61.96287801 -18.8668132 57.12119689 -12.84228516 52.16577148 C-7.02491862 47.39166854 -1.16657037 42.67596123 4.875 38.1875 C5.43896484 37.75236084 6.00292969 37.31722168 6.58398438 36.86889648 C9.29275265 34.90078145 10.68507905 34.02046208 14.08203125 34.3046875 C14.77683594 34.55476562 15.47164062 34.80484375 16.1875 35.0625 C16.5175 36.0525 16.8475 37.0425 17.1875 38.0625 C9.12699267 46.31283812 -0.03759433 53.31693969 -9.1953125 60.296875 C-13.4246683 63.52172911 -17.6174914 66.79317121 -21.8125 70.0625 C-29.12458988 75.75707635 -36.45781362 81.42304083 -43.8125 87.0625 C-40.85852169 90.68112343 -37.98772538 94.01283134 -34.390625 96.99609375 C-30.63180791 100.23876572 -27.16043011 103.69416405 -23.703125 107.25 C-23.16461914 107.80114975 -22.62611328 108.3522995 -22.07128906 108.92015076 C-19.82538422 111.22013458 -17.58146449 113.52155933 -15.35595703 115.84130859 C-13.71210499 117.55142591 -12.05305037 119.2454595 -10.390625 120.9375 C-9.88952209 121.46754639 -9.38841919 121.99759277 -8.87213135 122.54370117 C-7.30928429 124.17662756 -7.30928429 124.17662756 -4.8125 126.0625 C-1.99949216 125.95945043 -1.15277013 125.36631262 0.9375 123.5 C1.55625 122.7884375 1.55625 122.7884375 2.1875 122.0625 C2.8475 122.3925 3.5075 122.7225 4.1875 123.0625 C3.70539063 123.46082031 3.22328125 123.85914063 2.7265625 124.26953125 C2.09492187 124.79933594 1.46328125 125.32914063 0.8125 125.875 C0.18601562 126.39707031 -0.44046875 126.91914062 -1.0859375 127.45703125 C-3.0346048 129.14475739 -3.0346048 129.14475739 -4.8125 132.0625 C-5.4725 132.0625 -6.1325 132.0625 -6.8125 132.0625 C-7.18375 133.238125 -7.18375 133.238125 -7.5625 134.4375 C-8.96639099 137.38567108 -9.81925737 137.9649777 -12.8125 139.0625 C-12.8125 139.7225 -12.8125 140.3825 -12.8125 141.0625 C-13.4725 141.0625 -14.1325 141.0625 -14.8125 141.0625 C-15.10125 141.660625 -15.39 142.25875 -15.6875 142.875 C-16.8125 145.0625 -16.8125 145.0625 -18.8125 148.0625 C-19.4725 148.0625 -20.1325 148.0625 -20.8125 148.0625 C-20.8125 148.7225 -20.8125 149.3825 -20.8125 150.0625 C-21.8025 150.3925 -22.7925 150.7225 -23.8125 151.0625 C-25.63671875 150.13671875 -25.63671875 150.13671875 -27.5 148.75 C-28.12261719 148.30011719 -28.74523438 147.85023438 -29.38671875 147.38671875 C-29.85722656 146.94972656 -30.32773438 146.51273438 -30.8125 146.0625 C-30.8125 145.4025 -30.8125 144.7425 -30.8125 144.0625 C-31.410625 143.77375 -32.00875 143.485 -32.625 143.1875 C-34.8125 142.0625 -34.8125 142.0625 -37.8125 140.0625 C-37.8125 139.4025 -37.8125 138.7425 -37.8125 138.0625 C-38.43125 137.753125 -39.05 137.44375 -39.6875 137.125 C-41.0625 136.4375 -42.4375 135.75 -43.8125 135.0625 C-43.8125 134.4025 -43.8125 133.7425 -43.8125 133.0625 C-44.410625 132.77375 -45.00875 132.485 -45.625 132.1875 C-47.8125 131.0625 -47.8125 131.0625 -50.8125 129.0625 C-50.8125 128.4025 -50.8125 127.7425 -50.8125 127.0625 C-53.10544488 126.20275199 -53.10544488 126.20275199 -55.8125 126.0625 C-59.14473231 128.53787257 -60.51558182 131.17174546 -61.8125 135.0625 C-62.4725 135.0625 -63.1325 135.0625 -63.8125 135.0625 C-64.10125 135.825625 -64.39 136.58875 -64.6875 137.375 C-65.8125 140.0625 -65.8125 140.0625 -67.8125 143.0625 C-72.80463851 142.59448701 -76.94213993 140.14534263 -80.8125 137.0625 C-80.8125 136.4025 -80.8125 135.7425 -80.8125 135.0625 C-81.59625 134.77375 -82.38 134.485 -83.1875 134.1875 C-85.8125 133.0625 -85.8125 133.0625 -87.8125 131.0625 C-89.4625 134.6925 -91.1125 138.3225 -92.8125 142.0625 C-93.4725 142.0625 -94.1325 142.0625 -94.8125 142.0625 C-94.8125 143.3825 -94.8125 144.7025 -94.8125 146.0625 C-95.4725 146.0625 -96.1325 146.0625 -96.8125 146.0625 C-97.1425 147.0525 -97.4725 148.0425 -97.8125 149.0625 C-109.35319019 143.46526526 -109.35319019 143.46526526 -113.5625 140.6875 C-118.1683586 137.67859872 -123.13134693 135.36599337 -128.09082031 133.00439453 C-128.7556543 132.68196777 -129.42048828 132.35954102 -130.10546875 132.02734375 C-130.6986792 131.7449585 -131.29188965 131.46257324 -131.90307617 131.17163086 C-133.8125 130.0625 -133.8125 130.0625 -136.11450195 128.17138672 C-139.12791004 125.81596015 -142.28965796 124.07228634 -145.6875 122.35546875 C-146.33444824 122.02581619 -146.98139648 121.69616364 -147.64794922 121.35652161 C-149.0078226 120.66685543 -150.36934584 119.98043368 -151.73242188 119.29711914 C-153.81359117 118.2494507 -155.88314523 117.18089942 -157.953125 116.11132812 C-159.28059069 115.44140031 -160.60869501 114.77273612 -161.9375 114.10546875 C-162.55222168 113.78474899 -163.16694336 113.46402924 -163.80029297 113.1335907 C-167.56403279 111.28121423 -169.80866427 110.72774378 -173.8125 112.0625 C-174.8025 112.3925 -175.7925 112.7225 -176.8125 113.0625 C-176.8125 111.4125 -176.8125 109.7625 -176.8125 108.0625 C-180.76481183 106.11254227 -184.72534998 104.17987869 -188.6875 102.25 C-189.79609375 101.70279297 -190.9046875 101.15558594 -192.046875 100.59179688 C-197.96076268 97.72182197 -203.55462998 95.31234471 -209.98876953 93.8918457 C-211.8125 93.0625 -211.8125 93.0625 -212.6262207 91.12475586 C-212.8751995 88.36836809 -212.07557544 86.78641304 -210.875 84.3125 C-210.49472656 83.51328125 -210.11445312 82.7140625 -209.72265625 81.890625 C-209.42230469 81.28734375 -209.12195312 80.6840625 -208.8125 80.0625 C-208.1525 80.0625 -207.4925 80.0625 -206.8125 80.0625 C-206.71453125 79.3509375 -206.6165625 78.639375 -206.515625 77.90625 C-204.70324656 70.57618609 -199.30554104 64.08470895 -193.8125 59.0625 C-193.1525 58.0725 -192.4925 57.0825 -191.8125 56.0625 C-191.1525 56.0625 -190.4925 56.0625 -189.8125 56.0625 C-189.40644531 55.18078125 -189.40644531 55.18078125 -188.9921875 54.28125 C-184.43806206 45.71587499 -175.66567079 38.82549749 -168.8125 32.0625 C-167.81144903 31.06355208 -166.81078914 30.06420794 -165.8125 29.0625 C-165.08546875 29.85914063 -165.08546875 29.85914063 -164.34375 30.671875 C-160.37028465 34.85929618 -156.85384536 37.90426103 -151.578125 40.26171875 C-149.38643902 41.25573562 -147.58636162 42.43646018 -145.8125 44.0625 C-145.8125 44.7225 -145.8125 45.3825 -145.8125 46.0625 C-145.255625 46.330625 -144.69875 46.59875 -144.125 46.875 C-141.60024666 48.17149496 -139.17535516 49.48726323 -136.8125 51.0625 C-136.8125 51.7225 -136.8125 52.3825 -136.8125 53.0625 C-136.09964844 53.31386719 -135.38679688 53.56523438 -134.65234375 53.82421875 C-131.53733304 55.18248339 -129.10236836 56.85171823 -126.375 58.875 C-125.41464844 59.58269531 -124.45429687 60.29039062 -123.46484375 61.01953125 C-121.36722904 62.63521975 -119.39625256 64.28690352 -117.4375 66.0625 C-114.9830941 68.2464339 -114.9830941 68.2464339 -112.0625 68.5625 C-109.43897138 68.25177121 -109.43897138 68.25177121 -107.8125 65.0625 C-107.61655086 63.01284039 -107.61655086 63.01284039 -107.625 60.8125 C-107.20017436 55.82079869 -105.10052214 53.58863312 -101.50390625 50.27734375 C-99.8125 49.0625 -99.8125 49.0625 -97.8125 49.0625 C-97.77511719 48.24007812 -97.73773437 47.41765625 -97.69921875 46.5703125 C-97.1113962 36.58885513 -96.31369709 27.38297502 -89.1796875 19.8203125 C-84.3459458 16.23090035 -78.54457127 14.68926322 -72.8125 13.0625 C-72.13316406 12.86011719 -71.45382812 12.65773438 -70.75390625 12.44921875 C-63.84075633 11.07215267 -56.78789801 11.1655013 -50.8125 15.0625 C-50.03132813 15.48789062 -49.25015625 15.91328125 -48.4453125 16.3515625 C-39.51100411 21.30917576 -35.01313527 26.85341497 -30.8125 36.0625 C-26.45780214 35.95628786 -24.32856887 34.90875627 -21.375 31.875 C-20.79492188 31.2459375 -20.21484375 30.616875 -19.6171875 29.96875 C-17.35379949 27.57798518 -14.86762151 25.56393516 -12.29296875 23.51953125 C-7.90657923 19.20258325 -8.499623 14.06191599 -8.3515625 8.25390625 C-7.4351846 2.82868349 -5.61542943 0.09205622 0 0 Z " fill="#F1D3A6" transform="translate(1389.8125,598.9375)"/>

<path d="M0 0 C3.01808161 0.44167048 4.21933987 1.48535473 6.5625 3.375 C8.70983927 4.08014846 8.70983927 4.08014846 10.5625 4.375 C10.5625 5.035 10.5625 5.695 10.5625 6.375 C11.13097656 6.54515625 11.69945312 6.7153125 12.28515625 6.890625 C16.20903194 8.1221586 19.83191086 9.38955125 23.375 11.5 C25.93600682 13.0064746 27.68276912 13.91424306 30.5625 14.375 C30.5625 15.035 30.5625 15.695 30.5625 16.375 C31.119375 16.62894531 31.67625 16.88289062 32.25 17.14453125 C34.90575093 18.55764196 37.16432681 20.24602656 39.5625 22.0625 C49.76113159 29.8502936 49.76113159 29.8502936 61.5625 34.375 C61.5625 35.035 61.5625 35.695 61.5625 36.375 C63.8725 37.035 66.1825 37.695 68.5625 38.375 C68.5625 39.035 68.5625 39.695 68.5625 40.375 C69.21089844 40.46007812 69.85929687 40.54515625 70.52734375 40.6328125 C74.65887487 41.64309681 78.28604596 43.44575193 82.125 45.25 C87.54717108 47.76168035 92.60590984 49.81829977 98.5 51 C103.28041325 52.0409499 103.28041325 52.0409499 105.9375 55.1875 C106.67311245 58.93912352 106.12287115 60.92575851 104.5625 64.375 C98.93974403 63.87439334 94.94105094 62.34650992 90 59.6875 C82.6555706 55.87111655 75.2196296 52.5179264 67.5625 49.375 C66.675625 49.00375 65.78875 48.6325 64.875 48.25 C62.13335288 47.21262001 59.45905675 46.77917071 56.5625 46.375 C56.5625 45.715 56.5625 45.055 56.5625 44.375 C54.5825 44.375 52.6025 44.375 50.5625 44.375 C50.5625 43.715 50.5625 43.055 50.5625 42.375 C49.82644531 42.24222656 49.09039063 42.10945312 48.33203125 41.97265625 C47.35621094 41.79605469 46.38039063 41.61945312 45.375 41.4375 C44.41207031 41.26347656 43.44914062 41.08945312 42.45703125 40.91015625 C39.82010028 40.4226265 37.1905095 39.90828895 34.5625 39.375 C34.5625 38.715 34.5625 38.055 34.5625 37.375 C33.57507812 37.25898437 32.58765625 37.14296875 31.5703125 37.0234375 C27.38595064 36.42447058 23.46563276 35.25407192 19.4375 34 C12.20076949 31.80346189 4.96112662 29.95766274 -2.4375 28.375 C-2.4375 27.715 -2.4375 27.055 -2.4375 26.375 C-3.530625 26.25125 -4.62375 26.1275 -5.75 26 C-9.4375 25.375 -9.4375 25.375 -12.4375 23.375 C-12.16275837 14.99538033 -9.41171368 8.0031982 -3.89453125 1.578125 C-2.4375 0.375 -2.4375 0.375 0 0 Z " fill="#D4ECCA" transform="translate(1301.4375,846.625)"/>


<!-- RW 1 -->
<path d="M0 0 C1.36930153 0.00899523 2.73860503 0.01769378 4.10791016 0.02612305 C7.82153978 0.05415434 11.53469993 0.10111499 15.24804688 0.15429688 C17.69397757 0.18846353 20.13993583 0.21749669 22.5859375 0.24609375 C40.83895777 0.47324469 58.85281316 0.96388004 76.96875 3.37109375 C85.85476479 4.52829771 94.790182 5.11987829 103.72219849 5.80505371 C113.83675841 6.59067614 123.78393971 7.74650826 133.8125 9.3125 C143.21597739 10.76939528 152.38153782 11.33601356 161.89453125 11.41796875 C163.52239815 11.43428345 163.52239815 11.43428345 165.18315125 11.45092773 C170.62289403 11.49540801 176.0573808 11.49085879 181.49682617 11.42041016 C193.84723654 11.36466175 202.06417696 12.3487869 212.625 19.1875 C214.89346301 20.56308886 217.16364321 21.92626409 219.453125 23.265625 C220.02593201 23.60270981 220.59873901 23.93979462 221.18890381 24.28709412 C228.18393742 28.27199564 235.72076319 30.55808 243.375 32.9375 C246.2258114 33.8432031 249.07392012 34.75723563 251.921875 35.671875 C252.59988663 35.88790878 253.27789825 36.10394257 253.97645569 36.32652283 C258.57353168 37.80445355 263.04145324 39.48231533 267.50048828 41.32958984 C272.7004398 43.42940938 278.12062389 44.9239805 283.48535156 46.54199219 C284.90223911 46.96945119 286.31827253 47.3997525 287.73339844 47.83300781 C295.35674589 50.16639656 302.96885851 52.32070217 310.75 54.0625 C320.70562301 56.30031261 330.40221883 59.36700878 340.13574219 62.41064453 C343.08573537 63.33128776 346.04267174 64.22823604 349 65.125 C355.4461119 67.11837597 361.88046148 69.14924355 368.3125 71.1875 C369.37065918 71.51999756 370.42881836 71.85249512 371.51904297 72.19506836 C378.01393043 74.2625482 384.32209276 76.59924921 390.625 79.1875 C393.28405334 80.22878615 395.95230701 81.24429247 398.625 82.25 C399.31287598 82.50894043 400.00075195 82.76788086 400.70947266 83.03466797 C405.21047071 84.70972829 409.73073316 86.16790759 414.3515625 87.48046875 C416.76301943 88.23042357 419.04629901 89.14905573 421.375 90.125 C426.90205509 92.3833666 432.54877546 93.97477566 438.30273438 95.54980469 C442.09342541 96.59073036 445.87873733 97.65082695 449.66430664 98.71020508 C451.86324816 99.32476716 454.06297016 99.93654283 456.26342773 100.5456543 C465.45650659 103.1003899 465.45650659 103.1003899 469.92578125 104.57421875 C479.1246848 107.57967447 488.38576896 109.22389172 497.9375 110.6875 C515.79311457 113.42545991 532.50728347 117.64138868 549.5859375 123.4921875 C554.17053522 125.05412696 558.78453717 126.46963729 563.4375 127.8125 C568.82771931 129.37047246 574.20581636 130.95482771 579.5625 132.625 C580.22475586 132.8310083 580.88701172 133.0370166 581.56933594 133.24926758 C584.91220065 134.2994775 588.23440113 135.38959306 591.5390625 136.5546875 C601.2983802 139.97267044 611.17752137 142.74034434 621.1875 145.3125 C621.86978668 145.48854767 622.55207336 145.66459534 623.2550354 145.84597778 C632.30908031 148.19112967 632.30908031 148.19112967 641.44921875 150.1640625 C654.39119155 152.68172568 665.97537869 158.36193373 677.84863281 163.92236328 C680.41474133 165.0916892 682.99771725 166.164312 685.625 167.1875 C685.625 169.4975 685.625 171.8075 685.625 174.1875 C703.93894877 180.70602414 722.43012945 182.54552804 741.73388672 182.44824219 C744.22779138 182.43759482 746.72096168 182.44817605 749.21484375 182.4609375 C771.27768425 182.48562444 792.85654481 179.60904482 814.625 176.25 C818.07177272 175.72349086 821.51885747 175.19914223 824.96630859 174.67709351 C827.22487898 174.33457521 829.48302598 173.98925253 831.74072266 173.64102173 C837.19185837 172.80979148 842.63641847 172.04964988 848.1171875 171.44091797 C849.66841309 171.26308022 849.66841309 171.26308022 851.25097656 171.08164978 C853.17557573 170.8663094 855.10203023 170.66664145 857.03027344 170.48683167 C864.37188882 169.65721654 869.84397816 167.04885334 875.71633911 162.60484314 C878.1118703 160.82595737 880.54993459 159.80151916 883.3046875 158.65625 C885.01942261 157.94227051 885.01942261 157.94227051 886.76879883 157.21386719 C888.01231756 156.7045529 889.25605676 156.19577659 890.5 155.6875 C891.12828705 155.42859985 891.7565741 155.16969971 892.40390015 154.9029541 C906.98575176 148.89973112 921.78069363 143.50174076 936.625 138.1875 C936.955 133.5675 937.285 128.9475 937.625 124.1875 C942.00351608 124.14162498 946.38120083 124.10179032 950.75976562 124.07763672 C952.2497032 124.06756957 953.73962097 124.05391482 955.22949219 124.03662109 C957.36919028 124.01240347 959.50862753 124.00102436 961.6484375 123.9921875 C962.93669434 123.98171387 964.22495117 123.97124023 965.55224609 123.96044922 C968.625 124.1875 968.625 124.1875 970.625 126.1875 C972.82018623 126.63309224 975.0368113 126.97485244 977.2578125 127.265625 C978.62781771 127.45469255 979.99768616 127.64475322 981.36743164 127.83569336 C982.0838382 127.93332977 982.80024475 128.03096619 983.5383606 128.13156128 C995.90968152 129.84290088 1007.18647339 131.98460447 1018.625 137.1875 C1020.69337548 138.04038692 1022.76979009 138.87039017 1024.84936523 139.69555664 C1026.74301466 140.44758446 1028.62961889 141.21728519 1030.515625 141.98828125 C1035.20985783 143.79874542 1038.83827237 144.24967858 1043.875 144.375 C1050.45060861 144.84679255 1054.04286586 146.52989541 1058.625 151.1875 C1059.43130859 151.991875 1059.43130859 151.991875 1060.25390625 152.8125 C1061.6875 154.375 1061.6875 154.375 1063.625 157.1875 C1063.295 158.1775 1062.965 159.1675 1062.625 160.1875 C1063.50800781 160.12304688 1064.39101562 160.05859375 1065.30078125 159.9921875 C1070.85650048 160.31861049 1074.54899586 163.59188206 1078.625 167.1875 C1080.3125 170.1875 1080.3125 170.1875 1081.625 173.1875 C1085.63092499 177.79936365 1085.63092499 177.79936365 1090.625 181.1875 C1090.295 181.8475 1089.965 182.5075 1089.625 183.1875 C1088.81095703 182.46433594 1088.81095703 182.46433594 1087.98046875 181.7265625 C1087.26503906 181.09492187 1086.54960938 180.46328125 1085.8125 179.8125 C1085.10480469 179.18601562 1084.39710937 178.55953125 1083.66796875 177.9140625 C1081.53696181 176.046901 1081.53696181 176.046901 1078.625 174.1875 C1078.25890625 174.62578125 1077.8928125 175.0640625 1077.515625 175.515625 C1073.2207823 180.54672645 1068.659249 185.22084055 1063.88964844 189.79785156 C1061.38697238 192.24167958 1059.26478386 194.59389137 1057.38671875 197.5546875 C1056.80535156 198.42351562 1056.22398438 199.29234375 1055.625 200.1875 C1054.965 200.1875 1054.305 200.1875 1053.625 200.1875 C1053.2228125 201.3321875 1053.2228125 201.3321875 1052.8125 202.5 C1051.67365495 205.07738618 1050.81083329 206.45704864 1048.625 208.1875 C1047.965 208.1875 1047.305 208.1875 1046.625 208.1875 C1046.398125 208.8475 1046.17125 209.5075 1045.9375 210.1875 C1044.49870695 213.47616982 1042.71001729 216.32489203 1040.74609375 219.3203125 C1039.46848324 221.29499909 1039.46848324 221.29499909 1038.625 224.1875 C1037.965 224.1875 1037.305 224.1875 1036.625 224.1875 C1036.12346959 225.99957712 1035.62381588 227.81217376 1035.125 229.625 C1034.8465625 230.63433594 1034.568125 231.64367187 1034.28125 232.68359375 C1033.58274542 234.91730861 1033.58274542 234.91730861 1033.625 236.1875 C1024.89651069 237.79069191 1013.64906799 238.41141313 1005.625 234.1875 C1005.05652344 233.4965625 1004.48804688 232.805625 1003.90234375 232.09375 C999.86664331 228.71566799 994.68581469 229.67608348 989.62304688 229.69921875 C984.14113448 229.60477703 981.81452057 228.9566435 977.625 225.1875 C974.61243451 224.17264233 974.61243451 224.17264233 971.3125 223.625 C970.08273437 223.39039063 968.85296875 223.15578125 967.5859375 222.9140625 C966.93979492 222.79708008 966.29365234 222.68009766 965.62792969 222.55957031 C963.59122743 222.1812263 961.56600022 221.76332132 959.5390625 221.3359375 C951.85658259 219.7499831 944.50234895 218.73688894 936.625 219.1875 C935.50922519 222.53482442 935.54204575 224.97683766 935.59765625 228.5 C935.60990234 229.74007812 935.62214844 230.98015625 935.63476562 232.2578125 C935.66992262 234.87765949 935.70898538 237.49745697 935.75195312 240.1171875 C935.76838867 241.97730469 935.76838867 241.97730469 935.78515625 243.875 C935.80199463 245.01324219 935.81883301 246.15148437 935.83618164 247.32421875 C935.625 250.1875 935.625 250.1875 933.625 253.1875 C929.48170594 252.6216757 926.01288195 251.67665677 922.1875 250 C917.45611126 247.96973991 912.7145549 245.98213817 907.9375 244.0625 C906.75800781 243.58554687 905.57851562 243.10859375 904.36328125 242.6171875 C903.11872708 242.13661871 901.87257515 241.66017081 900.625 241.1875 C899.97942139 240.93709961 899.33384277 240.68669922 898.66870117 240.42871094 C891.72546916 237.90799659 884.58770739 236.83529872 877.3125 235.6875 C875.97339301 235.47150577 874.63436365 235.25502969 873.29541016 235.03808594 C869.40689749 234.41082677 865.51609299 233.79855333 861.625 233.1875 C860.58520996 233.02185547 859.54541992 232.85621094 858.47412109 232.68554688 C847.00002913 230.84310866 847.00002913 230.84310866 835.4375 229.75 C825.08188496 229.00614596 814.95637553 226.07627481 805.1875 222.6875 C786.65084425 216.32650024 767.31383389 214.34074083 747.94921875 212.03125 C723.69644767 209.1357109 699.69017063 206.20154899 675.9609375 200.23828125 C672.53477879 199.38285252 669.12152167 198.70235999 665.625 198.1875 C665.52703125 198.78175781 665.4290625 199.37601563 665.328125 199.98828125 C664.46011692 204.79973986 663.31955586 209.24415477 661.5625 213.8125 C659.82790527 218.34566021 658.98961073 222.35640785 658.625 227.1875 C650.57746605 226.87618341 644.04997089 225.21750768 636.625 222.1875 C635.48160156 221.75308594 634.33820312 221.31867188 633.16015625 220.87109375 C624.2862728 217.45376403 615.82641901 213.44605756 607.37841797 209.08837891 C604.80489434 207.76614245 602.21522621 206.47662645 599.625 205.1875 C599.625 204.1975 599.625 203.2075 599.625 202.1875 C589.60929361 199.25059026 579.95771077 197.38018737 569.5625 196.25 C559.24800235 195.057099 549.16088718 193.50878636 539.10327148 190.84985352 C534.42816401 189.65276221 529.99099977 189.00816632 525.16796875 188.72265625 C517.15383639 188.24517937 509.33096677 187.02707432 501.41992188 185.71337891 C498.99740556 185.31207021 496.57314631 184.92297273 494.1484375 184.53515625 C492.56498614 184.27676393 490.98164859 184.01767293 489.3984375 183.7578125 C488.69496185 183.64519073 487.99148621 183.53256897 487.26669312 183.41653442 C484.17113288 182.89663612 481.17672115 182.35814967 478.17321777 181.42915344 C468.80533651 178.60160173 459.62989071 178.82633425 449.94060516 178.93144035 C446.79092377 178.96558582 443.64160233 178.98097643 440.49176025 178.99208069 C434.9180018 179.01476485 429.34449797 179.05372122 423.77087402 179.0980835 C414.89684989 179.16842112 406.02285689 179.2241783 397.14862823 179.26043892 C394.09158724 179.27677098 391.0348905 179.30635848 387.97796631 179.33714294 C369.03591127 179.46806914 350.24755062 178.05046994 331.53930664 175.06518555 C329.5281788 174.74452777 327.51536128 174.43684332 325.50195312 174.13085938 C313.79847847 172.32880673 302.02059867 170.43217972 290.6875 166.9375 C289.25285211 166.50048729 287.81793977 166.0643421 286.3828125 165.62890625 C285.62387695 165.39703613 284.86494141 165.16516602 284.08300781 164.92626953 C281.41328796 164.12386863 278.73558492 163.35405044 276.0546875 162.58984375 C265.48818753 159.57233708 254.99106068 156.40458482 244.5625 152.9375 C243.56984131 152.60838623 242.57718262 152.27927246 241.55444336 151.94018555 C237.67472162 150.63426941 233.88348909 149.29943501 230.125 147.671875 C225.41137027 145.67279096 220.57558927 144.19914408 215.6875 142.6875 C209.89525399 140.88895853 204.14855788 139.06449316 198.48608398 136.88867188 C195.39790819 135.72518757 192.2604903 134.71509766 189.125 133.6875 C184.56366351 132.18181067 180.02482443 130.64764013 175.54296875 128.91796875 C173.27087738 128.05263049 170.97923868 127.24937155 168.6875 126.4375 C152.80330599 120.65943219 137.49979434 113.64140048 122.375 106.125 C121.45545532 105.66879272 121.45545532 105.66879272 120.51733398 105.20336914 C115.81743239 102.84502455 111.20318009 100.34103629 106.59228516 97.8137207 C87.18326234 87.1634483 87.18326234 87.1634483 67.4699707 77.09423828 C61.97165201 74.38575656 56.54782701 71.54370948 51.125 68.6875 C38.63110614 62.12389787 26.09204497 55.79668974 13.25 49.9375 C12.34644775 49.52491943 11.44289551 49.11233887 10.51196289 48.68725586 C2.03303858 44.85357135 -6.57791359 41.45072912 -15.3125 38.25 C-20.82876384 36.20631811 -26.18842583 33.97873181 -31.515625 31.4765625 C-36.23794447 29.34764798 -41.06920087 27.49850704 -45.89453125 25.6171875 C-55.03813559 21.86122881 -55.03813559 21.86122881 -56.75 18.4375 C-56.23188838 13.94719932 -54.13545313 12.58787261 -50.74609375 9.80078125 C-46.00004034 6.5715884 -41.48639496 4.77218939 -35.875 3.625 C-34.7921875 3.39683594 -33.709375 3.16867187 -32.59375 2.93359375 C-21.67023526 0.93183656 -11.11011189 -0.11636989 0 0 Z " fill="#A7C69D" transform="translate(144.375,454.8125)"/>


</svg>