<svg width="3203" height="1612" version="1.1" xmlns="http://www.w3.org/2000/svg" desc="Created with imagetracer.js version 1.2.6" ><path fill="rgb(232,251,203)" stroke="rgb(232,251,203)" stroke-width="1" opacity="1" d="M 126.5 455 L 130 455.5 L 126.5 456 L 126.5 455 Z " /><path fill="rgb(232,251,203)" stroke="rgb(232,251,203)" stroke-width="1" opacity="1" d="M 162.5 455 L 178 455.5 L 162.5 456 L 162.5 455 Z " /><path fill="rgb(232,251,203)" stroke="rgb(232,251,203)" stroke-width="1" opacity="1" d="M 119.5 456 L 123 456.5 L 119.5 457 L 119.5 456 Z " /><path fill="rgb(232,251,203)" stroke="rgb(232,251,203)" stroke-width="1" opacity="1" d="M 194.5 456 L 205 456.5 L 194.5 457 L 194.5 456 Z " /><path fill="rgb(232,251,203)" stroke="rgb(232,251,203)" stroke-width="1" opacity="1" d="M 112.5 457 L 116 457.5 L 112.5 458 L 112.5 457 Z " /><path fill="rgb(232,251,203)" stroke="rgb(232,251,203)" stroke-width="1" opacity="1" d="M 210.5 457 L 214 457.5 L 210.5 458 L 210.5 457 Z " /><path fill="rgb(232,251,203)" stroke="rgb(232,251,203)" stroke-width="1" opacity="1" d="M 107.5 458 L 110 458.5 L 107.5 459 L 107.5 458 Z " /><path fill="rgb(232,251,203)" stroke="rgb(232,251,203)" stroke-width="1" opacity="1" d="M 219.5 458 L 223 458.5 L 219.5 459 L 219.5 458 Z " /><path fill="rgb(232,251,203)" stroke="rgb(232,251,203)" stroke-width="1" opacity="1" d="M 103.5 459 L 106 459.5 L 103.5 460 L 103.5 459 Z " /><path fill="rgb(232,251,203)" stroke="rgb(232,251,203)" stroke-width="1" opacity="1" d="M 228.5 459 L 234 459.5 L 228.5 460 L 228.5 459 Z " /><path fill="rgb(232,251,203)" stroke="rgb(232,251,203)" stroke-width="1" opacity="1" d="M 242.5 460 L 248 460.5 L 242.5 461 L 242.5 460 Z " /><path fill="rgb(232,251,203)" stroke="rgb(232,251,203)" stroke-width="1" opacity="1" d="M 98.5 461 L 97.5 463 L 98.5 461 Z " /><path fill="rgb(232,251,203)" stroke="rgb(232,251,203)" stroke-width="1" opacity="1" d="M 256.5 461 L 260 461.5 L 256.5 462 L 256.5 461 Z " /><path fill="rgb(232,251,203)" stroke="rgb(232,251,203)" stroke-width="1" opacity="1" d="M 264.5 462 L 268 462.5 L 264.5 463 L 264.5 462 Z " /><path fill="rgb(232,251,203)" stroke="rgb(232,251,203)" stroke-width="1" opacity="1" d="M 272.5 463 L 276 463.5 L 272.5 464 L 272.5 463 Z " /><path fill="rgb(232,251,203)" stroke="rgb(232,251,203)" stroke-width="1" opacity="1" d="M 93.5 464 L 88.5 470 L 93.5 464 Z " /><path fill="rgb(232,251,203)" stroke="rgb(232,251,203)" stroke-width="1" opacity="1" d="M 280.5 464 L 283 464.5 L 280.5 465 L 280.5 464 Z " /><path fill="rgb(232,251,203)" stroke="rgb(232,251,203)" stroke-width="1" opacity="1" d="M 287.5 465 L 290 465.5 L 287.5 466 L 287.5 465 Z " /><path fill="rgb(232,251,203)" stroke="rgb(232,251,203)" stroke-width="1" opacity="1" d="M 294.5 466 L 297 466.5 L 294.5 467 L 294.5 466 Z " /><path fill="rgb(232,251,203)" stroke="rgb(232,251,203)" stroke-width="1" opacity="1" d="M 326.5 466 L 341 466.5 L 326.5 467 L 326.5 466 Z " /><path fill="rgb(232,251,203)" stroke="rgb(232,251,203)" stroke-width="1" opacity="1" d="M 306.5 467 L 312 467.5 L 306.5 468 L 306.5 467 Z " /><path fill="rgb(232,251,203)" stroke="rgb(232,251,203)" stroke-width="1" opacity="1" d="M 87.5 471 L 91 476.5 L 87 473.5 L 87.5 471 Z " /><path fill="rgb(232,251,203)" stroke="rgb(232,251,203)" stroke-width="1" opacity="1" d="M 357.5 474 L 358.5 476 L 357.5 474 Z " /><path fill="rgb(232,251,203)" stroke="rgb(232,251,203)" stroke-width="1" opacity="1" d="M 364.5 478 L 365.5 480 L 364.5 478 Z " /><path fill="rgb(232,251,203)" stroke="rgb(232,251,203)" stroke-width="1" opacity="1" d="M 202.5 526 L 203.5 528 L 202.5 526 Z " /><path fill="rgb(232,251,203)" stroke="rgb(232,251,203)" stroke-width="1" opacity="1" d="M 257.5 555 L 258.5 557 L 257.5 555 Z " /><path fill="rgb(232,251,203)" stroke="rgb(232,251,203)" stroke-width="1" opacity="1" d="M 627.5 563 L 630 563.5 L 627.5 564 L 627.5 563 Z " /><path fill="rgb(232,251,203)" stroke="rgb(232,251,203)" stroke-width="1" opacity="1" d="M 633.5 564 L 636 564.5 L 633.5 565 L 633.5 564 Z " /><path fill="rgb(232,251,203)" stroke="rgb(232,251,203)" stroke-width="1" opacity="1" d="M 646.5 566 L 649 566.5 L 646.5 567 L 646.5 566 Z " /><path fill="rgb(232,251,203)" stroke="rgb(232,251,203)" stroke-width="1" opacity="1" d="M 1082.5 579 L 1088 579.5 L 1082.5 580 L 1082.5 579 Z " /><path fill="rgb(232,251,203)" stroke="rgb(232,251,203)" stroke-width="1" opacity="1" d="M 1115.5 581 L 1118 581.5 L 1115.5 582 L 1115.5 581 Z " /><path fill="rgb(232,251,203)" stroke="rgb(232,251,203)" stroke-width="1" opacity="1" d="M 1122.5 582 L 1125 582.5 L 1122.5 583 L 1122.5 582 Z " /><path fill="rgb(232,251,203)" stroke="rgb(232,251,203)" stroke-width="1" opacity="1" d="M 1129.5 583 L 1132 583.5 L 1129.5 584 L 1129.5 583 Z " /><path fill="rgb(232,251,203)" stroke="rgb(232,251,203)" stroke-width="1" opacity="1" d="M 1135.5 584 L 1139 584.5 L 1135.5 585 L 1135.5 584 Z " /><path fill="rgb(232,251,203)" stroke="rgb(232,251,203)" stroke-width="1" opacity="1" d="M 1142.5 585 L 1145 585.5 L 1142.5 586 L 1142.5 585 Z " /><path fill="rgb(232,251,203)" stroke="rgb(232,251,203)" stroke-width="1" opacity="1" d="M 1081.5 587 L 1082 592.5 L 1080 593.5 L 1081.5 587 Z " /><path fill="rgb(232,251,203)" stroke="rgb(232,251,203)" stroke-width="1" opacity="1" d="M 1385.5 599 L 1383.5 602 L 1385.5 599 Z " /><path fill="rgb(232,251,203)" stroke="rgb(232,251,203)" stroke-width="1" opacity="1" d="M 1195.5 600 L 1196.5 602 L 1195.5 600 Z " /><path fill="rgb(232,251,203)" stroke="rgb(232,251,203)" stroke-width="1" opacity="1" d="M 1386.5 601 L 1392.5 601 L 1400 606.5 L 1400 610.5 L 1393.5 617 L 1356.5 648 L 1323.5 620 L 1320.5 620 L 1288 656.5 L 1332.5 688 L 1396.5 638 Q 1399.3 634.2 1405 635 L 1399.5 642 L 1344 684 L 1343 686.5 L 1385 727.5 L 1366.5 748 L 1337.5 723 L 1332 721 L 1320.5 740 L 1315.5 738 L 1301.5 727 L 1299 729.5 L 1292 746 Q 1284.1 744 1279.5 738 L 1256 727 L 1254.5 724 L 1194.5 695 L 1177 690 Q 1182 676 1191 664.5 L 1207 645.5 L 1223.5 629 Q 1225.8 628.3 1225 630.5 L 1274.5 669 L 1279.5 670 L 1282 669 L 1284 665.5 L 1285 655.5 L 1290.5 650 L 1293 648.5 L 1295 645.5 L 1295 634.5 L 1297 626.5 L 1303.5 619 Q 1313.2 613.2 1327.5 612 Q 1343 615.5 1352 625.5 L 1358.5 637 L 1362.5 638 L 1381 621.5 L 1380.5 620 L 1373 626.5 L 1380.5 619 L 1382 619.5 L 1383 617.5 L 1383 606.5 L 1386.5 601 Z " /><path fill="rgb(232,251,203)" stroke="rgb(232,251,203)" stroke-width="1" opacity="1" d="M 1398.5 602 L 1402 606.5 L 1401 606.5 L 1398.5 602 Z " /><path fill="rgb(232,251,203)" stroke="rgb(232,251,203)" stroke-width="1" opacity="1" d="M 1201.5 604 L 1207.5 611 L 1201.5 604 Z " /><path fill="rgb(232,251,203)" stroke="rgb(232,251,203)" stroke-width="1" opacity="1" d="M 1381.5 607 L 1382 616.5 L 1381 616.5 L 1381.5 607 Z " /><path fill="rgb(232,251,203)" stroke="rgb(232,251,203)" stroke-width="1" opacity="1" d="M 1401.5 610 L 1402 611.5 L 1395 617.5 L 1401.5 610 Z " /><path fill="rgb(232,251,203)" stroke="rgb(232,251,203)" stroke-width="1" opacity="1" d="M 1318.5 611 L 1321 611.5 L 1318.5 612 L 1318.5 611 Z " /><path fill="rgb(232,251,203)" stroke="rgb(232,251,203)" stroke-width="1" opacity="1" d="M 1336.5 613 L 1339 614.5 L 1337.5 614 L 1336.5 613 Z " /><path fill="rgb(232,251,203)" stroke="rgb(232,251,203)" stroke-width="1" opacity="1" d="M 1025.5 614 L 1027 614.5 L 1023.5 616 L 1023.5 615 L 1025.5 614 Z " /><path fill="rgb(232,251,203)" stroke="rgb(232,251,203)" stroke-width="1" opacity="1" d="M 1207.5 614 L 1209.5 617 L 1207.5 614 Z " /><path fill="rgb(232,251,203)" stroke="rgb(232,251,203)" stroke-width="1" opacity="1" d="M 1213.5 615 L 1214.5 617 L 1213.5 615 Z " /><path fill="rgb(232,251,203)" stroke="rgb(232,251,203)" stroke-width="1" opacity="1" d="M 1216.5 617 L 1217.5 619 L 1216.5 617 Z " /><path fill="rgb(232,251,203)" stroke="rgb(232,251,203)" stroke-width="1" opacity="1" d="M 1018.5 618 L 1016.5 621 L 1018.5 618 Z " /><path fill="rgb(232,251,203)" stroke="rgb(232,251,203)" stroke-width="1" opacity="1" d="M 1301.5 618 L 1297.5 623 L 1301.5 618 Z " /><path fill="rgb(232,251,203)" stroke="rgb(232,251,203)" stroke-width="1" opacity="1" d="M 1346.5 618 L 1349.5 622 L 1346.5 618 Z " /><path fill="rgb(232,251,203)" stroke="rgb(232,251,203)" stroke-width="1" opacity="1" d="M 1221.5 620 L 1222.5 622 L 1221.5 620 Z " /><path fill="rgb(232,251,203)" stroke="rgb(232,251,203)" stroke-width="1" opacity="1" d="M 1391.5 620 L 1386.5 626 L 1391.5 620 Z " /><path fill="rgb(232,251,203)" stroke="rgb(232,251,203)" stroke-width="1" opacity="1" d="M 1321.5 621 L 1326 624.5 L 1322.5 622 L 1319.5 624 L 1321.5 621 Z " /><path fill="rgb(232,251,203)" stroke="rgb(232,251,203)" stroke-width="1" opacity="1" d="M 1006.5 624 L 1009 624.5 L 1006.5 625 L 1006.5 624 Z " /><path fill="rgb(232,251,203)" stroke="rgb(232,251,203)" stroke-width="1" opacity="1" d="M 452.5 625 L 455 625.5 L 452.5 626 L 452.5 625 Z " /><path fill="rgb(232,251,203)" stroke="rgb(232,251,203)" stroke-width="1" opacity="1" d="M 997.5 625 L 1001 625.5 L 997.5 626 L 997.5 625 Z " /><path fill="rgb(232,251,203)" stroke="rgb(232,251,203)" stroke-width="1" opacity="1" d="M 989.5 626 L 994 626.5 L 989.5 627 L 989.5 626 Z " /><path fill="rgb(232,251,203)" stroke="rgb(232,251,203)" stroke-width="1" opacity="1" d="M 1328.5 626 L 1330.5 629 L 1328.5 626 Z " /><path fill="rgb(232,251,203)" stroke="rgb(232,251,203)" stroke-width="1" opacity="1" d="M 981.5 627 L 986 627.5 L 981.5 628 L 981.5 627 Z " /><path fill="rgb(232,251,203)" stroke="rgb(232,251,203)" stroke-width="1" opacity="1" d="M 469.5 628 L 472 628.5 L 469.5 629 L 469.5 628 Z " /><path fill="rgb(232,251,203)" stroke="rgb(232,251,203)" stroke-width="1" opacity="1" d="M 829.5 628 L 830.5 630 L 829.5 628 Z " /><path fill="rgb(232,251,203)" stroke="rgb(232,251,203)" stroke-width="1" opacity="1" d="M 973.5 628 L 978 628.5 L 973.5 629 L 973.5 628 Z " /><path fill="rgb(232,251,203)" stroke="rgb(232,251,203)" stroke-width="1" opacity="1" d="M 1315.5 628 L 1307.5 637 L 1315.5 628 Z " /><path fill="rgb(232,251,203)" stroke="rgb(232,251,203)" stroke-width="1" opacity="1" d="M 1355.5 628 L 1357 630.5 L 1356 630.5 L 1355.5 628 Z " /><path fill="rgb(232,251,203)" stroke="rgb(232,251,203)" stroke-width="1" opacity="1" d="M 1370.5 628 L 1364.5 635 L 1370.5 628 Z " /><path fill="rgb(232,251,203)" stroke="rgb(232,251,203)" stroke-width="1" opacity="1" d="M 1382.5 628 L 1378.5 633 L 1382.5 628 Z " /><path fill="rgb(232,251,203)" stroke="rgb(232,251,203)" stroke-width="1" opacity="1" d="M 475.5 629 L 478 629.5 L 475.5 630 L 475.5 629 Z " /><path fill="rgb(232,251,203)" stroke="rgb(232,251,203)" stroke-width="1" opacity="1" d="M 967.5 629 L 971 629.5 L 967.5 630 L 967.5 629 Z " /><path fill="rgb(232,251,203)" stroke="rgb(232,251,203)" stroke-width="1" opacity="1" d="M 482.5 630 L 485 630.5 L 482.5 631 L 482.5 630 Z " /><path fill="rgb(232,251,203)" stroke="rgb(232,251,203)" stroke-width="1" opacity="1" d="M 961.5 630 L 965 630.5 L 961.5 631 L 961.5 630 Z " /><path fill="rgb(232,251,203)" stroke="rgb(232,251,203)" stroke-width="1" opacity="1" d="M 1333.5 630 L 1336.5 634 L 1333.5 630 Z " /><path fill="rgb(232,251,203)" stroke="rgb(232,251,203)" stroke-width="1" opacity="1" d="M 488.5 631 L 491 631.5 L 488.5 632 L 488.5 631 Z " /><path fill="rgb(232,251,203)" stroke="rgb(232,251,203)" stroke-width="1" opacity="1" d="M 955.5 631 L 958 631.5 L 955.5 632 L 955.5 631 Z " /><path fill="rgb(232,251,203)" stroke="rgb(232,251,203)" stroke-width="1" opacity="1" d="M 496.5 632 L 504 632.5 L 496.5 633 L 496.5 632 Z " /><path fill="rgb(232,251,203)" stroke="rgb(232,251,203)" stroke-width="1" opacity="1" d="M 594.5 632 L 601 632.5 L 594.5 633 L 594.5 632 Z " /><path fill="rgb(232,251,203)" stroke="rgb(232,251,203)" stroke-width="1" opacity="1" d="M 948.5 632 L 952 632.5 L 948.5 633 L 948.5 632 Z " /><path fill="rgb(232,251,203)" stroke="rgb(232,251,203)" stroke-width="1" opacity="1" d="M 512.5 633 L 525 633.5 L 512.5 634 L 512.5 633 Z " /><path fill="rgb(232,251,203)" stroke="rgb(232,251,203)" stroke-width="1" opacity="1" d="M 555.5 633 L 585 633.5 L 555.5 634 L 555.5 633 Z " /><path fill="rgb(232,251,203)" stroke="rgb(232,251,203)" stroke-width="1" opacity="1" d="M 610.5 633 L 613 633.5 L 610.5 634 L 610.5 633 Z " /><path fill="rgb(232,251,203)" stroke="rgb(232,251,203)" stroke-width="1" opacity="1" d="M 942.5 633 L 945 633.5 L 942.5 634 L 942.5 633 Z " /><path fill="rgb(232,251,203)" stroke="rgb(232,251,203)" stroke-width="1" opacity="1" d="M 1405.5 633 L 1406.5 635 L 1405.5 633 Z " /><path fill="rgb(232,251,203)" stroke="rgb(232,251,203)" stroke-width="1" opacity="1" d="M 616.5 634 L 619 634.5 L 616.5 635 L 616.5 634 Z " /><path fill="rgb(232,251,203)" stroke="rgb(232,251,203)" stroke-width="1" opacity="1" d="M 935.5 634 L 939 634.5 L 935.5 635 L 935.5 634 Z " /><path fill="rgb(232,251,203)" stroke="rgb(232,251,203)" stroke-width="1" opacity="1" d="M 1232.5 634 L 1235.5 638 L 1232.5 634 Z " /><path fill="rgb(232,251,203)" stroke="rgb(232,251,203)" stroke-width="1" opacity="1" d="M 1358.5 634 L 1359.5 636 L 1358.5 634 Z " /><path fill="rgb(232,251,203)" stroke="rgb(232,251,203)" stroke-width="1" opacity="1" d="M 1375.5 634 L 1372.5 638 L 1375.5 634 Z " /><path fill="rgb(232,251,203)" stroke="rgb(232,251,203)" stroke-width="1" opacity="1" d="M 1398.5 634 L 1396.5 637 L 1398.5 634 Z " /><path fill="rgb(232,251,203)" stroke="rgb(232,251,203)" stroke-width="1" opacity="1" d="M 852.5 635 L 856 635.5 L 852.5 636 L 852.5 635 Z " /><path fill="rgb(232,251,203)" stroke="rgb(232,251,203)" stroke-width="1" opacity="1" d="M 929.5 635 L 932 635.5 L 929.5 636 L 929.5 635 Z " /><path fill="rgb(232,251,203)" stroke="rgb(232,251,203)" stroke-width="1" opacity="1" d="M 1293.5 635 L 1294 644.5 L 1293 644.5 L 1293.5 635 Z " /><path fill="rgb(232,251,203)" stroke="rgb(232,251,203)" stroke-width="1" opacity="1" d="M 1339.5 635 L 1342.5 639 L 1339.5 635 Z " /><path fill="rgb(232,251,203)" stroke="rgb(232,251,203)" stroke-width="1" opacity="1" d="M 860.5 636 L 864 636.5 L 860.5 637 L 860.5 636 Z " /><path fill="rgb(232,251,203)" stroke="rgb(232,251,203)" stroke-width="1" opacity="1" d="M 919.5 636 L 925 636.5 L 919.5 637 L 919.5 636 Z " /><path fill="rgb(232,251,203)" stroke="rgb(232,251,203)" stroke-width="1" opacity="1" d="M 629.5 637 L 632 637.5 L 629.5 638 L 629.5 637 Z " /><path fill="rgb(232,251,203)" stroke="rgb(232,251,203)" stroke-width="1" opacity="1" d="M 869.5 637 L 873 637.5 L 869.5 638 L 869.5 637 Z " /><path fill="rgb(232,251,203)" stroke="rgb(232,251,203)" stroke-width="1" opacity="1" d="M 909.5 637 L 915 637.5 L 909.5 638 L 909.5 637 Z " /><path fill="rgb(232,251,203)" stroke="rgb(232,251,203)" stroke-width="1" opacity="1" d="M 1394.5 637 L 1392.5 640 L 1394.5 637 Z " /><path fill="rgb(232,251,203)" stroke="rgb(232,251,203)" stroke-width="1" opacity="1" d="M 635.5 638 L 638 638.5 L 635.5 639 L 635.5 638 Z " /><path fill="rgb(232,251,203)" stroke="rgb(232,251,203)" stroke-width="1" opacity="1" d="M 882.5 638 L 904 638.5 L 882.5 639 L 882.5 638 Z " /><path fill="rgb(232,251,203)" stroke="rgb(232,251,203)" stroke-width="1" opacity="1" d="M 1237.5 638 L 1239.5 641 L 1237.5 638 Z " /><path fill="rgb(232,251,203)" stroke="rgb(232,251,203)" stroke-width="1" opacity="1" d="M 1370.5 638 L 1367.5 642 L 1370.5 638 Z " /><path fill="rgb(232,251,203)" stroke="rgb(232,251,203)" stroke-width="1" opacity="1" d="M 641.5 639 L 644 639.5 L 641.5 640 L 641.5 639 Z " /><path fill="rgb(232,251,203)" stroke="rgb(232,251,203)" stroke-width="1" opacity="1" d="M 1404.5 639 L 1400.5 644 L 1404.5 639 Z " /><path fill="rgb(232,251,203)" stroke="rgb(232,251,203)" stroke-width="1" opacity="1" d="M 647.5 640 L 650 640.5 L 647.5 641 L 647.5 640 Z " /><path fill="rgb(232,251,203)" stroke="rgb(232,251,203)" stroke-width="1" opacity="1" d="M 1345.5 640 L 1347.5 643 L 1345.5 640 Z " /><path fill="rgb(232,251,203)" stroke="rgb(232,251,203)" stroke-width="1" opacity="1" d="M 1390.5 640 L 1388.5 643 L 1390.5 640 Z " /><path fill="rgb(232,251,203)" stroke="rgb(232,251,203)" stroke-width="1" opacity="1" d="M 654.5 641 L 657 641.5 L 654.5 642 L 654.5 641 Z " /><path fill="rgb(232,251,203)" stroke="rgb(232,251,203)" stroke-width="1" opacity="1" d="M 1303.5 641 L 1295.5 650 L 1303.5 641 Z " /><path fill="rgb(232,251,203)" stroke="rgb(232,251,203)" stroke-width="1" opacity="1" d="M 661.5 642 L 667 642.5 L 661.5 643 L 661.5 642 Z " /><path fill="rgb(232,251,203)" stroke="rgb(232,251,203)" stroke-width="1" opacity="1" d="M 1242.5 642 L 1244.5 645 L 1242.5 642 Z " /><path fill="rgb(232,251,203)" stroke="rgb(232,251,203)" stroke-width="1" opacity="1" d="M 673.5 643 L 676 643.5 L 673.5 644 L 673.5 643 Z " /><path fill="rgb(232,251,203)" stroke="rgb(232,251,203)" stroke-width="1" opacity="1" d="M 1364.5 643 L 1361.5 647 L 1364.5 643 Z " /><path fill="rgb(232,251,203)" stroke="rgb(232,251,203)" stroke-width="1" opacity="1" d="M 1350.5 644 L 1353.5 648 L 1350.5 644 Z " /><path fill="rgb(232,251,203)" stroke="rgb(232,251,203)" stroke-width="1" opacity="1" d="M 1385.5 644 L 1383.5 647 L 1385.5 644 Z " /><path fill="rgb(232,251,203)" stroke="rgb(232,251,203)" stroke-width="1" opacity="1" d="M 1398.5 644 L 1396.5 647 L 1398.5 644 Z " /><path fill="rgb(232,251,203)" stroke="rgb(232,251,203)" stroke-width="1" opacity="1" d="M 1246.5 645 L 1248.5 648 L 1246.5 645 Z " /><path fill="rgb(232,251,203)" stroke="rgb(232,251,203)" stroke-width="1" opacity="1" d="M 1359.5 647 L 1357.5 650 L 1356 649.5 L 1359.5 647 Z " /><path fill="rgb(232,251,203)" stroke="rgb(232,251,203)" stroke-width="1" opacity="1" d="M 1289.5 648 L 1284.5 654 L 1289.5 648 Z " /><path fill="rgb(232,251,203)" stroke="rgb(232,251,203)" stroke-width="1" opacity="1" d="M 1380.5 648 L 1378.5 651 L 1380.5 648 Z " /><path fill="rgb(232,251,203)" stroke="rgb(232,251,203)" stroke-width="1" opacity="1" d="M 1393.5 648 L 1391.5 651 L 1393.5 648 Z " /><path fill="rgb(232,251,203)" stroke="rgb(232,251,203)" stroke-width="1" opacity="1" d="M 1251.5 649 L 1253.5 652 L 1251.5 649 Z " /><path fill="rgb(232,251,203)" stroke="rgb(232,251,203)" stroke-width="1" opacity="1" d="M 710.5 650 L 713 650.5 L 710.5 651 L 710.5 650 Z " /><path fill="rgb(232,251,203)" stroke="rgb(232,251,203)" stroke-width="1" opacity="1" d="M 716.5 651 L 720 651.5 L 716.5 652 L 716.5 651 Z " /><path fill="rgb(232,251,203)" stroke="rgb(232,251,203)" stroke-width="1" opacity="1" d="M 1376.5 651 L 1373.5 655 L 1376.5 651 Z " /><path fill="rgb(232,251,203)" stroke="rgb(232,251,203)" stroke-width="1" opacity="1" d="M 1389.5 651 L 1386.5 655 L 1389.5 651 Z " /><path fill="rgb(232,251,203)" stroke="rgb(232,251,203)" stroke-width="1" opacity="1" d="M 1419.5 651 L 1424 651.5 L 1419.5 652 L 1419.5 651 Z " /><path fill="rgb(232,251,203)" stroke="rgb(232,251,203)" stroke-width="1" opacity="1" d="M 725.5 652 L 729 652.5 L 725.5 653 L 725.5 652 Z " /><path fill="rgb(232,251,203)" stroke="rgb(232,251,203)" stroke-width="1" opacity="1" d="M 1255.5 652 L 1256.5 654 L 1255.5 652 Z " /><path fill="rgb(232,251,203)" stroke="rgb(232,251,203)" stroke-width="1" opacity="1" d="M 1428.5 652 Q 1432 653 1431 658.5 L 1430 658.5 L 1429.5 654 L 1429 658.5 L 1423 668.5 L 1425 668.5 L 1421 670.5 L 1419 678.5 L 1418 715.5 L 1420 723.5 L 1420 733.5 L 1417 737.5 L 1417.5 739 Q 1416.3 736.8 1415 739.5 L 1415.5 741 L 1417 740.5 L 1415.5 746 L 1414.5 741 L 1414 746.5 L 1415 747.5 L 1415.5 756 L 1416.5 749 L 1417 755.5 L 1416 759.5 L 1420.5 769 L 1422 768.5 L 1421 770.5 Q 1423 768.8 1425 772.5 L 1422 771.5 L 1424.5 775 L 1426 774.5 Q 1423.8 775.8 1426.5 777 L 1428 776.5 L 1427.5 775 L 1429.5 779 L 1431 778.5 L 1430.5 777 L 1431.5 780 L 1433.5 779 L 1433.5 781 L 1442.5 785 L 1445 780.5 L 1444.5 779 L 1446 779.5 L 1445 777.5 L 1446.5 778 L 1452.5 780 L 1454 779.5 L 1453.5 781 L 1455.5 780 L 1455.5 782 L 1457.5 781 L 1457.5 783 L 1459.5 782 L 1459.5 784 L 1461.5 783 L 1461.5 785 L 1463.5 784 L 1463.5 786 L 1469.5 782 L 1474.5 784 L 1474.5 782 L 1475.5 785 L 1478.5 786 L 1478.5 784 Q 1481.3 785.3 1479 786.5 L 1482.5 790 L 1484 789.5 L 1482.5 787 Q 1485.9 791.6 1492.5 793 L 1492.5 791 L 1494 792.5 L 1493 795.5 L 1491 800.5 L 1493.5 804 L 1500.5 807 L 1501.5 804 Q 1503 806.5 1504.5 803 L 1507 802.5 L 1506.5 801 L 1508.5 805 L 1511 806.5 L 1507 813.5 L 1509 813.5 L 1505 815.5 L 1505.5 817 L 1507 816.5 L 1506 818.5 L 1508 818.5 L 1507 820.5 L 1512.5 825 L 1512.5 823 L 1514.5 827 L 1524.5 831 L 1524.5 830 L 1523 829.5 L 1525.5 828 L 1525.5 830 L 1534 832 L 1532 839.5 L 1535 840.5 Q 1532.7 841.8 1535.5 843 L 1538.5 844 L 1538.5 842 L 1540.5 846 L 1545.5 848 L 1547 847.5 Q 1544.8 848.8 1547.5 850 L 1550.5 851 L 1550.5 849 L 1552.5 853 L 1555.5 854 L 1555.5 852 L 1557.5 856 L 1560.5 857 L 1560.5 855 L 1562.5 859 L 1565.5 860 L 1565.5 858 L 1567.5 862 L 1569 861.5 L 1568.5 860 L 1570.5 864 L 1572 863.5 L 1571.5 862 L 1574.5 867 L 1576 866.5 L 1575.5 865 L 1577.5 869 L 1583.5 871 L 1585 870.5 L 1584.5 872 L 1591.5 875 L 1599.5 875 L 1608.5 878 L 1608.5 876 L 1610.5 880 L 1612 879.5 L 1611.5 878 L 1613.5 882 L 1615 881.5 L 1614.5 880 L 1616.5 884 L 1619.5 885 L 1621 884.5 Q 1618.8 885.8 1621.5 887 L 1623 886.5 L 1622.5 885 Q 1625.3 886.3 1623 887.5 L 1626.5 891 L 1628 890.5 L 1626.5 888 L 1630.5 894 L 1632 893.5 L 1631.5 892 L 1634.5 897 L 1636 896.5 L 1635.5 895 L 1637.5 899 L 1639 898.5 L 1638.5 897 L 1641.5 902 L 1646.5 904 L 1646.5 902 L 1647.5 905 L 1660.5 910 L 1662.5 909 L 1662.5 910 L 1661 910.5 L 1669.5 914 L 1687.5 916 L 1687.5 914 Q 1690.3 915.2 1688 916.5 L 1693.5 922 L 1714.5 931 L 1716 930.5 Q 1713.7 931.8 1716.5 933 L 1719.5 934 L 1719.5 932 L 1720.5 935 L 1722.5 934 L 1723.5 937 L 1726.5 938 L 1726.5 936 L 1727.5 939 L 1737.5 943 L 1739 942.5 L 1738.5 944 L 1740.5 943 L 1740.5 945 L 1742.5 944 L 1743.5 947 L 1748.5 949 L 1750 948.5 L 1749.5 950 L 1781.5 962 L 1826.5 970 L 1852.5 972 L 1853.5 973 L 1877.5 975 L 1886.5 977 L 1917.5 977 L 1919 973.5 L 1919.5 972 L 1920.5 974 L 1922 968 L 1943.5 970 L 1952.5 976 L 1982.5 983 L 1989.5 986 L 1991 985.5 Q 1988.7 986.8 1991.5 988 L 1994.5 989 L 1996 988.5 Q 1993.8 989.7 1996.5 991 L 2000.5 993 L 2000.5 991 L 2003.5 996 L 2005 995.5 L 2004.5 994 L 2008.5 1000 L 2010 999.5 L 2008.5 997 L 2013.5 1004 L 2015 1003.5 L 2013.5 1001 L 2018.5 1008 L 2020 1007.5 L 2019.5 1006 L 2023.5 1012 L 2027.5 1014 L 2067 1014 L 2067 1018 L 2059.5 1018 L 2058.5 1017 L 2050 1017 Q 2048.3 1020.5 2049 1027.5 L 2052.5 1039 L 2053.5 1037 L 2054 1038.5 L 2053 1040.5 L 2056 1041.5 L 2054 1041.5 L 2055.5 1044 L 2056.5 1043 L 2066 1052.5 Q 2063.8 1053.8 2066.5 1055 L 2068 1055.5 L 2068 1062.5 L 2067 1063.5 L 2065 1102.5 L 2066 1102.5 L 2066.5 1098 L 2067 1102.5 Q 2065.8 1105.3 2064.5 1103 Q 2061.5 1102.1 2063 1106.5 L 2062 1107.5 L 2060 1134.5 L 2058.5 1137 L 2057 1134.5 L 2057 1108.5 L 2058 1107.5 L 2058 1096.5 L 2059 1095.5 L 2059 1086.5 L 2061 1075.5 L 2061 1055.5 L 2060 1055.5 L 2059.5 1073 L 2059 1055.5 L 2060 1052.5 L 2057 1051.5 L 2058 1050.5 L 2054.5 1047 L 2046.5 1044 L 2046.5 1046 L 2044.5 1042 L 2018.5 1035 L 1988.5 1029 L 1968.5 1027 L 1961.5 1025 L 1945.5 1025 L 1938 1027.5 L 1940 1028.5 L 1938.5 1029 L 1937.5 1028 L 1927.5 1028 L 1905.5 1021 L 1903.5 1022 L 1903.5 1021 L 1905 1020.5 L 1878.5 1010 L 1852.5 1003 L 1846.5 1003 L 1813.5 996 L 1803.5 993 L 1791.5 987 L 1791.5 989 L 1789.5 985 L 1783.5 983 L 1782 983.5 L 1782.5 982 L 1752.5 972 L 1750.5 973 L 1750.5 972 L 1752 971.5 L 1736.5 966 L 1707.5 961 L 1691.5 955 L 1691.5 957 L 1689.5 953 L 1688 953.5 L 1688.5 955 L 1686.5 951 L 1685 951.5 L 1685.5 953 L 1683.5 949 L 1682 949.5 L 1682.5 951 L 1680.5 947 L 1679 947.5 L 1679.5 949 L 1678.5 946 L 1676.5 947 L 1676.5 945 L 1674.5 946 L 1674.5 944 L 1672.5 945 L 1672.5 943 L 1661.5 938 L 1660 938.5 Q 1662.2 937.3 1659.5 936 L 1653.5 934 L 1652 934.5 L 1652.5 933 L 1650.5 934 L 1650.5 932 L 1647.5 933 L 1645.5 929 L 1642.5 928 L 1641 928.5 Q 1643.3 927.3 1640.5 926 L 1627.5 921 L 1591.5 919 L 1588.5 924 L 1578.5 921 L 1576.5 922 L 1576.5 921 L 1578 920.5 L 1544.5 908 L 1542.5 909 L 1542.5 908 L 1544 907.5 Q 1515.5 895 1483.5 886 L 1481.5 887 L 1481.5 886 L 1483 885.5 L 1476.5 883 L 1474.5 884 L 1474.5 883 L 1476 882.5 L 1471.5 882 L 1471.5 883 L 1473 883.5 L 1471.5 884 L 1469.5 883 L 1470 884.5 L 1464.5 890 L 1467.5 885 L 1460 891.5 L 1461 893.5 L 1458 894.5 L 1458.5 896 L 1460 895.5 L 1457 896.5 L 1458 899.5 L 1457 899.5 L 1456.5 898 L 1455 901.5 L 1454 918.5 L 1455 918.5 L 1455.5 917 L 1456 918.5 Q 1453.8 923.2 1451.5 919 L 1449 917.5 L 1446.5 911 L 1445.5 913 L 1445 911.5 L 1446 907.5 L 1444.5 904 L 1443.5 906 L 1443 904.5 L 1444 901.5 L 1443 901.5 L 1442.5 903 L 1442 901.5 L 1443 897.5 L 1441.5 894 L 1440.5 896 L 1440 894.5 L 1441 891.5 L 1440 891.5 L 1439.5 893 L 1439 891.5 L 1440 887.5 L 1438.5 884 L 1437.5 886 L 1437 884.5 L 1438 880.5 L 1437 880.5 L 1436.5 883 L 1436 880.5 L 1437 876.5 L 1435.5 873 L 1434.5 875 L 1434 873.5 L 1435 869.5 L 1432.5 862 L 1431.5 864 L 1431 862.5 Q 1433.3 861.3 1430.5 860 L 1411.5 853 L 1410 853.5 L 1410.5 852 L 1379.5 840 L 1363.5 837 L 1359 840.5 Q 1361.3 841.8 1358.5 843 L 1357 842.5 L 1359 841.5 L 1356.5 841 L 1352.5 842 L 1345.5 840 L 1343 843.5 L 1351 847 Q 1352.3 850 1348.5 849 L 1337 844.5 Q 1338.2 842 1342 843 L 1342 839 L 1340.5 839 L 1316.5 830 L 1316.5 832 Q 1313.7 830.8 1316 829.5 L 1315.5 825 L 1314.5 829 L 1314 825.5 L 1319 822.5 L 1316.5 818 L 1296.5 813 L 1280.5 813 L 1277.5 821 L 1267.5 822 L 1264.5 821 L 1263 822.5 Q 1263.9 828.9 1261.5 832 L 1261 828.5 Q 1263.5 827 1262 821.5 L 1261 821.5 L 1260.5 827 L 1259 821.5 L 1261 820.5 L 1221.5 809 L 1213 831.5 L 1213 842.5 L 1214 842.5 L 1214.5 832 L 1215 842.5 L 1216 843.5 L 1214 843.5 Q 1213.3 845.8 1215.5 845 L 1227.5 851 Q 1233.7 849.3 1235.5 852 L 1265.5 852 L 1272.5 854 L 1274.5 856 Q 1275.7 853.8 1277 856.5 L 1275 856.5 L 1276.5 863 L 1277.5 861 L 1278 862.5 Q 1276.7 865.2 1275.5 863 L 1272.5 866 L 1268.5 866 L 1260.5 863 L 1244.5 863 L 1242.5 862 L 1242.5 864 L 1240.5 860 L 1238.5 861 L 1238.5 859 L 1236.5 860 L 1236.5 858 L 1234.5 859 L 1234.5 857 L 1232.5 858 L 1232.5 856 L 1196.5 843 L 1194.5 844 L 1194.5 843 L 1196 842.5 L 1189 838.5 L 1191 827.5 L 1196 814.5 L 1195 812.5 L 1196 812.5 L 1196.5 814 L 1199 807.5 L 1197.5 804 L 1190 802 L 1198 776.5 L 1198 774.5 L 1203 754.5 L 1200 753 Q 1200.7 741.1 1205 731.5 L 1203 731 L 1198 753.5 L 1202 755.5 L 1189 798 L 1186 796.5 L 1187 794.5 Q 1185.3 791.3 1180.5 791 L 1176.5 799 L 1173.5 800 L 1173.5 799 L 1175 798.5 L 1170.5 797 L 1168.5 798 L 1168.5 797 Q 1171.9 797.9 1170 792.5 L 1171 790.5 L 1169.5 789 L 1154.5 785 L 1152.5 788 L 1124.5 779 L 1123 777.5 L 1124 772 L 1111 770 L 1110 775 L 1093.5 771 L 1089 768.5 L 1090 762.5 L 1088.5 761 L 1073.5 758 L 1071 763 L 1067 761.5 L 1068 755 L 1058 754 L 1057 759 L 1048.5 757 L 1023.5 754 L 1004.5 746 L 1004.5 748 L 1003.5 745 L 1001.5 746 L 1000.5 743 L 997.5 742 L 996 742.5 Q 998.3 741.2 995.5 740 L 992.5 739 L 992.5 741 L 990.5 737 L 987.5 736 L 986 736.5 Q 988.3 735.2 985.5 734 L 984 734.5 L 984.5 736 L 982.5 732 L 981 732.5 L 981.5 734 L 978.5 729 L 977 729.5 L 978.5 732 L 972.5 725 L 976 727.5 L 971.5 722 L 946.5 712 L 907.5 701 L 905.5 702 L 905.5 701 L 907 700.5 L 864.5 685 L 833.5 683 L 829.5 688 L 826 686.5 Q 827 682 824.5 681 L 823 681.5 Q 825.3 680.3 822.5 679 L 812.5 678 L 808.5 683 L 802 681 L 810 654.5 L 811.5 653 L 820.5 654 L 837.5 659 L 842.5 659 L 854.5 662 L 909.5 668 L 910.5 669 L 933.5 672 L 957.5 680 L 974.5 684 L 983.5 684 L 997.5 687 L 1030.5 691 L 1054.5 699 L 1064.5 704 L 1070.5 705 L 1073.5 708 L 1079 708 L 1080 705.5 L 1080 690.5 L 1079 689.5 L 1079 677.5 L 1081 673 L 1089.5 673 L 1117.5 678 L 1126.5 683 L 1141.5 683 L 1153.5 691 L 1170.5 692 Q 1171.7 689.8 1176.5 691 Q 1197.6 696.9 1214 707.5 L 1207 722.5 L 1205 730.5 L 1207 729.5 L 1212 714.5 L 1216.5 708 L 1253.5 726 L 1260.5 732 L 1277.5 739 Q 1283.3 746.2 1293 748 L 1301 730 L 1315.5 740 L 1321.5 742 L 1333 723 L 1365.5 750 L 1367.5 750 L 1387.5 727 L 1394 721.5 L 1393 720.5 L 1397.5 716 L 1396.5 719 L 1402 714.5 L 1401 713.5 L 1405 709.5 L 1405.5 702 L 1406 709.5 L 1404.5 712 L 1407 710.5 L 1405 670.5 L 1404 667.5 L 1405 664.5 L 1404.5 663 L 1405.5 664 L 1409 660.5 Q 1406.3 658.8 1410.5 657 L 1410.5 659 L 1414 656.5 Q 1411.3 654.8 1415.5 653 L 1414.5 656 L 1418.5 653 L 1427.5 653 L 1428.5 652 Z M 1470 783 L 1466 786 L 1466 787 Q 1469 788 1470 785 L 1470 783 Z M 2060 1047 L 2059 1049 L 2065 1053 L 2060 1047 Z " /><path fill="rgb(232,251,203)" stroke="rgb(232,251,203)" stroke-width="1" opacity="1" d="M 1291.5 654 L 1291 655.5 L 1293 658.5 L 1290 656.5 L 1291.5 654 Z " /><path fill="rgb(232,251,203)" stroke="rgb(232,251,203)" stroke-width="1" opacity="1" d="M 1259.5 655 L 1260.5 657 L 1259.5 655 Z " /><path fill="rgb(232,251,203)" stroke="rgb(232,251,203)" stroke-width="1" opacity="1" d="M 1371.5 655 L 1368.5 659 L 1371.5 655 Z " /><path fill="rgb(232,251,203)" stroke="rgb(232,251,203)" stroke-width="1" opacity="1" d="M 1384.5 655 L 1382.5 658 L 1384.5 655 Z " /><path fill="rgb(232,251,203)" stroke="rgb(232,251,203)" stroke-width="1" opacity="1" d="M 743.5 656 L 744.5 658 L 743.5 656 Z " /><path fill="rgb(232,251,203)" stroke="rgb(232,251,203)" stroke-width="1" opacity="1" d="M 1262.5 657 L 1263.5 659 L 1262.5 657 Z " /><path fill="rgb(232,251,203)" stroke="rgb(232,251,203)" stroke-width="1" opacity="1" d="M 1294.5 659 L 1295.5 661 L 1294.5 659 Z " /><path fill="rgb(232,251,203)" stroke="rgb(232,251,203)" stroke-width="1" opacity="1" d="M 1366.5 659 L 1363.5 663 L 1366.5 659 Z " /><path fill="rgb(232,251,203)" stroke="rgb(232,251,203)" stroke-width="1" opacity="1" d="M 1379.5 659 L 1377.5 662 L 1379.5 659 Z " /><path fill="rgb(232,251,203)" stroke="rgb(232,251,203)" stroke-width="1" opacity="1" d="M 1266.5 660 L 1267.5 662 L 1266.5 660 Z " /><path fill="rgb(232,251,203)" stroke="rgb(232,251,203)" stroke-width="1" opacity="1" d="M 1282.5 660 L 1283 663.5 L 1282 663.5 L 1282.5 660 Z " /><path fill="rgb(232,251,203)" stroke="rgb(232,251,203)" stroke-width="1" opacity="1" d="M 1297.5 661 L 1299.5 664 L 1297.5 661 Z " /><path fill="rgb(232,251,203)" stroke="rgb(232,251,203)" stroke-width="1" opacity="1" d="M 1269.5 662 L 1270.5 664 L 1269.5 662 Z " /><path fill="rgb(232,251,203)" stroke="rgb(232,251,203)" stroke-width="1" opacity="1" d="M 1375.5 662 L 1373.5 665 L 1375.5 662 Z " /><path fill="rgb(232,251,203)" stroke="rgb(232,251,203)" stroke-width="1" opacity="1" d="M 1361.5 663 L 1359.5 666 L 1361.5 663 Z " /><path fill="rgb(232,251,203)" stroke="rgb(232,251,203)" stroke-width="1" opacity="1" d="M 1301.5 664 L 1302.5 666 L 1301.5 664 Z " /><path fill="rgb(232,251,203)" stroke="rgb(232,251,203)" stroke-width="1" opacity="1" d="M 1273.5 665 L 1275.5 668 L 1273.5 665 Z " /><path fill="rgb(232,251,203)" stroke="rgb(232,251,203)" stroke-width="1" opacity="1" d="M 1304.5 666 L 1306.5 669 L 1304.5 666 Z " /><path fill="rgb(232,251,203)" stroke="rgb(232,251,203)" stroke-width="1" opacity="1" d="M 1357.5 666 L 1354.5 670 L 1357.5 666 Z " /><path fill="rgb(232,251,203)" stroke="rgb(232,251,203)" stroke-width="1" opacity="1" d="M 1370.5 666 L 1368.5 669 L 1370.5 666 Z " /><path fill="rgb(232,251,203)" stroke="rgb(232,251,203)" stroke-width="1" opacity="1" d="M 1308.5 669 L 1309.5 671 L 1308.5 669 Z " /><path fill="rgb(232,251,203)" stroke="rgb(232,251,203)" stroke-width="1" opacity="1" d="M 1366.5 669 L 1364.5 672 L 1366.5 669 Z " /><path fill="rgb(232,251,203)" stroke="rgb(232,251,203)" stroke-width="1" opacity="1" d="M 1352.5 670 L 1350.5 673 L 1352.5 670 Z " /><path fill="rgb(232,251,203)" stroke="rgb(232,251,203)" stroke-width="1" opacity="1" d="M 1311.5 671 L 1313.5 674 L 1311.5 671 Z " /><path fill="rgb(232,251,203)" stroke="rgb(232,251,203)" stroke-width="1" opacity="1" d="M 1362.5 672 L 1360.5 675 L 1362.5 672 Z " /><path fill="rgb(232,251,203)" stroke="rgb(232,251,203)" stroke-width="1" opacity="1" d="M 1403.5 672 L 1404 679.5 L 1403 679.5 L 1403.5 672 Z " /><path fill="rgb(232,251,203)" stroke="rgb(232,251,203)" stroke-width="1" opacity="1" d="M 1348.5 673 L 1346.5 676 L 1348.5 673 Z " /><path fill="rgb(232,251,203)" stroke="rgb(232,251,203)" stroke-width="1" opacity="1" d="M 1315.5 674 L 1316.5 676 L 1315.5 674 Z " /><path fill="rgb(232,251,203)" stroke="rgb(232,251,203)" stroke-width="1" opacity="1" d="M 1318.5 676 L 1320.5 679 L 1318.5 676 Z " /><path fill="rgb(232,251,203)" stroke="rgb(232,251,203)" stroke-width="1" opacity="1" d="M 1357.5 676 L 1355.5 679 L 1357.5 676 Z " /><path fill="rgb(232,251,203)" stroke="rgb(232,251,203)" stroke-width="1" opacity="1" d="M 1343.5 677 L 1341.5 680 L 1343.5 677 Z " /><path fill="rgb(232,251,203)" stroke="rgb(232,251,203)" stroke-width="1" opacity="1" d="M 815.5 679 L 818 679.5 L 815.5 680 L 815.5 679 Z " /><path fill="rgb(232,251,203)" stroke="rgb(232,251,203)" stroke-width="1" opacity="1" d="M 1322.5 679 L 1323.5 681 L 1322.5 679 Z " /><path fill="rgb(232,251,203)" stroke="rgb(232,251,203)" stroke-width="1" opacity="1" d="M 1353.5 679 L 1351.5 682 L 1353.5 679 Z " /><path fill="rgb(232,251,203)" stroke="rgb(232,251,203)" stroke-width="1" opacity="1" d="M 1339.5 680 L 1337.5 683 L 1339.5 680 Z " /><path fill="rgb(232,251,203)" stroke="rgb(232,251,203)" stroke-width="1" opacity="1" d="M 1325.5 681 L 1326.5 683 L 1325.5 681 Z " /><path fill="rgb(232,251,203)" stroke="rgb(232,251,203)" stroke-width="1" opacity="1" d="M 1420.5 681 L 1421 695.5 L 1420 695.5 L 1420.5 681 Z " /><path fill="rgb(232,251,203)" stroke="rgb(232,251,203)" stroke-width="1" opacity="1" d="M 1349.5 682 L 1347.5 685 L 1349.5 682 Z " /><path fill="rgb(232,251,203)" stroke="rgb(232,251,203)" stroke-width="1" opacity="1" d="M 824.5 683 L 825 686.5 L 824 686.5 L 824.5 683 Z " /><path fill="rgb(232,251,203)" stroke="rgb(232,251,203)" stroke-width="1" opacity="1" d="M 1335.5 683 L 1334.5 685 L 1335.5 683 Z " /><path fill="rgb(232,251,203)" stroke="rgb(232,251,203)" stroke-width="1" opacity="1" d="M 834.5 684 L 840 684.5 Q 834.2 683.7 832.5 687 L 834.5 684 Z " /><path fill="rgb(232,251,203)" stroke="rgb(232,251,203)" stroke-width="1" opacity="1" d="M 1329.5 684 L 1330.5 686 L 1329.5 684 Z " /><path fill="rgb(232,251,203)" stroke="rgb(232,251,203)" stroke-width="1" opacity="1" d="M 848.5 685 L 855 685.5 L 848.5 686 L 848.5 685 Z " /><path fill="rgb(232,251,203)" stroke="rgb(232,251,203)" stroke-width="1" opacity="1" d="M 860.5 686 L 863 686.5 L 860.5 687 L 860.5 686 Z " /><path fill="rgb(232,251,203)" stroke="rgb(232,251,203)" stroke-width="1" opacity="1" d="M 1345.5 686 L 1358.5 700 L 1345.5 686 Z " /><path fill="rgb(232,251,203)" stroke="rgb(232,251,203)" stroke-width="1" opacity="1" d="M 1404.5 687 L 1405 694.5 L 1404 694.5 L 1404.5 687 Z " /><path fill="rgb(232,251,203)" stroke="rgb(232,251,203)" stroke-width="1" opacity="1" d="M 831.5 688 L 830.5 690 L 828 689.5 L 831.5 688 Z " /><path fill="rgb(232,251,203)" stroke="rgb(232,251,203)" stroke-width="1" opacity="1" d="M 1419.5 704 L 1420 713.5 L 1419 713.5 L 1419.5 704 Z " /><path fill="rgb(232,251,203)" stroke="rgb(232,251,203)" stroke-width="1" opacity="1" d="M 1371.5 711 L 1385.5 726 L 1371.5 711 Z " /><path fill="rgb(232,251,203)" stroke="rgb(232,251,203)" stroke-width="1" opacity="1" d="M 1420.5 719 L 1421 721.5 L 1420 721.5 L 1420.5 719 Z " /><path fill="rgb(232,251,203)" stroke="rgb(232,251,203)" stroke-width="1" opacity="1" d="M 1389.5 723 L 1387.5 726 L 1389.5 723 Z " /><path fill="rgb(232,251,203)" stroke="rgb(232,251,203)" stroke-width="1" opacity="1" d="M 1421.5 725 L 1422 728.5 L 1421 728.5 L 1421.5 725 Z " /><path fill="rgb(232,251,203)" stroke="rgb(232,251,203)" stroke-width="1" opacity="1" d="M 1024.5 755 L 1027 755.5 L 1024.5 756 L 1024.5 755 Z " /><path fill="rgb(232,251,203)" stroke="rgb(232,251,203)" stroke-width="1" opacity="1" d="M 1030.5 756 L 1033 756.5 L 1030.5 757 L 1030.5 756 Z " /><path fill="rgb(232,251,203)" stroke="rgb(232,251,203)" stroke-width="1" opacity="1" d="M 1037.5 757 L 1040 757.5 L 1037.5 758 L 1037.5 757 Z " /><path fill="rgb(232,251,203)" stroke="rgb(232,251,203)" stroke-width="1" opacity="1" d="M 1044.5 758 L 1048 758.5 L 1044.5 759 L 1044.5 758 Z " /><path fill="rgb(232,251,203)" stroke="rgb(232,251,203)" stroke-width="1" opacity="1" d="M 1121.5 777 L 1123 779.5 L 1121 778.5 L 1121.5 777 Z " /><path fill="rgb(232,251,203)" stroke="rgb(232,251,203)" stroke-width="1" opacity="1" d="M 1184.5 797 L 1185.5 799 Q 1182.7 799.7 1184.5 797 Z " /><path fill="rgb(232,251,203)" stroke="rgb(232,251,203)" stroke-width="1" opacity="1" d="M 1493.5 801 L 1494.5 803 L 1493.5 801 Z " /><path fill="rgb(232,251,203)" stroke="rgb(232,251,203)" stroke-width="1" opacity="1" d="M 1511.5 804 L 1512.5 806 L 1511.5 804 Z " /><path fill="rgb(232,251,203)" stroke="rgb(232,251,203)" stroke-width="1" opacity="1" d="M 1285.5 814 L 1296 814.5 L 1285.5 815 L 1285.5 814 Z " /><path fill="rgb(232,251,203)" stroke="rgb(232,251,203)" stroke-width="1" opacity="1" d="M 1280.5 815 L 1281 817.5 L 1280 817.5 L 1280.5 815 Z " /><path fill="rgb(232,251,203)" stroke="rgb(232,251,203)" stroke-width="1" opacity="1" d="M 1315.5 819 L 1316.5 821 L 1315.5 819 Z " /><path fill="rgb(232,251,203)" stroke="rgb(232,251,203)" stroke-width="1" opacity="1" d="M 1274.5 822 L 1279 822.5 L 1274.5 823 L 1274.5 822 Z " /><path fill="rgb(232,251,203)" stroke="rgb(232,251,203)" stroke-width="1" opacity="1" d="M 1264.5 823 L 1265 825.5 L 1264 825.5 L 1264.5 823 Z " /><path fill="rgb(232,251,203)" stroke="rgb(232,251,203)" stroke-width="1" opacity="1" d="M 1259.5 831 L 1261 833.5 L 1259 832.5 L 1259.5 831 Z " /><path fill="rgb(232,251,203)" stroke="rgb(232,251,203)" stroke-width="1" opacity="1" d="M 1263.5 831 L 1264 832.5 L 1262 833.5 L 1263.5 831 Z " /><path fill="rgb(232,251,203)" stroke="rgb(232,251,203)" stroke-width="1" opacity="1" d="M 1187.5 835 L 1189 840.5 L 1187 839.5 L 1187.5 835 Z " /><path fill="rgb(232,251,203)" stroke="rgb(232,251,203)" stroke-width="1" opacity="1" d="M 1364.5 838 L 1367 838.5 L 1364.5 839 L 1364.5 838 Z " /><path fill="rgb(232,251,203)" stroke="rgb(232,251,203)" stroke-width="1" opacity="1" d="M 1337.5 841 L 1339 841.5 L 1336.5 843 L 1337.5 841 Z " /><path fill="rgb(232,251,203)" stroke="rgb(232,251,203)" stroke-width="1" opacity="1" d="M 1335.5 845 L 1338 846.5 L 1336.5 847 L 1335.5 845 Z " /><path fill="rgb(232,251,203)" stroke="rgb(232,251,203)" stroke-width="1" opacity="1" d="M 1298.5 847 L 1298.5 849 L 1300.5 848 L 1307.5 851 L 1307.5 849 L 1308.5 852 L 1310.5 851 L 1311.5 854 L 1327.5 861 L 1327.5 859 L 1328.5 862 L 1330.5 861 L 1331.5 864 L 1333 863.5 L 1332.5 862 L 1336.5 868 L 1338 867.5 L 1336.5 865 L 1341.5 872 L 1344.5 873 L 1344.5 871 L 1346.5 875 L 1349.5 876 L 1349.5 874 L 1351.5 878 L 1358.5 881 L 1358.5 879 L 1359.5 882 L 1361.5 881 L 1362.5 884 L 1365.5 885 L 1365.5 883 L 1366.5 886 L 1368.5 885 L 1368.5 887 L 1370.5 886 L 1370.5 888 L 1376.5 890 L 1378.5 889 L 1378.5 890 L 1377 890.5 L 1383.5 893 L 1385.5 892 L 1385.5 893 L 1384 893.5 L 1394.5 899 L 1400.5 900 L 1402.5 900 L 1404.5 901 Q 1405.8 898.8 1407 901.5 L 1406 902.5 L 1406 909 L 1402.5 910 L 1398.5 908 L 1398.5 910 L 1396.5 906 L 1386.5 902 L 1385 902.5 L 1385.5 901 L 1382.5 902 L 1382.5 901 L 1384 900.5 L 1372.5 895 L 1343.5 885 L 1290.5 870 L 1289 870.5 L 1294 857.5 L 1292 857.5 L 1295 856.5 L 1296 852.5 L 1295.5 851 Q 1296.8 853.2 1298 850.5 L 1297.5 849 L 1296 849.5 L 1298.5 847 Z " /><path fill="rgb(232,251,203)" stroke="rgb(232,251,203)" stroke-width="1" opacity="1" d="M 1230.5 849 L 1234 849.5 L 1230.5 850 L 1230.5 849 Z " /><path fill="rgb(232,251,203)" stroke="rgb(232,251,203)" stroke-width="1" opacity="1" d="M 1236.5 850 L 1245 850.5 L 1236.5 851 L 1236.5 850 Z " /><path fill="rgb(232,251,203)" stroke="rgb(232,251,203)" stroke-width="1" opacity="1" d="M 1247.5 850 L 1265 850.5 L 1247.5 851 L 1247.5 850 Z " /><path fill="rgb(232,251,203)" stroke="rgb(232,251,203)" stroke-width="1" opacity="1" d="M 1250.5 864 L 1257 864.5 L 1250.5 865 L 1250.5 864 Z " /><path fill="rgb(232,251,203)" stroke="rgb(232,251,203)" stroke-width="1" opacity="1" d="M 1275.5 865 L 1274.5 867 L 1275.5 865 Z " /><path fill="rgb(232,251,203)" stroke="rgb(232,251,203)" stroke-width="1" opacity="1" d="M 1341.5 869 L 1342.5 871 L 1341.5 869 Z " /><path fill="rgb(232,251,203)" stroke="rgb(232,251,203)" stroke-width="1" opacity="1" d="M 1593.5 873 L 1597 873.5 L 1593.5 874 L 1593.5 873 Z " /><path fill="rgb(232,251,203)" stroke="rgb(232,251,203)" stroke-width="1" opacity="1" d="M 1601.5 874 L 1604 874.5 L 1601.5 875 L 1601.5 874 Z " /><path fill="rgb(232,251,203)" stroke="rgb(232,251,203)" stroke-width="1" opacity="1" d="M 1456.5 902 L 1457 904.5 L 1456 904.5 L 1456.5 902 Z " /><path fill="rgb(232,251,203)" stroke="rgb(232,251,203)" stroke-width="1" opacity="1" d="M 1678.5 913 L 1686 913.5 L 1678.5 914 L 1678.5 913 Z " /><path fill="rgb(232,251,203)" stroke="rgb(232,251,203)" stroke-width="1" opacity="1" d="M 1592.5 920 L 1595 920.5 L 1591.5 922 L 1592.5 920 Z " /><path fill="rgb(232,251,203)" stroke="rgb(232,251,203)" stroke-width="1" opacity="1" d="M 1602.5 921 L 1615 921.5 L 1602.5 922 L 1602.5 921 Z " /><path fill="rgb(232,251,203)" stroke="rgb(232,251,203)" stroke-width="1" opacity="1" d="M 1622.5 922 L 1627 922.5 L 1622.5 923 L 1622.5 922 Z " /><path fill="rgb(232,251,203)" stroke="rgb(232,251,203)" stroke-width="1" opacity="1" d="M 1786.5 961 L 1789 961.5 L 1786.5 962 L 1786.5 961 Z " /><path fill="rgb(232,251,203)" stroke="rgb(232,251,203)" stroke-width="1" opacity="1" d="M 1708.5 962 L 1711 962.5 L 1708.5 963 L 1708.5 962 Z " /><path fill="rgb(232,251,203)" stroke="rgb(232,251,203)" stroke-width="1" opacity="1" d="M 1793.5 962 L 1796 962.5 L 1793.5 963 L 1793.5 962 Z " /><path fill="rgb(232,251,203)" stroke="rgb(232,251,203)" stroke-width="1" opacity="1" d="M 1713.5 963 L 1716 963.5 L 1713.5 964 L 1713.5 963 Z " /><path fill="rgb(232,251,203)" stroke="rgb(232,251,203)" stroke-width="1" opacity="1" d="M 1718.5 964 L 1721 964.5 L 1718.5 965 L 1718.5 964 Z " /><path fill="rgb(232,251,203)" stroke="rgb(232,251,203)" stroke-width="1" opacity="1" d="M 1804.5 964 L 1807 964.5 L 1804.5 965 L 1804.5 964 Z " /><path fill="rgb(232,251,203)" stroke="rgb(232,251,203)" stroke-width="1" opacity="1" d="M 1810.5 965 L 1813 965.5 L 1810.5 966 L 1810.5 965 Z " /><path fill="rgb(232,251,203)" stroke="rgb(232,251,203)" stroke-width="1" opacity="1" d="M 1921.5 966 L 1925 966.5 L 1921.5 967 L 1921.5 966 Z " /><path fill="rgb(232,251,203)" stroke="rgb(232,251,203)" stroke-width="1" opacity="1" d="M 1733.5 967 L 1736 967.5 L 1733.5 968 L 1733.5 967 Z " /><path fill="rgb(232,251,203)" stroke="rgb(232,251,203)" stroke-width="1" opacity="1" d="M 1821.5 967 L 1824 967.5 L 1821.5 968 L 1821.5 967 Z " /><path fill="rgb(232,251,203)" stroke="rgb(232,251,203)" stroke-width="1" opacity="1" d="M 1930.5 967 L 1935 967.5 L 1930.5 968 L 1930.5 967 Z " /><path fill="rgb(232,251,203)" stroke="rgb(232,251,203)" stroke-width="1" opacity="1" d="M 1827.5 968 L 1831 968.5 L 1827.5 969 L 1827.5 968 Z " /><path fill="rgb(232,251,203)" stroke="rgb(232,251,203)" stroke-width="1" opacity="1" d="M 1920.5 968 L 1921 970.5 L 1920 970.5 L 1920.5 968 Z " /><path fill="rgb(232,251,203)" stroke="rgb(232,251,203)" stroke-width="1" opacity="1" d="M 1940.5 968 L 1943 968.5 L 1940.5 969 L 1940.5 968 Z " /><path fill="rgb(232,251,203)" stroke="rgb(232,251,203)" stroke-width="1" opacity="1" d="M 1836.5 969 L 1840 969.5 L 1836.5 970 L 1836.5 969 Z " /><path fill="rgb(232,251,203)" stroke="rgb(232,251,203)" stroke-width="1" opacity="1" d="M 1846.5 970 L 1850 970.5 L 1846.5 971 L 1846.5 970 Z " /><path fill="rgb(232,251,203)" stroke="rgb(232,251,203)" stroke-width="1" opacity="1" d="M 1855.5 971 L 1859 971.5 L 1855.5 972 L 1855.5 971 Z " /><path fill="rgb(232,251,203)" stroke="rgb(232,251,203)" stroke-width="1" opacity="1" d="M 1863.5 972 L 1867 972.5 L 1863.5 973 L 1863.5 972 Z " /><path fill="rgb(232,251,203)" stroke="rgb(232,251,203)" stroke-width="1" opacity="1" d="M 1871.5 973 L 1875 973.5 L 1871.5 974 L 1871.5 973 Z " /><path fill="rgb(232,251,203)" stroke="rgb(232,251,203)" stroke-width="1" opacity="1" d="M 1879.5 974 L 1883 974.5 L 1879.5 975 L 1879.5 974 Z " /><path fill="rgb(232,251,203)" stroke="rgb(232,251,203)" stroke-width="1" opacity="1" d="M 1889.5 975 L 1900 975.5 L 1889.5 976 L 1889.5 975 Z " /><path fill="rgb(232,251,203)" stroke="rgb(232,251,203)" stroke-width="1" opacity="1" d="M 1842.5 1003 L 1845 1003.5 L 1842.5 1004 L 1842.5 1003 Z " /><path fill="rgb(232,251,203)" stroke="rgb(232,251,203)" stroke-width="1" opacity="1" d="M 1849.5 1004 L 1852 1004.5 L 1849.5 1005 L 1849.5 1004 Z " /><path fill="rgb(232,251,203)" stroke="rgb(232,251,203)" stroke-width="1" opacity="1" d="M 2416.5 1005 L 2425.5 1006 L 2430.5 1008 L 2438.5 1006 L 2448.5 1009 L 2472.5 1011 L 2473.5 1010 L 2501.5 1010 L 2515.5 1013 L 2525.5 1013 L 2526.5 1014 Q 2536 1012.5 2541.5 1015 Q 2545.2 1011.7 2553.5 1013 L 2559.5 1015 L 2579.5 1017 Q 2580.7 1014.7 2585.5 1016 L 2593.5 1018 L 2647.5 1018 L 2648.5 1017 L 2656.5 1017 L 2657.5 1018 L 2665.5 1018 L 2666.5 1017 L 2674.5 1017 L 2679.5 1015 L 2689.5 1014 L 2694.5 1012 L 2700.5 1012 L 2708.5 1010 L 2719.5 1010 L 2728.5 1014 L 2739.5 1014 L 2745.5 1016 L 2756.5 1016 L 2773.5 1020 L 2788.5 1021 L 2809.5 1029 L 2820.5 1030 L 2832.5 1033 L 2843.5 1033 L 2850.5 1036 L 2855.5 1036 L 2863.5 1039 L 2878.5 1042 L 2879.5 1041 L 2899.5 1041 L 2912.5 1044 L 2934.5 1052 L 2963.5 1053 L 2971.5 1056 L 2975.5 1056 L 2996.5 1064 L 3003.5 1065 L 3010.5 1069 L 3027.5 1075 L 3047.5 1079 L 3053.5 1083 L 3065.5 1084 L 3086.5 1092 L 3102.5 1096 L 3109.5 1096 L 3118.5 1098 L 3121.5 1097 L 3135.5 1101 L 3161.5 1102 L 3164.5 1101 Q 3166.7 1105.3 3169 1103.5 L 3168 1108.5 L 3165.5 1111 L 3159.5 1111 L 3152.5 1114 L 3126 1114.5 L 3130 1115.5 L 3126.5 1116 Q 3124.8 1113.3 3118.5 1115 Q 3113.4 1118.4 3103.5 1117 L 3097 1119.5 L 3099 1120.5 L 3097.5 1121 L 3095.5 1120 L 3095.5 1122 L 3091.5 1121 L 3086.5 1123 L 3070.5 1123 L 3069.5 1124 L 3057.5 1124 L 3050.5 1126 L 3044.5 1126 Q 3041.5 1123 3034.5 1124 L 3023.5 1126 Q 3018.5 1122 3007.5 1124 L 3005 1125.5 L 3005.5 1127 L 3004.5 1126 L 2983.5 1126 L 2982.5 1127 L 2961.5 1127 Q 2958.6 1129.6 2952.5 1129 L 2946.5 1127 L 2940.5 1127 L 2927 1129.5 L 2927.5 1131 L 2909.5 1127 L 2902.5 1127 L 2891.5 1129 L 2887.5 1127 L 2879.5 1126 L 2876.5 1127 L 2870.5 1125 L 2836.5 1124 L 2826.5 1121 L 2802.5 1121 Q 2794.3 1116.2 2779.5 1118 Q 2778.3 1120.2 2773.5 1119 L 2759.5 1115 L 2718.5 1115 L 2717.5 1116 L 2707.5 1116 L 2698 1119 L 2702 1126.5 L 2702 1140.5 L 2699 1155.5 L 2698 1170.5 L 2695 1182 L 2682.5 1182 L 2682 1183.5 L 2679 1195.5 L 2675.5 1203 L 2675 1198.5 L 2676 1197.5 L 2677 1173 L 2684 1170.5 Q 2681.7 1169.3 2684.5 1168 L 2684.5 1170 Q 2686.8 1170.8 2686 1168.5 L 2688 1163.5 L 2688 1155.5 L 2691 1144.5 L 2691 1132.5 L 2692 1131.5 L 2689.5 1128 L 2671 1126 Q 2669.1 1128.8 2670 1135 Q 2676.1 1133.3 2678 1136.5 L 2675 1137 Q 2676.1 1139.7 2673.5 1139 L 2662 1135.5 L 2668 1135 L 2669 1126 L 2663.5 1125 L 2651.5 1125 L 2647 1127.5 L 2647 1135.5 L 2645 1142.5 L 2645 1151.5 L 2644 1152.5 L 2643 1168 L 2655.5 1170 L 2657 1171.5 L 2655 1190.5 L 2654 1191.5 L 2654 1202 Q 2650.3 1203.5 2651 1200.5 Q 2648.2 1197.8 2649 1191.5 L 2651 1180.5 L 2650 1178 L 2636.5 1177 L 2634 1176 L 2635 1172.5 L 2637 1146.5 L 2638 1145.5 L 2638 1137.5 L 2639 1136.5 L 2639 1121.5 L 2641 1116 L 2647.5 1115 L 2656.5 1117 L 2659 1110.5 L 2655.5 1109 L 2652.5 1110 L 2649.5 1108 L 2650.5 1111 L 2645.5 1104 L 2627.5 1098 L 2616.5 1097 L 2587.5 1089 L 2564.5 1088 L 2550.5 1084 L 2542.5 1084 L 2537.5 1082 L 2525.5 1081 L 2521.5 1079 L 2510.5 1079 L 2487.5 1074 L 2474.5 1074 L 2473.5 1073 L 2458.5 1072 L 2455.5 1073 L 2449.5 1071 L 2444.5 1073 Q 2433.8 1070.7 2426.5 1065 Q 2420.4 1065.6 2417.5 1063 L 2400.5 1063 L 2396.5 1064 Q 2386.9 1062.1 2383 1054.5 L 2380.5 1048 L 2365.5 1038 L 2357.5 1035 L 2333 1017.5 Q 2332.3 1015.3 2334.5 1016 L 2352.5 1027 L 2359.5 1030 L 2364.5 1030 L 2370 1027.5 L 2368 1026.5 L 2370.5 1025 L 2370.5 1027 L 2373 1025.5 L 2372.5 1024 L 2374.5 1025 L 2379 1021.5 L 2382 1013.5 L 2381.5 1012 L 2382.5 1013 L 2394.5 1014 L 2395.5 1013 L 2403.5 1013 L 2410 1010.5 L 2408 1009.5 L 2410.5 1008 L 2410.5 1010 L 2418 1006.5 L 2416.5 1005 Z " /><path fill="rgb(232,251,203)" stroke="rgb(232,251,203)" stroke-width="1" opacity="1" d="M 2476.5 1008 L 2501 1008.5 L 2476.5 1009 L 2476.5 1008 Z " /><path fill="rgb(232,251,203)" stroke="rgb(232,251,203)" stroke-width="1" opacity="1" d="M 2711.5 1008 L 2719 1008.5 L 2711.5 1009 L 2711.5 1008 Z " /><path fill="rgb(232,251,203)" stroke="rgb(232,251,203)" stroke-width="1" opacity="1" d="M 2703.5 1009 L 2706 1009.5 L 2703.5 1010 L 2703.5 1009 Z " /><path fill="rgb(232,251,203)" stroke="rgb(232,251,203)" stroke-width="1" opacity="1" d="M 2029.5 1012 L 2062 1012.5 L 2029.5 1013 L 2029.5 1012 Z " /><path fill="rgb(232,251,203)" stroke="rgb(232,251,203)" stroke-width="1" opacity="1" d="M 2068.5 1013 L 2069 1015.5 L 2068 1015.5 L 2068.5 1013 Z " /><path fill="rgb(232,251,203)" stroke="rgb(232,251,203)" stroke-width="1" opacity="1" d="M 2575.5 1015 L 2579 1015.5 L 2575.5 1016 L 2575.5 1015 Z " /><path fill="rgb(232,251,203)" stroke="rgb(232,251,203)" stroke-width="1" opacity="1" d="M 2669.5 1015 L 2672 1015.5 L 2669.5 1016 L 2669.5 1015 Z " /><path fill="rgb(232,251,203)" stroke="rgb(232,251,203)" stroke-width="1" opacity="1" d="M 2599.5 1016 L 2603 1016.5 L 2599.5 1017 L 2599.5 1016 Z " /><path fill="rgb(232,251,203)" stroke="rgb(232,251,203)" stroke-width="1" opacity="1" d="M 2615.5 1016 L 2622 1016.5 L 2615.5 1017 L 2615.5 1016 Z " /><path fill="rgb(232,251,203)" stroke="rgb(232,251,203)" stroke-width="1" opacity="1" d="M 2634.5 1016 L 2638 1016.5 L 2634.5 1017 L 2634.5 1016 Z " /><path fill="rgb(232,251,203)" stroke="rgb(232,251,203)" stroke-width="1" opacity="1" d="M 2051.5 1018 L 2056 1018.5 L 2051.5 1019 L 2051.5 1018 Z " /><path fill="rgb(232,251,203)" stroke="rgb(232,251,203)" stroke-width="1" opacity="1" d="M 2331.5 1018 L 2333.5 1021 L 2331.5 1018 Z " /><path fill="rgb(232,251,203)" stroke="rgb(232,251,203)" stroke-width="1" opacity="1" d="M 2063.5 1019 L 2068 1019.5 L 2063.5 1020 L 2063.5 1019 Z " /><path fill="rgb(232,251,203)" stroke="rgb(232,251,203)" stroke-width="1" opacity="1" d="M 2377.5 1020 L 2375.5 1023 L 2377.5 1020 Z " /><path fill="rgb(232,251,203)" stroke="rgb(232,251,203)" stroke-width="1" opacity="1" d="M 1946.5 1026 L 1951 1026.5 L 1946.5 1027 L 1946.5 1026 Z " /><path fill="rgb(232,251,203)" stroke="rgb(232,251,203)" stroke-width="1" opacity="1" d="M 1957.5 1026 L 1960 1026.5 L 1957.5 1027 L 1957.5 1026 Z " /><path fill="rgb(232,251,203)" stroke="rgb(232,251,203)" stroke-width="1" opacity="1" d="M 1964.5 1027 L 1967 1027.5 L 1964.5 1028 L 1964.5 1027 Z " /><path fill="rgb(232,251,203)" stroke="rgb(232,251,203)" stroke-width="1" opacity="1" d="M 1971.5 1028 L 1975 1028.5 L 1971.5 1029 L 1971.5 1028 Z " /><path fill="rgb(232,251,203)" stroke="rgb(232,251,203)" stroke-width="1" opacity="1" d="M 1928.5 1029 L 1937 1029.5 L 1928.5 1030 L 1928.5 1029 Z " /><path fill="rgb(232,251,203)" stroke="rgb(232,251,203)" stroke-width="1" opacity="1" d="M 1979.5 1029 L 1982 1029.5 L 1979.5 1030 L 1979.5 1029 Z " /><path fill="rgb(232,251,203)" stroke="rgb(232,251,203)" stroke-width="1" opacity="1" d="M 2051.5 1029 L 2052 1031.5 L 2051 1031.5 L 2051.5 1029 Z " /><path fill="rgb(232,251,203)" stroke="rgb(232,251,203)" stroke-width="1" opacity="1" d="M 2835.5 1031 L 2838 1031.5 L 2835.5 1032 L 2835.5 1031 Z " /><path fill="rgb(232,251,203)" stroke="rgb(232,251,203)" stroke-width="1" opacity="1" d="M 2000.5 1033 L 2003 1033.5 L 2000.5 1034 L 2000.5 1033 Z " /><path fill="rgb(232,251,203)" stroke="rgb(232,251,203)" stroke-width="1" opacity="1" d="M 2010.5 1035 L 2013 1035.5 L 2010.5 1036 L 2010.5 1035 Z " /><path fill="rgb(232,251,203)" stroke="rgb(232,251,203)" stroke-width="1" opacity="1" d="M 2882.5 1039 L 2897 1039.5 L 2882.5 1040 L 2882.5 1039 Z " /><path fill="rgb(232,251,203)" stroke="rgb(232,251,203)" stroke-width="1" opacity="1" d="M 2370.5 1043 L 2371.5 1045 L 2370.5 1043 Z " /><path fill="rgb(232,251,203)" stroke="rgb(232,251,203)" stroke-width="1" opacity="1" d="M 2379.5 1049 L 2381 1051.5 L 2380 1051.5 L 2379.5 1049 Z " /><path fill="rgb(232,251,203)" stroke="rgb(232,251,203)" stroke-width="1" opacity="1" d="M 2936.5 1050 L 2941 1050.5 L 2936.5 1051 L 2936.5 1050 Z " /><path fill="rgb(232,251,203)" stroke="rgb(232,251,203)" stroke-width="1" opacity="1" d="M 2959.5 1051 L 2962 1051.5 L 2959.5 1052 L 2959.5 1051 Z " /><path fill="rgb(232,251,203)" stroke="rgb(232,251,203)" stroke-width="1" opacity="1" d="M 2067.5 1053 L 2070 1054.5 L 2069.5 1058 L 2069 1054 L 2067.5 1053 Z " /><path fill="rgb(232,251,203)" stroke="rgb(232,251,203)" stroke-width="1" opacity="1" d="M 2382.5 1056 L 2383.5 1058 L 2382.5 1056 Z " /><path fill="rgb(232,251,203)" stroke="rgb(232,251,203)" stroke-width="1" opacity="1" d="M 2068.5 1066 L 2069 1073.5 L 2068 1073.5 L 2068.5 1066 Z " /><path fill="rgb(232,251,203)" stroke="rgb(232,251,203)" stroke-width="1" opacity="1" d="M 2058.5 1079 L 2059 1083.5 L 2058 1083.5 L 2058.5 1079 Z " /><path fill="rgb(232,251,203)" stroke="rgb(232,251,203)" stroke-width="1" opacity="1" d="M 2067.5 1080 L 2068 1089.5 L 2067 1089.5 L 2067.5 1080 Z " /><path fill="rgb(232,251,203)" stroke="rgb(232,251,203)" stroke-width="1" opacity="1" d="M 2532.5 1083 L 2535 1083.5 L 2532.5 1084 L 2532.5 1083 Z " /><path fill="rgb(232,251,203)" stroke="rgb(232,251,203)" stroke-width="1" opacity="1" d="M 2057.5 1089 L 2058 1093.5 L 2057 1093.5 L 2057.5 1089 Z " /><path fill="rgb(232,251,203)" stroke="rgb(232,251,203)" stroke-width="1" opacity="1" d="M 2567.5 1089 L 2571 1089.5 L 2567.5 1090 L 2567.5 1089 Z " /><path fill="rgb(232,251,203)" stroke="rgb(232,251,203)" stroke-width="1" opacity="1" d="M 3128.5 1097 L 3131 1097.5 L 3128.5 1098 L 3128.5 1097 Z " /><path fill="rgb(232,251,203)" stroke="rgb(232,251,203)" stroke-width="1" opacity="1" d="M 3139.5 1099 L 3143 1099.5 L 3139.5 1100 L 3139.5 1099 Z " /><path fill="rgb(232,251,203)" stroke="rgb(232,251,203)" stroke-width="1" opacity="1" d="M 2056.5 1100 L 2057 1104.5 L 2056 1104.5 L 2056.5 1100 Z " /><path fill="rgb(232,251,203)" stroke="rgb(232,251,203)" stroke-width="1" opacity="1" d="M 3157.5 1100 L 3161 1100.5 L 3157.5 1101 L 3157.5 1100 Z " /><path fill="rgb(232,251,203)" stroke="rgb(232,251,203)" stroke-width="1" opacity="1" d="M 3169.5 1105 L 3170 1107.5 L 3169 1107.5 L 3169.5 1105 Z " /><path fill="rgb(232,251,203)" stroke="rgb(232,251,203)" stroke-width="1" opacity="1" d="M 2063.5 1109 L 2064 1113.5 L 2063 1113.5 L 2063.5 1109 Z " /><path fill="rgb(232,251,203)" stroke="rgb(232,251,203)" stroke-width="1" opacity="1" d="M 2055.5 1112 L 2056 1127.5 L 2055 1127.5 L 2055.5 1112 Z " /><path fill="rgb(232,251,203)" stroke="rgb(232,251,203)" stroke-width="1" opacity="1" d="M 3163.5 1112 L 3166 1112.5 L 3163.5 1113 L 3163.5 1112 Z " /><path fill="rgb(232,251,203)" stroke="rgb(232,251,203)" stroke-width="1" opacity="1" d="M 3142.5 1115 L 3149 1115.5 L 3142.5 1116 L 3142.5 1115 Z " /><path fill="rgb(232,251,203)" stroke="rgb(232,251,203)" stroke-width="1" opacity="1" d="M 2744.5 1116 L 2747 1116.5 L 2744.5 1117 L 2744.5 1116 Z " /><path fill="rgb(232,251,203)" stroke="rgb(232,251,203)" stroke-width="1" opacity="1" d="M 3120.5 1116 L 3123 1116.5 L 3120.5 1117 L 3120.5 1116 Z " /><path fill="rgb(232,251,203)" stroke="rgb(232,251,203)" stroke-width="1" opacity="1" d="M 3107.5 1118 L 3112 1118.5 L 3107.5 1119 L 3107.5 1118 Z " /><path fill="rgb(232,251,203)" stroke="rgb(232,251,203)" stroke-width="1" opacity="1" d="M 2785.5 1119 L 2792 1119.5 L 2785.5 1120 L 2785.5 1119 Z " /><path fill="rgb(232,251,203)" stroke="rgb(232,251,203)" stroke-width="1" opacity="1" d="M 2062.5 1120 L 2063 1123.5 L 2062 1123.5 L 2062.5 1120 Z " /><path fill="rgb(232,251,203)" stroke="rgb(232,251,203)" stroke-width="1" opacity="1" d="M 2775.5 1120 L 2778 1120.5 L 2775.5 1121 L 2775.5 1120 Z " /><path fill="rgb(232,251,203)" stroke="rgb(232,251,203)" stroke-width="1" opacity="1" d="M 2814.5 1122 L 2819 1122.5 L 2814.5 1123 L 2814.5 1122 Z " /><path fill="rgb(232,251,203)" stroke="rgb(232,251,203)" stroke-width="1" opacity="1" d="M 2820.5 1122 L 2824 1122.5 L 2820.5 1123 L 2820.5 1122 Z " /><path fill="rgb(232,251,203)" stroke="rgb(232,251,203)" stroke-width="1" opacity="1" d="M 3071.5 1124 L 3078 1124.5 L 3071.5 1125 L 3071.5 1124 Z " /><path fill="rgb(232,251,203)" stroke="rgb(232,251,203)" stroke-width="1" opacity="1" d="M 3082.5 1124 L 3085 1124.5 L 3082.5 1125 L 3082.5 1124 Z " /><path fill="rgb(232,251,203)" stroke="rgb(232,251,203)" stroke-width="1" opacity="1" d="M 3059.5 1125 L 3070 1125.5 L 3059.5 1126 L 3059.5 1125 Z " /><path fill="rgb(232,251,203)" stroke="rgb(232,251,203)" stroke-width="1" opacity="1" d="M 2857.5 1126 L 2860 1126.5 L 2857.5 1127 L 2857.5 1126 Z " /><path fill="rgb(232,251,203)" stroke="rgb(232,251,203)" stroke-width="1" opacity="1" d="M 2987.5 1127 L 3001 1127.5 L 2987.5 1128 L 2987.5 1127 Z " /><path fill="rgb(232,251,203)" stroke="rgb(232,251,203)" stroke-width="1" opacity="1" d="M 2677.5 1128 L 2684 1128.5 L 2677.5 1129 L 2677.5 1128 Z " /><path fill="rgb(232,251,203)" stroke="rgb(232,251,203)" stroke-width="1" opacity="1" d="M 2970.5 1128 L 2973 1128.5 L 2970.5 1129 L 2970.5 1128 Z " /><path fill="rgb(232,251,203)" stroke="rgb(232,251,203)" stroke-width="1" opacity="1" d="M 2061.5 1129 L 2062 1132.5 L 2061 1132.5 L 2061.5 1129 Z " /><path fill="rgb(232,251,203)" stroke="rgb(232,251,203)" stroke-width="1" opacity="1" d="M 2935.5 1129 L 2938 1129.5 L 2935.5 1130 L 2935.5 1129 Z " /><path fill="rgb(232,251,203)" stroke="rgb(232,251,203)" stroke-width="1" opacity="1" d="M 2671.5 1132 L 2672.5 1134 L 2671.5 1132 Z " /><path fill="rgb(232,251,203)" stroke="rgb(232,251,203)" stroke-width="1" opacity="1" d="M 2660.5 1135 L 2662 1137.5 L 2660 1136.5 L 2660.5 1135 Z " /><path fill="rgb(232,251,203)" stroke="rgb(232,251,203)" stroke-width="1" opacity="1" d="M 2686.5 1159 L 2687 1161.5 L 2686 1161.5 L 2686.5 1159 Z " /><path fill="rgb(232,251,203)" stroke="rgb(232,251,203)" stroke-width="1" opacity="1" d="M 2676.5 1171 L 2679 1171.5 L 2676.5 1172 L 2676.5 1171 Z " /><path fill="rgb(232,251,203)" stroke="rgb(232,251,203)" stroke-width="1" opacity="1" d="M 2674.5 1187 L 2675 1190.5 L 2674 1190.5 L 2674.5 1187 Z " /><path fill="rgb(232,251,203)" stroke="rgb(232,251,203)" stroke-width="1" opacity="1" d="M 2647.5 1193 L 2648 1195.5 L 2647 1195.5 L 2647.5 1193 Z " /><path fill="rgb(232,251,203)" stroke="rgb(232,251,203)" stroke-width="1" opacity="1" d="M 2655.5 1195 L 2656 1201.5 L 2655 1201.5 L 2655.5 1195 Z " /><path fill="rgb(232,251,203)" stroke="rgb(232,251,203)" stroke-width="1" opacity="1" d="M 2676.5 1204 L 2675.5 1206 L 2673 1205.5 L 2676.5 1204 Z " /><path fill="rgb(255,255,255)" stroke="rgb(255,255,255)" stroke-width="1" opacity="1" d="M 0 0 L 3203 0 L 3203 1612 L 0 1612 L 0 0 Z M 127 455 L 104 459 L 94 464 Q 88 466 87 474 L 93 478 L 132 494 L 145 498 L 177 513 L 252 552 L 259 557 L 305 578 L 415 616 L 440 623 L 489 632 L 512 633 L 513 634 L 585 634 L 586 633 L 610 633 L 630 638 L 661 642 L 662 643 L 673 643 L 699 649 L 716 651 L 717 652 L 732 653 Q 736 656 743 656 L 744 660 Q 772 677 810 685 L 812 680 L 815 679 L 823 681 Q 825 682 824 687 Q 826 690 831 690 L 835 685 L 848 685 L 849 686 L 867 687 L 915 705 L 957 717 L 971 724 Q 973 723 972 726 L 985 736 L 1013 752 L 1025 756 L 1051 759 L 1058 761 L 1061 755 L 1067 758 L 1065 763 L 1071 765 L 1075 759 L 1088 763 L 1087 770 L 1098 774 L 1111 777 L 1114 771 L 1122 773 L 1121 779 L 1123 780 L 1154 790 L 1154 787 L 1168 790 L 1169 792 L 1168 798 L 1179 801 Q 1178 796 1182 793 L 1185 794 L 1184 799 L 1188 800 Q 1190 799 1189 803 L 1198 806 L 1190 826 L 1187 840 L 1210 850 L 1213 850 L 1232 857 L 1243 864 Q 1249 862 1251 865 Q 1256 867 1258 864 L 1269 868 L 1275 867 L 1278 863 L 1278 859 L 1275 853 L 1265 850 L 1248 850 L 1247 851 L 1245 850 L 1228 849 L 1215 843 L 1215 832 L 1223 811 L 1256 820 L 1260 823 Q 1261 829 1259 833 L 1263 834 L 1264 833 Q 1263 827 1265 826 L 1266 823 L 1279 823 L 1280 822 L 1281 815 L 1299 815 L 1315 819 L 1317 822 L 1314 826 L 1315 831 L 1319 833 L 1340 840 L 1340 842 L 1338 841 L 1335 846 L 1337 847 L 1352 851 L 1353 847 L 1347 844 L 1346 842 L 1349 843 L 1359 843 L 1364 839 L 1377 841 L 1395 847 L 1431 862 L 1444 910 L 1448 920 L 1454 921 L 1456 919 L 1457 901 L 1461 893 L 1471 884 L 1474 883 L 1482 887 L 1519 899 L 1590 926 L 1593 921 L 1629 923 L 1678 947 L 1696 959 L 1709 963 L 1745 970 L 1756 975 L 1782 983 L 1808 996 L 1843 1004 L 1855 1005 L 1873 1011 L 1880 1012 L 1917 1027 L 1929 1030 L 1937 1030 L 1941 1028 L 1952 1026 L 1979 1029 L 2011 1036 L 2016 1036 L 2043 1043 L 2055 1049 L 2059 1055 L 2059 1079 L 2057 1090 L 2057 1100 L 2056 1101 L 2056 1112 L 2055 1113 L 2055 1128 L 2056 1129 L 2056 1138 L 2060 1139 L 2062 1133 L 2063 1115 L 2064 1114 L 2064 1105 L 2066 1104 L 2067 1103 L 2070 1055 L 2067 1053 L 2054 1040 L 2051 1029 L 2051 1019 L 2068 1020 L 2069 1013 L 2063 1013 L 2062 1012 L 2028 1012 L 2001 991 L 1985 982 L 1952 974 L 1947 969 L 1921 966 L 1919 974 L 1916 976 L 1884 975 L 1867 972 L 1860 972 L 1859 971 L 1832 969 L 1796 962 L 1784 961 L 1767 955 L 1751 949 L 1720 932 L 1694 920 L 1686 913 L 1673 913 L 1649 904 L 1609 876 L 1604 874 L 1591 873 L 1586 871 L 1534 840 L 1536 831 L 1528 828 L 1525 829 L 1512 823 L 1507 818 L 1513 806 L 1507 801 L 1503 801 L 1501 805 L 1493 801 L 1496 793 L 1489 789 L 1487 790 L 1473 781 L 1471 781 L 1467 785 L 1447 776 L 1442 783 L 1427 775 L 1419 764 L 1416 749 L 1417 740 L 1420 738 L 1422 733 L 1422 726 L 1420 719 L 1421 678 L 1423 671 L 1431 659 L 1431 655 L 1427 651 L 1420 651 L 1411 657 L 1403 666 L 1405 710 L 1387 726 L 1371 711 L 1346 687 L 1346 685 Q 1378 663 1407 638 Q 1408 634 1406 633 L 1399 634 L 1332 686 L 1291 657 L 1292 654 L 1322 622 L 1357 650 L 1396 618 L 1402 612 L 1402 606 Q 1397 599 1386 599 Q 1379 605 1381 619 L 1364 635 L 1361 636 L 1355 627 L 1347 618 L 1333 611 Q 1327 613 1326 610 Q 1311 612 1302 618 Q 1297 621 1295 628 L 1293 636 L 1293 646 L 1290 648 L 1283 656 L 1282 666 L 1279 668 L 1277 668 L 1259 655 L 1232 634 Q 1225 630 1223 622 L 1214 615 L 1211 616 L 1207 614 L 1208 611 L 1196 600 L 1185 600 L 1177 598 L 1145 585 L 1119 582 L 1118 581 Q 1113 582 1114 579 L 1082 579 L 1081 593 L 1075 596 L 1050 604 L 1026 614 L 1010 624 L 974 628 L 929 636 L 910 637 L 909 638 L 874 638 L 873 637 L 857 636 L 838 632 L 832 630 L 829 628 L 830 623 L 798 608 L 752 597 L 673 571 L 649 566 L 625 563 L 600 556 L 564 545 L 539 535 L 492 519 L 457 509 L 438 505 L 419 498 L 416 498 L 373 483 L 349 469 L 341 466 L 327 466 L 326 467 L 298 467 L 276 463 L 261 462 L 260 461 L 224 459 L 214 457 L 206 457 L 205 456 L 127 455 Z M 1299 847 L 1290 862 L 1289 871 L 1363 893 L 1385 902 L 1401 911 L 1407 911 L 1408 908 L 1407 902 L 1404 898 L 1397 898 Q 1384 890 1368 885 L 1347 873 L 1328 859 L 1304 847 L 1299 847 Z M 2420 1004 L 2402 1012 L 2388 1012 L 2387 1011 L 2382 1012 Q 2378 1013 2379 1019 Q 2374 1026 2365 1028 L 2359 1028 Q 2347 1024 2340 1016 L 2333 1015 L 2331 1019 L 2358 1037 L 2363 1038 L 2372 1045 L 2377 1047 Q 2381 1050 2382 1057 L 2385 1058 L 2388 1063 L 2393 1065 L 2403 1065 L 2404 1064 L 2416 1064 L 2424 1067 L 2428 1067 Q 2433 1072 2443 1074 Q 2447 1075 2449 1073 L 2452 1074 L 2469 1074 L 2477 1076 L 2490 1076 L 2505 1080 L 2523 1081 L 2533 1084 L 2548 1085 L 2561 1089 L 2590 1091 L 2618 1099 L 2629 1100 L 2639 1103 L 2646 1106 Q 2648 1111 2654 1112 L 2657 1111 L 2656 1115 L 2642 1114 L 2638 1120 L 2638 1131 L 2637 1132 L 2636 1148 L 2635 1149 L 2635 1157 L 2634 1158 L 2633 1176 L 2632 1177 L 2634 1178 L 2647 1179 L 2649 1180 L 2648 1193 L 2647 1194 L 2649 1202 L 2655 1204 L 2656 1203 L 2656 1189 L 2658 1180 L 2658 1172 L 2659 1171 L 2658 1169 L 2645 1167 L 2647 1141 L 2648 1140 L 2649 1129 L 2651 1127 L 2666 1127 L 2667 1129 L 2667 1133 L 2661 1133 L 2660 1136 L 2662 1138 Q 2668 1137 2668 1140 L 2679 1140 L 2680 1136 Q 2679 1133 2674 1134 Q 2671 1133 2672 1128 L 2678 1129 L 2687 1129 L 2690 1132 L 2689 1146 L 2687 1152 L 2687 1159 L 2685 1168 Q 2683 1172 2676 1171 L 2675 1175 L 2674 1201 L 2673 1202 Q 2671 1207 2676 1206 L 2679 1201 L 2682 1188 L 2685 1183 Q 2693 1182 2696 1184 L 2700 1170 L 2701 1154 L 2703 1146 L 2703 1125 L 2700 1120 L 2706 1118 L 2716 1118 L 2717 1117 L 2747 1117 L 2748 1116 Q 2764 1116 2776 1121 L 2779 1120 Q 2795 1118 2804 1123 L 2819 1123 L 2820 1122 L 2838 1126 L 2852 1126 L 2853 1127 Q 2859 1129 2861 1126 L 2867 1126 L 2873 1128 L 2885 1128 L 2890 1130 L 2899 1130 L 2900 1129 Q 2911 1128 2918 1131 L 2928 1131 L 2939 1129 L 2949 1129 L 2950 1130 L 2973 1129 L 2974 1128 L 2976 1129 L 3001 1128 L 3007 1126 L 3020 1126 L 3021 1127 L 3032 1127 L 3033 1126 L 3042 1126 L 3049 1128 L 3056 1126 L 3085 1125 L 3094 1123 L 3103 1119 L 3112 1119 L 3124 1116 L 3149 1116 L 3162 1113 L 3164 1113 L 3168 1112 L 3170 1108 L 3168 1101 L 3166 1100 L 3153 1100 L 3152 1099 Q 3145 1097 3144 1100 L 3124 1096 L 3114 1096 Q 3109 1093 3101 1094 L 3074 1086 L 3068 1083 L 3054 1081 L 3048 1077 L 3041 1075 L 3035 1075 L 3027 1073 L 3008 1066 L 3006 1064 L 2993 1061 L 2988 1058 L 2975 1054 L 2971 1054 L 2962 1051 L 2934 1050 L 2915 1043 L 2897 1039 L 2883 1039 L 2882 1040 L 2871 1039 L 2846 1032 L 2830 1031 L 2820 1028 L 2809 1027 L 2788 1019 L 2771 1018 L 2756 1014 Q 2744 1016 2739 1012 L 2727 1012 L 2719 1008 L 2697 1010 L 2669 1016 L 2656 1016 L 2655 1015 Q 2650 1014 2649 1016 L 2592 1016 L 2591 1015 L 2571 1015 L 2552 1011 Q 2545 1010 2543 1013 L 2514 1011 L 2501 1008 L 2477 1008 L 2476 1009 L 2453 1008 L 2444 1005 L 2434 1005 L 2433 1006 L 2420 1004 Z " /><path fill="rgb(164,191,154)" stroke="rgb(164,191,154)" stroke-width="1" opacity="1" d="M 130.5 455 L 161.5 455 L 162.5 456 L 209.5 457 L 210.5 458 L 218.5 458 L 228.5 460 L 255.5 461 L 256.5 462 L 279.5 464 L 294.5 467 L 311.5 468 L 312.5 467 L 342.5 467 L 371.5 483 L 420.5 500 L 493.5 520 L 548.5 539 L 559.5 544 L 601.5 557 L 622.5 563 L 652.5 567 L 674.5 572 L 686.5 577 L 731.5 590 L 753.5 598 L 799.5 609 L 830 622.5 L 828 626.5 L 830.5 630 L 847.5 635 L 859.5 636 L 860.5 637 L 881.5 638 L 882.5 639 L 903.5 639 L 904.5 638 L 914.5 638 L 915.5 637 L 924.5 637 L 925.5 636 L 938.5 635 L 978.5 628 L 1008.5 625 L 1022.5 616 L 1048.5 605 L 1078.5 595 L 1082 592.5 L 1082 580 L 1087.5 580 L 1088.5 579 L 1112.5 579 L 1115.5 582 L 1146.5 586 L 1178.5 599 L 1194.5 600 L 1208 611.5 L 1207 614.5 Q 1209.3 619.3 1211.5 615 L 1223 622.5 L 1224 626.5 L 1235.5 638 L 1275.5 668 L 1279.5 668 L 1283 663.5 L 1284 654.5 L 1290.5 648 Q 1292.8 648.8 1292 646.5 L 1294 644.5 L 1294 632.5 L 1296 625.5 L 1303.5 617 L 1321.5 611 L 1330.5 611 Q 1345.1 615.4 1354 625.5 L 1359.5 636 L 1364.5 635 L 1381 619.5 Q 1383.5 614 1382 604.5 L 1386.5 599 Q 1396.9 599.1 1401 605.5 L 1402 609.5 L 1392.5 620 L 1360.5 647 L 1355.5 649 L 1321.5 621 L 1290 656.5 L 1330.5 686 L 1332.5 686 L 1399.5 634 L 1404.5 633 L 1407 636.5 L 1406 639 L 1345 686.5 L 1385.5 726 L 1387.5 726 L 1406 709.5 L 1403 666.5 L 1407.5 660 L 1417.5 652 Q 1423 653.5 1424.5 651 L 1430 654.5 L 1430 659.5 L 1423 669.5 L 1421 675.5 L 1419 713.5 L 1422 730.5 L 1418.5 738 Q 1416.3 737.3 1417 739.5 Q 1414 740.5 1415 745.5 L 1418 762.5 L 1425 775 Q 1432.3 780.7 1443 783 L 1446.5 776 L 1466.5 786 L 1470 781 L 1477.5 784 L 1487 791 L 1487.5 789 L 1495 793 L 1493 801.5 Q 1495.8 805.8 1502 805 L 1504.5 801 L 1513 806.5 L 1506 816.5 L 1513.5 825 L 1524.5 830 Q 1526 826.5 1527.5 829 Q 1533.3 829.3 1536 832.5 L 1533 838.5 L 1534 841 L 1544.5 846 L 1584.5 871 L 1593.5 874 L 1600.5 874 L 1607.5 876 L 1647.5 904 L 1670.5 913 L 1686.5 914 L 1694.5 921 Q 1713.1 927.4 1727.5 938 L 1749.5 949 L 1776.5 959 L 1786.5 962 L 1798.5 963 L 1827.5 969 L 1854.5 971 L 1855.5 972 L 1862.5 972 L 1879.5 975 L 1888.5 975 L 1889.5 976 L 1916.5 976 L 1920 973.5 L 1921 967 L 1944.5 969 L 1953.5 975 L 1976.5 981 L 1980.5 981 L 1988.5 984 Q 2006.9 994.6 2021.5 1009 L 2029.5 1013 L 2068 1013 L 2068 1019 L 2056.5 1019 L 2051 1018 Q 2049.4 1030.4 2053 1038.5 L 2065.5 1053 L 2069 1054 L 2068 1079.5 L 2067 1080.5 L 2067 1097.5 L 2063 1109.5 L 2062 1128.5 Q 2059.3 1130.3 2061 1136.5 L 2059.5 1139 L 2057 1138 L 2056 1135.5 L 2056 1105.5 L 2057 1104.5 L 2057 1094.5 L 2058 1093.5 L 2059 1073.5 L 2060 1072.5 L 2060 1055.5 L 2058 1051 L 2043.5 1043 L 2017.5 1036 L 2007.5 1035 L 2002.5 1033 L 1997.5 1033 L 1974.5 1028 L 1967.5 1028 L 1959.5 1026 L 1946.5 1026 L 1937.5 1029 L 1926.5 1029 L 1912.5 1025 L 1877.5 1011 L 1851.5 1004 L 1839.5 1003 L 1805.5 995 L 1782.5 983 Q 1760.9 977.6 1742.5 969 L 1706.5 962 L 1694.5 958 L 1678.5 947 Q 1655.3 937.7 1635.5 925 L 1626.5 922 L 1595.5 921 L 1592.5 920 L 1589.5 926 L 1519.5 899 Q 1495.3 893.2 1475.5 883 L 1471.5 883 L 1460 893.5 Q 1453.8 900.8 1456 916.5 L 1452.5 921 L 1448 918.5 L 1438 887.5 L 1432 862 L 1395.5 847 L 1378.5 841 L 1364.5 838 L 1356.5 843 L 1350.5 843 L 1345 842 Q 1343.9 844.7 1346.5 844 L 1353 846 L 1352 851 L 1336 846 L 1337.5 842 Q 1342.3 843.3 1341 840 L 1319.5 833 L 1315 829.5 L 1315 825.5 L 1317 820.5 L 1315.5 819 L 1300.5 815 L 1285.5 814 L 1280 815 L 1280 822 L 1274.5 822 L 1273.5 823 L 1264 823 Q 1265.7 831 1261.5 834 Q 1258.8 832.8 1260 827.5 L 1261 821 L 1221 811 L 1214 832.5 L 1214 842.5 L 1230.5 850 Q 1235.2 848.8 1236.5 851 L 1266.5 851 L 1275 854.5 L 1278 860.5 L 1273.5 867 L 1270.5 868 Q 1261.1 861.9 1243.5 864 L 1232.5 857 L 1214.5 850 L 1210.5 850 L 1188 839.5 L 1188 833.5 L 1190 826.5 L 1199 806.5 L 1189 803 L 1187.5 799 L 1185 797.5 Q 1185.8 793.8 1183.5 793 Q 1178.7 791.3 1180 795.5 L 1177.5 801 L 1168 797 L 1169 790 L 1154 787 Q 1155.3 790 1151.5 789 L 1123.5 780 L 1122 778.5 L 1123 773 L 1112 771 L 1111 777 L 1087 770 L 1088 762 L 1074.5 759 L 1072 764 Q 1067.3 764.9 1065 762.5 L 1067 756 L 1059 755 L 1056.5 761 L 1052.5 759 L 1027.5 756 L 1013.5 752 L 979.5 732 L 970.5 723 L 957.5 717 L 912.5 704 L 867.5 687 L 855.5 686 L 854.5 685 L 834.5 684 L 830.5 689 Q 826 690 825 687.5 L 824 681 L 813.5 679 L 809.5 684 L 794.5 681 L 776.5 675 L 744 660 L 745 657.5 L 743.5 656 L 728.5 652 L 720.5 652 L 719.5 651 L 700.5 649 L 675.5 643 L 657.5 642 L 656.5 641 L 632.5 638 L 612.5 633 L 594.5 632 L 593.5 633 L 525.5 634 L 524.5 633 L 491.5 632 L 437.5 622 L 409.5 614 L 305.5 578 L 259.5 557 L 250.5 551 L 177.5 513 L 145.5 498 L 127.5 492 L 91.5 477 L 88 473.5 L 88 470.5 L 94.5 464 L 102.5 460 L 130.5 455 Z M 1387 601 L 1383 607 Q 1385 617 1381 622 L 1363 638 L 1359 637 L 1352 626 Q 1343 615 1328 612 Q 1313 613 1304 619 L 1297 627 L 1295 635 L 1295 646 L 1293 648 L 1294 649 L 1321 620 L 1324 620 L 1357 648 L 1394 617 L 1400 611 L 1400 607 L 1393 601 L 1387 601 Z M 1224 629 L 1207 646 L 1191 665 Q 1182 676 1177 690 L 1195 695 L 1255 724 L 1256 727 L 1280 738 Q 1284 744 1292 746 L 1299 730 L 1302 727 L 1316 738 L 1321 740 L 1332 721 L 1338 723 L 1367 748 L 1385 728 L 1343 687 L 1344 684 L 1400 642 L 1405 635 Q 1399 634 1397 638 L 1333 688 L 1288 657 L 1293 651 L 1293 649 L 1291 650 L 1285 656 L 1284 666 L 1282 669 L 1280 670 L 1275 669 L 1225 631 Q 1226 628 1224 629 Z M 812 653 L 810 655 L 802 681 L 809 683 L 813 678 L 823 679 Q 827 680 826 687 L 830 688 L 834 683 L 857 684 L 858 685 L 869 686 L 911 702 L 959 716 L 972 722 L 976 728 Q 993 741 1015 751 L 1029 755 L 1049 757 L 1057 759 L 1058 754 L 1068 755 L 1067 762 L 1071 763 L 1074 758 L 1089 761 L 1090 763 L 1089 769 L 1094 771 L 1110 775 L 1111 770 L 1124 772 L 1123 778 L 1125 779 L 1153 788 L 1155 785 L 1170 789 L 1171 791 L 1170 797 L 1177 799 L 1181 791 Q 1185 791 1187 795 L 1186 797 L 1189 798 L 1202 756 L 1198 754 L 1203 733 Q 1202 730 1205 731 L 1207 723 L 1214 708 Q 1198 697 1177 691 Q 1172 690 1171 692 L 1154 691 L 1142 683 L 1127 683 L 1118 678 L 1090 673 L 1081 673 L 1079 678 L 1079 690 L 1080 691 L 1080 706 L 1079 708 L 1074 708 L 1071 705 L 1065 704 L 1055 699 L 1031 691 L 998 687 L 984 684 L 975 684 L 958 680 L 934 672 L 911 669 L 910 668 L 855 662 L 843 659 L 838 659 L 821 654 L 812 653 Z M 1419 653 L 1411 659 Q 1405 661 1404 668 L 1405 671 L 1407 711 L 1388 727 L 1368 750 L 1366 750 L 1333 723 L 1322 742 L 1316 740 L 1301 730 L 1293 748 Q 1283 746 1278 739 L 1261 732 L 1254 726 L 1217 708 L 1212 715 L 1207 730 L 1204 733 L 1200 753 L 1203 755 L 1198 775 L 1198 777 L 1190 802 L 1198 804 L 1200 807 L 1191 828 L 1189 839 L 1212 849 L 1216 849 L 1229 854 L 1245 863 Q 1260 861 1269 866 Q 1275 867 1276 863 L 1275 857 L 1273 854 L 1266 852 L 1236 852 Q 1234 849 1228 851 L 1214 845 L 1213 843 L 1213 832 L 1222 809 L 1255 818 L 1262 822 Q 1264 827 1261 829 L 1262 832 Q 1264 829 1263 823 L 1265 821 L 1268 822 L 1278 821 L 1281 813 L 1297 813 L 1317 818 L 1319 822 Q 1315 824 1316 830 L 1341 839 L 1342 839 L 1342 843 Q 1338 842 1337 845 L 1349 849 Q 1352 850 1351 847 L 1343 844 L 1346 840 L 1353 842 Q 1360 842 1364 837 L 1380 840 L 1431 860 L 1434 866 L 1440 891 L 1449 918 L 1453 920 Q 1457 914 1455 902 L 1460 892 L 1472 882 L 1476 882 Q 1496 892 1521 898 L 1589 924 L 1592 919 L 1628 921 L 1637 924 L 1648 931 L 1681 947 L 1696 957 L 1708 961 L 1744 968 L 1786 983 L 1807 994 L 1847 1003 L 1853 1003 L 1879 1010 L 1914 1024 L 1928 1028 L 1938 1028 L 1946 1025 L 1962 1025 L 2019 1035 L 2045 1042 L 2055 1047 Q 2060 1049 2061 1056 L 2061 1076 L 2059 1087 L 2059 1096 L 2058 1097 L 2058 1108 L 2057 1109 L 2057 1135 L 2059 1137 L 2060 1135 L 2062 1108 L 2063 1107 Q 2062 1102 2065 1103 L 2068 1055 L 2064 1053 L 2054 1043 L 2050 1034 Q 2051 1029 2049 1028 Q 2048 1020 2050 1017 L 2059 1017 L 2060 1018 L 2067 1018 L 2067 1014 L 2028 1014 L 2001 993 L 1988 985 L 1953 976 L 1944 970 L 1922 968 Q 1922 975 1918 977 L 1887 977 L 1878 975 L 1854 973 L 1853 972 L 1835 971 L 1834 970 L 1827 970 L 1809 966 L 1786 963 L 1776 960 L 1754 952 L 1724 937 L 1715 931 L 1694 922 L 1686 915 L 1670 914 L 1654 908 L 1642 902 L 1609 878 L 1600 875 L 1592 875 L 1578 869 L 1566 860 L 1536 843 L 1532 840 L 1534 832 L 1529 830 L 1525 831 L 1512 825 L 1505 817 L 1511 807 L 1507 803 L 1505 803 L 1501 807 L 1494 804 L 1491 801 L 1494 795 L 1489 791 L 1487 792 L 1479 786 L 1470 783 L 1468 787 L 1446 778 L 1443 785 L 1427 777 Q 1420 772 1417 764 L 1414 747 L 1414 742 L 1420 734 L 1420 724 L 1418 716 L 1419 679 L 1421 671 L 1429 659 L 1429 655 L 1428 653 L 1419 653 Z " /><path fill="rgb(164,191,154)" stroke="rgb(164,191,154)" stroke-width="1" opacity="1" d="M 1299.5 847 L 1304.5 848 L 1326.5 859 L 1345.5 873 L 1366.5 885 L 1399.5 899 L 1402.5 898 L 1405 899 L 1408 906.5 L 1405.5 911 L 1401.5 911 L 1383.5 901 L 1363.5 893 L 1305.5 875 L 1295.5 873 L 1289 869.5 L 1291 860.5 L 1296 850.5 L 1299.5 847 Z M 1301 848 L 1298 849 L 1292 862 L 1290 870 L 1365 892 L 1389 902 L 1403 910 L 1405 909 Q 1407 909 1406 903 L 1403 900 L 1401 900 L 1395 899 L 1363 884 L 1342 872 L 1330 862 L 1301 848 Z " /><path fill="rgb(164,191,154)" stroke="rgb(164,191,154)" stroke-width="1" opacity="1" d="M 2420.5 1004 Q 2425.8 1003.2 2427.5 1006 L 2434.5 1006 L 2435.5 1005 L 2443.5 1005 L 2452.5 1008 L 2463.5 1008 L 2464.5 1009 L 2504.5 1009 L 2520.5 1012 L 2543.5 1013 Q 2545.8 1010.3 2551.5 1011 L 2557.5 1013 L 2578.5 1016 L 2579.5 1015 L 2589.5 1015 L 2590.5 1016 L 2602.5 1017 L 2603.5 1016 L 2614.5 1016 Q 2616 1018.5 2621.5 1017 L 2622.5 1016 L 2633.5 1016 L 2637.5 1017 L 2638.5 1016 Q 2648 1017.5 2653.5 1015 L 2660.5 1017 L 2661.5 1016 L 2671.5 1016 L 2683.5 1013 L 2688.5 1013 L 2698.5 1010 L 2721.5 1009 L 2726.5 1012 L 2738.5 1012 Q 2744.3 1015.7 2755.5 1014 L 2769.5 1018 L 2786.5 1019 L 2812.5 1028 L 2818.5 1028 L 2835.5 1032 L 2845.5 1032 L 2852.5 1035 L 2858.5 1035 L 2874.5 1040 L 2903.5 1040 L 2920.5 1045 L 2925.5 1048 L 2940.5 1051 L 2942.5 1051 L 2958.5 1051 L 2974.5 1054 L 2992.5 1061 L 3002.5 1063 L 3009.5 1067 L 3029.5 1074 L 3047.5 1077 L 3056.5 1082 L 3067.5 1083 L 3073.5 1086 L 3100.5 1094 Q 3108.9 1093.1 3113.5 1096 L 3123.5 1096 L 3128.5 1098 L 3145.5 1100 Q 3146.7 1097.8 3151.5 1099 L 3160.5 1101 L 3165.5 1100 Q 3170.5 1102.8 3169 1111 Q 3166.6 1112.8 3160.5 1112 L 3153.5 1115 L 3130.5 1116 L 3126.5 1115 L 3114.5 1118 L 3101.5 1119 Q 3092.2 1124.2 3078.5 1125 Q 3077 1122.5 3071.5 1124 L 3070.5 1125 L 3059.5 1125 L 3053.5 1127 L 3042.5 1127 L 3041.5 1126 L 3030.5 1126 L 3029.5 1127 L 3020.5 1127 L 3019.5 1126 L 3005.5 1126 L 3004.5 1127 L 2987.5 1127 L 2976.5 1129 Q 2975.3 1126.8 2970.5 1128 L 2965.5 1129 L 2963.5 1128 Q 2958.5 1131 2949.5 1130 L 2948.5 1129 L 2935.5 1129 L 2926.5 1131 L 2917.5 1131 L 2912.5 1129 L 2897.5 1129 Q 2895.8 1131.8 2889.5 1130 L 2884.5 1128 L 2872.5 1128 Q 2867.4 1124.6 2857.5 1126 L 2853.5 1127 L 2852.5 1126 L 2837.5 1126 L 2823.5 1122 L 2814.5 1122 L 2813.5 1123 L 2805.5 1123 L 2791.5 1119 L 2785.5 1119 L 2784.5 1120 L 2771.5 1120 L 2761.5 1117 L 2744.5 1116 L 2743.5 1117 L 2714.5 1117 L 2713.5 1118 L 2704.5 1118 L 2700 1120.5 L 2703 1125.5 L 2703 1144.5 L 2701 1152.5 L 2700 1168.5 L 2697 1181.5 L 2695.5 1183 L 2683.5 1183 L 2683 1186.5 L 2678 1202.5 L 2675.5 1205 Q 2671.8 1206.3 2673 1202.5 L 2674 1201.5 L 2674 1191.5 L 2676 1180.5 Q 2673.8 1179.2 2675 1174.5 L 2676 1172 Q 2681.8 1172 2685 1168.5 L 2690 1139.5 L 2690 1130 Q 2683.5 1126.7 2672 1128 L 2671 1132.5 Q 2672.9 1135.8 2679 1134 L 2679 1140 L 2668.5 1140 L 2666.5 1138 Q 2662 1139 2661 1136.5 L 2662.5 1133 L 2667 1133 L 2667 1127 L 2660.5 1127 L 2659.5 1126 L 2658.5 1127 L 2649 1127 Q 2647.3 1131.5 2648 1139.5 L 2646 1146.5 L 2645 1167 L 2658 1169 L 2655 1201.5 L 2655.5 1203 L 2652.5 1204 L 2650 1203 Q 2646.8 1198.1 2648 1187.5 Q 2650.5 1186 2649 1180.5 L 2647.5 1179 L 2633 1178 L 2637 1132.5 L 2638 1131.5 L 2638 1119.5 L 2640 1115 Q 2643 1113 2650.5 1114 L 2655.5 1115 L 2657 1111 L 2651.5 1111 L 2641.5 1104 L 2628.5 1100 L 2617.5 1099 L 2589.5 1091 L 2561.5 1089 L 2548.5 1085 L 2540.5 1085 Q 2535.9 1082.1 2527.5 1083 L 2522.5 1081 L 2506.5 1080 L 2490.5 1076 L 2478.5 1076 L 2469.5 1074 L 2452.5 1074 L 2447.5 1073 L 2442.5 1074 Q 2433.2 1072.3 2427.5 1067 L 2419.5 1066 L 2415.5 1064 L 2401.5 1064 L 2400.5 1065 L 2392.5 1065 L 2382 1055.5 L 2379.5 1049 L 2364.5 1039 L 2357.5 1037 L 2331 1017.5 L 2332.5 1015 L 2336.5 1015 Q 2347.4 1024.1 2362.5 1029 L 2369.5 1027 L 2378 1020.5 L 2380 1013 L 2382.5 1012 L 2402.5 1012 L 2409.5 1010 L 2420.5 1004 Z M 2419 1006 L 2408 1012 L 2396 1013 L 2395 1014 L 2383 1013 L 2379 1022 L 2365 1030 L 2360 1030 L 2353 1027 L 2335 1016 Q 2332 1015 2333 1018 L 2358 1035 L 2366 1038 L 2381 1048 L 2383 1055 Q 2387 1062 2397 1064 L 2401 1063 L 2418 1063 Q 2420 1066 2427 1065 Q 2434 1071 2445 1073 L 2450 1071 L 2456 1073 L 2459 1072 L 2474 1073 L 2475 1074 L 2488 1074 L 2511 1079 L 2522 1079 L 2526 1081 L 2538 1082 L 2543 1084 L 2551 1084 L 2565 1088 L 2588 1089 L 2617 1097 L 2628 1098 L 2638 1101 Q 2647 1103 2653 1110 L 2656 1109 L 2659 1111 L 2657 1117 L 2648 1115 L 2641 1116 L 2639 1122 L 2639 1137 L 2638 1138 L 2638 1146 L 2637 1147 L 2635 1173 L 2634 1176 L 2637 1177 L 2650 1178 L 2651 1181 L 2649 1192 Q 2648 1198 2651 1201 Q 2650 1204 2654 1202 L 2654 1192 L 2655 1191 L 2657 1172 L 2656 1170 L 2643 1168 L 2644 1153 L 2645 1152 L 2645 1143 L 2647 1136 L 2647 1128 L 2652 1125 L 2664 1125 L 2669 1126 L 2668 1135 L 2662 1136 L 2674 1139 Q 2676 1140 2675 1137 L 2678 1137 Q 2676 1133 2670 1135 Q 2669 1129 2671 1126 L 2690 1128 L 2692 1132 L 2691 1133 L 2691 1145 L 2688 1156 L 2688 1164 L 2686 1170 L 2677 1173 L 2676 1198 L 2675 1199 L 2676 1203 L 2679 1196 L 2682 1184 L 2683 1182 L 2695 1182 L 2698 1171 L 2699 1156 L 2702 1141 L 2702 1127 L 2698 1119 L 2708 1116 L 2718 1116 L 2719 1115 L 2760 1115 L 2774 1119 Q 2778 1120 2780 1118 Q 2794 1116 2803 1121 L 2827 1121 L 2837 1124 L 2871 1125 L 2877 1127 L 2880 1126 L 2888 1127 L 2892 1129 L 2903 1127 L 2910 1127 L 2922 1130 L 2940 1128 L 2941 1127 L 2947 1127 L 2953 1129 Q 2959 1130 2962 1127 L 3005 1126 L 3008 1124 Q 3018 1122 3024 1126 L 3035 1124 Q 3042 1123 3045 1126 L 3051 1126 L 3058 1124 L 3070 1124 L 3071 1123 L 3087 1123 L 3104 1117 L 3114 1117 L 3127 1114 L 3153 1114 L 3160 1111 L 3166 1111 L 3168 1109 Q 3169 1102 3165 1101 L 3162 1102 L 3136 1101 L 3122 1097 L 3119 1098 L 3110 1096 L 3103 1096 L 3087 1092 L 3066 1084 L 3054 1083 L 3048 1079 L 3028 1075 L 3011 1069 L 3004 1065 L 2997 1064 L 2976 1056 L 2972 1056 L 2964 1053 L 2935 1052 L 2913 1044 L 2900 1041 L 2880 1041 L 2879 1042 L 2864 1039 L 2856 1036 L 2851 1036 L 2844 1033 L 2833 1033 L 2821 1030 L 2810 1029 L 2789 1021 L 2774 1020 L 2757 1016 L 2746 1016 L 2740 1014 L 2729 1014 L 2720 1010 L 2709 1010 L 2701 1012 L 2695 1012 L 2690 1014 L 2680 1015 L 2675 1017 L 2667 1017 L 2666 1018 L 2658 1018 L 2657 1017 L 2649 1017 L 2648 1018 L 2594 1018 L 2586 1016 Q 2581 1015 2580 1017 L 2560 1015 L 2554 1013 Q 2545 1012 2542 1015 Q 2536 1013 2527 1014 L 2526 1013 L 2516 1013 L 2502 1010 L 2474 1010 L 2473 1011 L 2449 1009 L 2439 1006 L 2431 1008 L 2426 1006 L 2419 1006 Z " /></svg>